%TF.GenerationSoftware,KiCad,Pcbnew,(5.1.10)-1*%
%TF.CreationDate,2021-12-24T17:51:45-05:00*%
%TF.ProjectId,BlueRetro Genesis ESP32 Shield,426c7565-5265-4747-926f-2047656e6573,rev?*%
%TF.SameCoordinates,Original*%
%TF.FileFunction,Copper,L1,Top*%
%TF.FilePolarity,Positive*%
%FSLAX46Y46*%
G04 Gerber Fmt 4.6, Leading zero omitted, Abs format (unit mm)*
G04 Created by KiCad (PCBNEW (5.1.10)-1) date 2021-12-24 17:51:45*
%MOMM*%
%LPD*%
G01*
G04 APERTURE LIST*
%TA.AperFunction,ComponentPad*%
%ADD10R,1.600000X1.600000*%
%TD*%
%TA.AperFunction,ComponentPad*%
%ADD11C,1.600000*%
%TD*%
%TA.AperFunction,ComponentPad*%
%ADD12C,4.000000*%
%TD*%
%TA.AperFunction,ComponentPad*%
%ADD13R,1.700000X1.700000*%
%TD*%
%TA.AperFunction,ComponentPad*%
%ADD14O,1.700000X1.700000*%
%TD*%
%TA.AperFunction,ViaPad*%
%ADD15C,0.800000*%
%TD*%
%TA.AperFunction,Conductor*%
%ADD16C,0.250000*%
%TD*%
%TA.AperFunction,Conductor*%
%ADD17C,0.500000*%
%TD*%
%TA.AperFunction,Conductor*%
%ADD18C,0.254000*%
%TD*%
%TA.AperFunction,Conductor*%
%ADD19C,0.100000*%
%TD*%
G04 APERTURE END LIST*
%TO.P,U6,14*%
%TO.N,+5V*%
%TA.AperFunction,SMDPad,CuDef*%
G36*
G01*
X154007000Y-69438000D02*
X153587000Y-69438000D01*
G75*
G02*
X153497000Y-69348000I0J90000D01*
G01*
X153497000Y-67558000D01*
G75*
G02*
X153587000Y-67468000I90000J0D01*
G01*
X154007000Y-67468000D01*
G75*
G02*
X154097000Y-67558000I0J-90000D01*
G01*
X154097000Y-69348000D01*
G75*
G02*
X154007000Y-69438000I-90000J0D01*
G01*
G37*
%TD.AperFunction*%
%TO.P,U6,13*%
%TO.N,GND*%
%TA.AperFunction,SMDPad,CuDef*%
G36*
G01*
X155277000Y-69438000D02*
X154857000Y-69438000D01*
G75*
G02*
X154767000Y-69348000I0J90000D01*
G01*
X154767000Y-67558000D01*
G75*
G02*
X154857000Y-67468000I90000J0D01*
G01*
X155277000Y-67468000D01*
G75*
G02*
X155367000Y-67558000I0J-90000D01*
G01*
X155367000Y-69348000D01*
G75*
G02*
X155277000Y-69438000I-90000J0D01*
G01*
G37*
%TD.AperFunction*%
%TO.P,U6,12*%
%TO.N,IO25*%
%TA.AperFunction,SMDPad,CuDef*%
G36*
G01*
X156547000Y-69438000D02*
X156127000Y-69438000D01*
G75*
G02*
X156037000Y-69348000I0J90000D01*
G01*
X156037000Y-67558000D01*
G75*
G02*
X156127000Y-67468000I90000J0D01*
G01*
X156547000Y-67468000D01*
G75*
G02*
X156637000Y-67558000I0J-90000D01*
G01*
X156637000Y-69348000D01*
G75*
G02*
X156547000Y-69438000I-90000J0D01*
G01*
G37*
%TD.AperFunction*%
%TO.P,U6,11*%
%TO.N,R2*%
%TA.AperFunction,SMDPad,CuDef*%
G36*
G01*
X157817000Y-69438000D02*
X157397000Y-69438000D01*
G75*
G02*
X157307000Y-69348000I0J90000D01*
G01*
X157307000Y-67558000D01*
G75*
G02*
X157397000Y-67468000I90000J0D01*
G01*
X157817000Y-67468000D01*
G75*
G02*
X157907000Y-67558000I0J-90000D01*
G01*
X157907000Y-69348000D01*
G75*
G02*
X157817000Y-69438000I-90000J0D01*
G01*
G37*
%TD.AperFunction*%
%TO.P,U6,10*%
%TO.N,GND*%
%TA.AperFunction,SMDPad,CuDef*%
G36*
G01*
X159087000Y-69438000D02*
X158667000Y-69438000D01*
G75*
G02*
X158577000Y-69348000I0J90000D01*
G01*
X158577000Y-67558000D01*
G75*
G02*
X158667000Y-67468000I90000J0D01*
G01*
X159087000Y-67468000D01*
G75*
G02*
X159177000Y-67558000I0J-90000D01*
G01*
X159177000Y-69348000D01*
G75*
G02*
X159087000Y-69438000I-90000J0D01*
G01*
G37*
%TD.AperFunction*%
%TO.P,U6,9*%
%TO.N,IO22*%
%TA.AperFunction,SMDPad,CuDef*%
G36*
G01*
X160357000Y-69438000D02*
X159937000Y-69438000D01*
G75*
G02*
X159847000Y-69348000I0J90000D01*
G01*
X159847000Y-67558000D01*
G75*
G02*
X159937000Y-67468000I90000J0D01*
G01*
X160357000Y-67468000D01*
G75*
G02*
X160447000Y-67558000I0J-90000D01*
G01*
X160447000Y-69348000D01*
G75*
G02*
X160357000Y-69438000I-90000J0D01*
G01*
G37*
%TD.AperFunction*%
%TO.P,U6,8*%
%TO.N,L2*%
%TA.AperFunction,SMDPad,CuDef*%
G36*
G01*
X161627000Y-69438000D02*
X161207000Y-69438000D01*
G75*
G02*
X161117000Y-69348000I0J90000D01*
G01*
X161117000Y-67558000D01*
G75*
G02*
X161207000Y-67468000I90000J0D01*
G01*
X161627000Y-67468000D01*
G75*
G02*
X161717000Y-67558000I0J-90000D01*
G01*
X161717000Y-69348000D01*
G75*
G02*
X161627000Y-69438000I-90000J0D01*
G01*
G37*
%TD.AperFunction*%
%TO.P,U6,7*%
%TO.N,GND*%
%TA.AperFunction,SMDPad,CuDef*%
G36*
G01*
X161627000Y-74388000D02*
X161207000Y-74388000D01*
G75*
G02*
X161117000Y-74298000I0J90000D01*
G01*
X161117000Y-72508000D01*
G75*
G02*
X161207000Y-72418000I90000J0D01*
G01*
X161627000Y-72418000D01*
G75*
G02*
X161717000Y-72508000I0J-90000D01*
G01*
X161717000Y-74298000D01*
G75*
G02*
X161627000Y-74388000I-90000J0D01*
G01*
G37*
%TD.AperFunction*%
%TO.P,U6,6*%
%TO.N,D2*%
%TA.AperFunction,SMDPad,CuDef*%
G36*
G01*
X160357000Y-74388000D02*
X159937000Y-74388000D01*
G75*
G02*
X159847000Y-74298000I0J90000D01*
G01*
X159847000Y-72508000D01*
G75*
G02*
X159937000Y-72418000I90000J0D01*
G01*
X160357000Y-72418000D01*
G75*
G02*
X160447000Y-72508000I0J-90000D01*
G01*
X160447000Y-74298000D01*
G75*
G02*
X160357000Y-74388000I-90000J0D01*
G01*
G37*
%TD.AperFunction*%
%TO.P,U6,5*%
%TO.N,IO21*%
%TA.AperFunction,SMDPad,CuDef*%
G36*
G01*
X159087000Y-74388000D02*
X158667000Y-74388000D01*
G75*
G02*
X158577000Y-74298000I0J90000D01*
G01*
X158577000Y-72508000D01*
G75*
G02*
X158667000Y-72418000I90000J0D01*
G01*
X159087000Y-72418000D01*
G75*
G02*
X159177000Y-72508000I0J-90000D01*
G01*
X159177000Y-74298000D01*
G75*
G02*
X159087000Y-74388000I-90000J0D01*
G01*
G37*
%TD.AperFunction*%
%TO.P,U6,4*%
%TO.N,GND*%
%TA.AperFunction,SMDPad,CuDef*%
G36*
G01*
X157817000Y-74388000D02*
X157397000Y-74388000D01*
G75*
G02*
X157307000Y-74298000I0J90000D01*
G01*
X157307000Y-72508000D01*
G75*
G02*
X157397000Y-72418000I90000J0D01*
G01*
X157817000Y-72418000D01*
G75*
G02*
X157907000Y-72508000I0J-90000D01*
G01*
X157907000Y-74298000D01*
G75*
G02*
X157817000Y-74388000I-90000J0D01*
G01*
G37*
%TD.AperFunction*%
%TO.P,U6,3*%
%TO.N,U2*%
%TA.AperFunction,SMDPad,CuDef*%
G36*
G01*
X156547000Y-74388000D02*
X156127000Y-74388000D01*
G75*
G02*
X156037000Y-74298000I0J90000D01*
G01*
X156037000Y-72508000D01*
G75*
G02*
X156127000Y-72418000I90000J0D01*
G01*
X156547000Y-72418000D01*
G75*
G02*
X156637000Y-72508000I0J-90000D01*
G01*
X156637000Y-74298000D01*
G75*
G02*
X156547000Y-74388000I-90000J0D01*
G01*
G37*
%TD.AperFunction*%
%TO.P,U6,2*%
%TO.N,IO19*%
%TA.AperFunction,SMDPad,CuDef*%
G36*
G01*
X155277000Y-74388000D02*
X154857000Y-74388000D01*
G75*
G02*
X154767000Y-74298000I0J90000D01*
G01*
X154767000Y-72508000D01*
G75*
G02*
X154857000Y-72418000I90000J0D01*
G01*
X155277000Y-72418000D01*
G75*
G02*
X155367000Y-72508000I0J-90000D01*
G01*
X155367000Y-74298000D01*
G75*
G02*
X155277000Y-74388000I-90000J0D01*
G01*
G37*
%TD.AperFunction*%
%TO.P,U6,1*%
%TO.N,GND*%
%TA.AperFunction,SMDPad,CuDef*%
G36*
G01*
X154007000Y-74388000D02*
X153587000Y-74388000D01*
G75*
G02*
X153497000Y-74298000I0J90000D01*
G01*
X153497000Y-72508000D01*
G75*
G02*
X153587000Y-72418000I90000J0D01*
G01*
X154007000Y-72418000D01*
G75*
G02*
X154097000Y-72508000I0J-90000D01*
G01*
X154097000Y-74298000D01*
G75*
G02*
X154007000Y-74388000I-90000J0D01*
G01*
G37*
%TD.AperFunction*%
%TD*%
%TO.P,U1,1*%
%TO.N,GND*%
%TA.AperFunction,SMDPad,CuDef*%
G36*
G01*
X154007000Y-84740000D02*
X153587000Y-84740000D01*
G75*
G02*
X153497000Y-84650000I0J90000D01*
G01*
X153497000Y-82860000D01*
G75*
G02*
X153587000Y-82770000I90000J0D01*
G01*
X154007000Y-82770000D01*
G75*
G02*
X154097000Y-82860000I0J-90000D01*
G01*
X154097000Y-84650000D01*
G75*
G02*
X154007000Y-84740000I-90000J0D01*
G01*
G37*
%TD.AperFunction*%
%TO.P,U1,2*%
%TO.N,TH1*%
%TA.AperFunction,SMDPad,CuDef*%
G36*
G01*
X155277000Y-84740000D02*
X154857000Y-84740000D01*
G75*
G02*
X154767000Y-84650000I0J90000D01*
G01*
X154767000Y-82860000D01*
G75*
G02*
X154857000Y-82770000I90000J0D01*
G01*
X155277000Y-82770000D01*
G75*
G02*
X155367000Y-82860000I0J-90000D01*
G01*
X155367000Y-84650000D01*
G75*
G02*
X155277000Y-84740000I-90000J0D01*
G01*
G37*
%TD.AperFunction*%
%TO.P,U1,3*%
%TO.N,IO35*%
%TA.AperFunction,SMDPad,CuDef*%
G36*
G01*
X156547000Y-84740000D02*
X156127000Y-84740000D01*
G75*
G02*
X156037000Y-84650000I0J90000D01*
G01*
X156037000Y-82860000D01*
G75*
G02*
X156127000Y-82770000I90000J0D01*
G01*
X156547000Y-82770000D01*
G75*
G02*
X156637000Y-82860000I0J-90000D01*
G01*
X156637000Y-84650000D01*
G75*
G02*
X156547000Y-84740000I-90000J0D01*
G01*
G37*
%TD.AperFunction*%
%TO.P,U1,4*%
%TO.N,GND*%
%TA.AperFunction,SMDPad,CuDef*%
G36*
G01*
X157817000Y-84740000D02*
X157397000Y-84740000D01*
G75*
G02*
X157307000Y-84650000I0J90000D01*
G01*
X157307000Y-82860000D01*
G75*
G02*
X157397000Y-82770000I90000J0D01*
G01*
X157817000Y-82770000D01*
G75*
G02*
X157907000Y-82860000I0J-90000D01*
G01*
X157907000Y-84650000D01*
G75*
G02*
X157817000Y-84740000I-90000J0D01*
G01*
G37*
%TD.AperFunction*%
%TO.P,U1,5*%
%TA.AperFunction,SMDPad,CuDef*%
G36*
G01*
X159087000Y-84740000D02*
X158667000Y-84740000D01*
G75*
G02*
X158577000Y-84650000I0J90000D01*
G01*
X158577000Y-82860000D01*
G75*
G02*
X158667000Y-82770000I90000J0D01*
G01*
X159087000Y-82770000D01*
G75*
G02*
X159177000Y-82860000I0J-90000D01*
G01*
X159177000Y-84650000D01*
G75*
G02*
X159087000Y-84740000I-90000J0D01*
G01*
G37*
%TD.AperFunction*%
%TO.P,U1,6*%
%TO.N,Net-(U1-Pad6)*%
%TA.AperFunction,SMDPad,CuDef*%
G36*
G01*
X160357000Y-84740000D02*
X159937000Y-84740000D01*
G75*
G02*
X159847000Y-84650000I0J90000D01*
G01*
X159847000Y-82860000D01*
G75*
G02*
X159937000Y-82770000I90000J0D01*
G01*
X160357000Y-82770000D01*
G75*
G02*
X160447000Y-82860000I0J-90000D01*
G01*
X160447000Y-84650000D01*
G75*
G02*
X160357000Y-84740000I-90000J0D01*
G01*
G37*
%TD.AperFunction*%
%TO.P,U1,7*%
%TO.N,GND*%
%TA.AperFunction,SMDPad,CuDef*%
G36*
G01*
X161627000Y-84740000D02*
X161207000Y-84740000D01*
G75*
G02*
X161117000Y-84650000I0J90000D01*
G01*
X161117000Y-82860000D01*
G75*
G02*
X161207000Y-82770000I90000J0D01*
G01*
X161627000Y-82770000D01*
G75*
G02*
X161717000Y-82860000I0J-90000D01*
G01*
X161717000Y-84650000D01*
G75*
G02*
X161627000Y-84740000I-90000J0D01*
G01*
G37*
%TD.AperFunction*%
%TO.P,U1,8*%
%TO.N,Net-(U1-Pad8)*%
%TA.AperFunction,SMDPad,CuDef*%
G36*
G01*
X161627000Y-79790000D02*
X161207000Y-79790000D01*
G75*
G02*
X161117000Y-79700000I0J90000D01*
G01*
X161117000Y-77910000D01*
G75*
G02*
X161207000Y-77820000I90000J0D01*
G01*
X161627000Y-77820000D01*
G75*
G02*
X161717000Y-77910000I0J-90000D01*
G01*
X161717000Y-79700000D01*
G75*
G02*
X161627000Y-79790000I-90000J0D01*
G01*
G37*
%TD.AperFunction*%
%TO.P,U1,9*%
%TO.N,GND*%
%TA.AperFunction,SMDPad,CuDef*%
G36*
G01*
X160357000Y-79790000D02*
X159937000Y-79790000D01*
G75*
G02*
X159847000Y-79700000I0J90000D01*
G01*
X159847000Y-77910000D01*
G75*
G02*
X159937000Y-77820000I90000J0D01*
G01*
X160357000Y-77820000D01*
G75*
G02*
X160447000Y-77910000I0J-90000D01*
G01*
X160447000Y-79700000D01*
G75*
G02*
X160357000Y-79790000I-90000J0D01*
G01*
G37*
%TD.AperFunction*%
%TO.P,U1,10*%
%TA.AperFunction,SMDPad,CuDef*%
G36*
G01*
X159087000Y-79790000D02*
X158667000Y-79790000D01*
G75*
G02*
X158577000Y-79700000I0J90000D01*
G01*
X158577000Y-77910000D01*
G75*
G02*
X158667000Y-77820000I90000J0D01*
G01*
X159087000Y-77820000D01*
G75*
G02*
X159177000Y-77910000I0J-90000D01*
G01*
X159177000Y-79700000D01*
G75*
G02*
X159087000Y-79790000I-90000J0D01*
G01*
G37*
%TD.AperFunction*%
%TO.P,U1,11*%
%TO.N,IO36*%
%TA.AperFunction,SMDPad,CuDef*%
G36*
G01*
X157817000Y-79790000D02*
X157397000Y-79790000D01*
G75*
G02*
X157307000Y-79700000I0J90000D01*
G01*
X157307000Y-77910000D01*
G75*
G02*
X157397000Y-77820000I90000J0D01*
G01*
X157817000Y-77820000D01*
G75*
G02*
X157907000Y-77910000I0J-90000D01*
G01*
X157907000Y-79700000D01*
G75*
G02*
X157817000Y-79790000I-90000J0D01*
G01*
G37*
%TD.AperFunction*%
%TO.P,U1,12*%
%TO.N,TH2*%
%TA.AperFunction,SMDPad,CuDef*%
G36*
G01*
X156547000Y-79790000D02*
X156127000Y-79790000D01*
G75*
G02*
X156037000Y-79700000I0J90000D01*
G01*
X156037000Y-77910000D01*
G75*
G02*
X156127000Y-77820000I90000J0D01*
G01*
X156547000Y-77820000D01*
G75*
G02*
X156637000Y-77910000I0J-90000D01*
G01*
X156637000Y-79700000D01*
G75*
G02*
X156547000Y-79790000I-90000J0D01*
G01*
G37*
%TD.AperFunction*%
%TO.P,U1,13*%
%TO.N,GND*%
%TA.AperFunction,SMDPad,CuDef*%
G36*
G01*
X155277000Y-79790000D02*
X154857000Y-79790000D01*
G75*
G02*
X154767000Y-79700000I0J90000D01*
G01*
X154767000Y-77910000D01*
G75*
G02*
X154857000Y-77820000I90000J0D01*
G01*
X155277000Y-77820000D01*
G75*
G02*
X155367000Y-77910000I0J-90000D01*
G01*
X155367000Y-79700000D01*
G75*
G02*
X155277000Y-79790000I-90000J0D01*
G01*
G37*
%TD.AperFunction*%
%TO.P,U1,14*%
%TO.N,+3V3*%
%TA.AperFunction,SMDPad,CuDef*%
G36*
G01*
X154007000Y-79790000D02*
X153587000Y-79790000D01*
G75*
G02*
X153497000Y-79700000I0J90000D01*
G01*
X153497000Y-77910000D01*
G75*
G02*
X153587000Y-77820000I90000J0D01*
G01*
X154007000Y-77820000D01*
G75*
G02*
X154097000Y-77910000I0J-90000D01*
G01*
X154097000Y-79700000D01*
G75*
G02*
X154007000Y-79790000I-90000J0D01*
G01*
G37*
%TD.AperFunction*%
%TD*%
%TO.P,U3,14*%
%TO.N,+5V*%
%TA.AperFunction,SMDPad,CuDef*%
G36*
G01*
X154007000Y-89885000D02*
X153587000Y-89885000D01*
G75*
G02*
X153497000Y-89795000I0J90000D01*
G01*
X153497000Y-88005000D01*
G75*
G02*
X153587000Y-87915000I90000J0D01*
G01*
X154007000Y-87915000D01*
G75*
G02*
X154097000Y-88005000I0J-90000D01*
G01*
X154097000Y-89795000D01*
G75*
G02*
X154007000Y-89885000I-90000J0D01*
G01*
G37*
%TD.AperFunction*%
%TO.P,U3,13*%
%TO.N,GND*%
%TA.AperFunction,SMDPad,CuDef*%
G36*
G01*
X155277000Y-89885000D02*
X154857000Y-89885000D01*
G75*
G02*
X154767000Y-89795000I0J90000D01*
G01*
X154767000Y-88005000D01*
G75*
G02*
X154857000Y-87915000I90000J0D01*
G01*
X155277000Y-87915000D01*
G75*
G02*
X155367000Y-88005000I0J-90000D01*
G01*
X155367000Y-89795000D01*
G75*
G02*
X155277000Y-89885000I-90000J0D01*
G01*
G37*
%TD.AperFunction*%
%TO.P,U3,12*%
%TO.N,IO26*%
%TA.AperFunction,SMDPad,CuDef*%
G36*
G01*
X156547000Y-89885000D02*
X156127000Y-89885000D01*
G75*
G02*
X156037000Y-89795000I0J90000D01*
G01*
X156037000Y-88005000D01*
G75*
G02*
X156127000Y-87915000I90000J0D01*
G01*
X156547000Y-87915000D01*
G75*
G02*
X156637000Y-88005000I0J-90000D01*
G01*
X156637000Y-89795000D01*
G75*
G02*
X156547000Y-89885000I-90000J0D01*
G01*
G37*
%TD.AperFunction*%
%TO.P,U3,11*%
%TO.N,TL1*%
%TA.AperFunction,SMDPad,CuDef*%
G36*
G01*
X157817000Y-89885000D02*
X157397000Y-89885000D01*
G75*
G02*
X157307000Y-89795000I0J90000D01*
G01*
X157307000Y-88005000D01*
G75*
G02*
X157397000Y-87915000I90000J0D01*
G01*
X157817000Y-87915000D01*
G75*
G02*
X157907000Y-88005000I0J-90000D01*
G01*
X157907000Y-89795000D01*
G75*
G02*
X157817000Y-89885000I-90000J0D01*
G01*
G37*
%TD.AperFunction*%
%TO.P,U3,10*%
%TO.N,GND*%
%TA.AperFunction,SMDPad,CuDef*%
G36*
G01*
X159087000Y-89885000D02*
X158667000Y-89885000D01*
G75*
G02*
X158577000Y-89795000I0J90000D01*
G01*
X158577000Y-88005000D01*
G75*
G02*
X158667000Y-87915000I90000J0D01*
G01*
X159087000Y-87915000D01*
G75*
G02*
X159177000Y-88005000I0J-90000D01*
G01*
X159177000Y-89795000D01*
G75*
G02*
X159087000Y-89885000I-90000J0D01*
G01*
G37*
%TD.AperFunction*%
%TO.P,U3,9*%
%TO.N,IO33*%
%TA.AperFunction,SMDPad,CuDef*%
G36*
G01*
X160357000Y-89885000D02*
X159937000Y-89885000D01*
G75*
G02*
X159847000Y-89795000I0J90000D01*
G01*
X159847000Y-88005000D01*
G75*
G02*
X159937000Y-87915000I90000J0D01*
G01*
X160357000Y-87915000D01*
G75*
G02*
X160447000Y-88005000I0J-90000D01*
G01*
X160447000Y-89795000D01*
G75*
G02*
X160357000Y-89885000I-90000J0D01*
G01*
G37*
%TD.AperFunction*%
%TO.P,U3,8*%
%TO.N,TL2*%
%TA.AperFunction,SMDPad,CuDef*%
G36*
G01*
X161627000Y-89885000D02*
X161207000Y-89885000D01*
G75*
G02*
X161117000Y-89795000I0J90000D01*
G01*
X161117000Y-88005000D01*
G75*
G02*
X161207000Y-87915000I90000J0D01*
G01*
X161627000Y-87915000D01*
G75*
G02*
X161717000Y-88005000I0J-90000D01*
G01*
X161717000Y-89795000D01*
G75*
G02*
X161627000Y-89885000I-90000J0D01*
G01*
G37*
%TD.AperFunction*%
%TO.P,U3,7*%
%TO.N,GND*%
%TA.AperFunction,SMDPad,CuDef*%
G36*
G01*
X161627000Y-94835000D02*
X161207000Y-94835000D01*
G75*
G02*
X161117000Y-94745000I0J90000D01*
G01*
X161117000Y-92955000D01*
G75*
G02*
X161207000Y-92865000I90000J0D01*
G01*
X161627000Y-92865000D01*
G75*
G02*
X161717000Y-92955000I0J-90000D01*
G01*
X161717000Y-94745000D01*
G75*
G02*
X161627000Y-94835000I-90000J0D01*
G01*
G37*
%TD.AperFunction*%
%TO.P,U3,6*%
%TO.N,TR2*%
%TA.AperFunction,SMDPad,CuDef*%
G36*
G01*
X160357000Y-94835000D02*
X159937000Y-94835000D01*
G75*
G02*
X159847000Y-94745000I0J90000D01*
G01*
X159847000Y-92955000D01*
G75*
G02*
X159937000Y-92865000I90000J0D01*
G01*
X160357000Y-92865000D01*
G75*
G02*
X160447000Y-92955000I0J-90000D01*
G01*
X160447000Y-94745000D01*
G75*
G02*
X160357000Y-94835000I-90000J0D01*
G01*
G37*
%TD.AperFunction*%
%TO.P,U3,5*%
%TO.N,IO16*%
%TA.AperFunction,SMDPad,CuDef*%
G36*
G01*
X159087000Y-94835000D02*
X158667000Y-94835000D01*
G75*
G02*
X158577000Y-94745000I0J90000D01*
G01*
X158577000Y-92955000D01*
G75*
G02*
X158667000Y-92865000I90000J0D01*
G01*
X159087000Y-92865000D01*
G75*
G02*
X159177000Y-92955000I0J-90000D01*
G01*
X159177000Y-94745000D01*
G75*
G02*
X159087000Y-94835000I-90000J0D01*
G01*
G37*
%TD.AperFunction*%
%TO.P,U3,4*%
%TO.N,GND*%
%TA.AperFunction,SMDPad,CuDef*%
G36*
G01*
X157817000Y-94835000D02*
X157397000Y-94835000D01*
G75*
G02*
X157307000Y-94745000I0J90000D01*
G01*
X157307000Y-92955000D01*
G75*
G02*
X157397000Y-92865000I90000J0D01*
G01*
X157817000Y-92865000D01*
G75*
G02*
X157907000Y-92955000I0J-90000D01*
G01*
X157907000Y-94745000D01*
G75*
G02*
X157817000Y-94835000I-90000J0D01*
G01*
G37*
%TD.AperFunction*%
%TO.P,U3,3*%
%TO.N,TR1*%
%TA.AperFunction,SMDPad,CuDef*%
G36*
G01*
X156547000Y-94835000D02*
X156127000Y-94835000D01*
G75*
G02*
X156037000Y-94745000I0J90000D01*
G01*
X156037000Y-92955000D01*
G75*
G02*
X156127000Y-92865000I90000J0D01*
G01*
X156547000Y-92865000D01*
G75*
G02*
X156637000Y-92955000I0J-90000D01*
G01*
X156637000Y-94745000D01*
G75*
G02*
X156547000Y-94835000I-90000J0D01*
G01*
G37*
%TD.AperFunction*%
%TO.P,U3,2*%
%TO.N,IO27*%
%TA.AperFunction,SMDPad,CuDef*%
G36*
G01*
X155277000Y-94835000D02*
X154857000Y-94835000D01*
G75*
G02*
X154767000Y-94745000I0J90000D01*
G01*
X154767000Y-92955000D01*
G75*
G02*
X154857000Y-92865000I90000J0D01*
G01*
X155277000Y-92865000D01*
G75*
G02*
X155367000Y-92955000I0J-90000D01*
G01*
X155367000Y-94745000D01*
G75*
G02*
X155277000Y-94835000I-90000J0D01*
G01*
G37*
%TD.AperFunction*%
%TO.P,U3,1*%
%TO.N,GND*%
%TA.AperFunction,SMDPad,CuDef*%
G36*
G01*
X154007000Y-94835000D02*
X153587000Y-94835000D01*
G75*
G02*
X153497000Y-94745000I0J90000D01*
G01*
X153497000Y-92955000D01*
G75*
G02*
X153587000Y-92865000I90000J0D01*
G01*
X154007000Y-92865000D01*
G75*
G02*
X154097000Y-92955000I0J-90000D01*
G01*
X154097000Y-94745000D01*
G75*
G02*
X154007000Y-94835000I-90000J0D01*
G01*
G37*
%TD.AperFunction*%
%TD*%
%TO.P,U5,1*%
%TO.N,GND*%
%TA.AperFunction,SMDPad,CuDef*%
G36*
G01*
X154007000Y-104868000D02*
X153587000Y-104868000D01*
G75*
G02*
X153497000Y-104778000I0J90000D01*
G01*
X153497000Y-102988000D01*
G75*
G02*
X153587000Y-102898000I90000J0D01*
G01*
X154007000Y-102898000D01*
G75*
G02*
X154097000Y-102988000I0J-90000D01*
G01*
X154097000Y-104778000D01*
G75*
G02*
X154007000Y-104868000I-90000J0D01*
G01*
G37*
%TD.AperFunction*%
%TO.P,U5,2*%
%TO.N,IO3*%
%TA.AperFunction,SMDPad,CuDef*%
G36*
G01*
X155277000Y-104868000D02*
X154857000Y-104868000D01*
G75*
G02*
X154767000Y-104778000I0J90000D01*
G01*
X154767000Y-102988000D01*
G75*
G02*
X154857000Y-102898000I90000J0D01*
G01*
X155277000Y-102898000D01*
G75*
G02*
X155367000Y-102988000I0J-90000D01*
G01*
X155367000Y-104778000D01*
G75*
G02*
X155277000Y-104868000I-90000J0D01*
G01*
G37*
%TD.AperFunction*%
%TO.P,U5,3*%
%TO.N,U1*%
%TA.AperFunction,SMDPad,CuDef*%
G36*
G01*
X156547000Y-104868000D02*
X156127000Y-104868000D01*
G75*
G02*
X156037000Y-104778000I0J90000D01*
G01*
X156037000Y-102988000D01*
G75*
G02*
X156127000Y-102898000I90000J0D01*
G01*
X156547000Y-102898000D01*
G75*
G02*
X156637000Y-102988000I0J-90000D01*
G01*
X156637000Y-104778000D01*
G75*
G02*
X156547000Y-104868000I-90000J0D01*
G01*
G37*
%TD.AperFunction*%
%TO.P,U5,4*%
%TO.N,GND*%
%TA.AperFunction,SMDPad,CuDef*%
G36*
G01*
X157817000Y-104868000D02*
X157397000Y-104868000D01*
G75*
G02*
X157307000Y-104778000I0J90000D01*
G01*
X157307000Y-102988000D01*
G75*
G02*
X157397000Y-102898000I90000J0D01*
G01*
X157817000Y-102898000D01*
G75*
G02*
X157907000Y-102988000I0J-90000D01*
G01*
X157907000Y-104778000D01*
G75*
G02*
X157817000Y-104868000I-90000J0D01*
G01*
G37*
%TD.AperFunction*%
%TO.P,U5,5*%
%TO.N,IO5*%
%TA.AperFunction,SMDPad,CuDef*%
G36*
G01*
X159087000Y-104868000D02*
X158667000Y-104868000D01*
G75*
G02*
X158577000Y-104778000I0J90000D01*
G01*
X158577000Y-102988000D01*
G75*
G02*
X158667000Y-102898000I90000J0D01*
G01*
X159087000Y-102898000D01*
G75*
G02*
X159177000Y-102988000I0J-90000D01*
G01*
X159177000Y-104778000D01*
G75*
G02*
X159087000Y-104868000I-90000J0D01*
G01*
G37*
%TD.AperFunction*%
%TO.P,U5,6*%
%TO.N,D1*%
%TA.AperFunction,SMDPad,CuDef*%
G36*
G01*
X160357000Y-104868000D02*
X159937000Y-104868000D01*
G75*
G02*
X159847000Y-104778000I0J90000D01*
G01*
X159847000Y-102988000D01*
G75*
G02*
X159937000Y-102898000I90000J0D01*
G01*
X160357000Y-102898000D01*
G75*
G02*
X160447000Y-102988000I0J-90000D01*
G01*
X160447000Y-104778000D01*
G75*
G02*
X160357000Y-104868000I-90000J0D01*
G01*
G37*
%TD.AperFunction*%
%TO.P,U5,7*%
%TO.N,GND*%
%TA.AperFunction,SMDPad,CuDef*%
G36*
G01*
X161627000Y-104868000D02*
X161207000Y-104868000D01*
G75*
G02*
X161117000Y-104778000I0J90000D01*
G01*
X161117000Y-102988000D01*
G75*
G02*
X161207000Y-102898000I90000J0D01*
G01*
X161627000Y-102898000D01*
G75*
G02*
X161717000Y-102988000I0J-90000D01*
G01*
X161717000Y-104778000D01*
G75*
G02*
X161627000Y-104868000I-90000J0D01*
G01*
G37*
%TD.AperFunction*%
%TO.P,U5,8*%
%TO.N,L1*%
%TA.AperFunction,SMDPad,CuDef*%
G36*
G01*
X161627000Y-99918000D02*
X161207000Y-99918000D01*
G75*
G02*
X161117000Y-99828000I0J90000D01*
G01*
X161117000Y-98038000D01*
G75*
G02*
X161207000Y-97948000I90000J0D01*
G01*
X161627000Y-97948000D01*
G75*
G02*
X161717000Y-98038000I0J-90000D01*
G01*
X161717000Y-99828000D01*
G75*
G02*
X161627000Y-99918000I-90000J0D01*
G01*
G37*
%TD.AperFunction*%
%TO.P,U5,9*%
%TO.N,IO18*%
%TA.AperFunction,SMDPad,CuDef*%
G36*
G01*
X160357000Y-99918000D02*
X159937000Y-99918000D01*
G75*
G02*
X159847000Y-99828000I0J90000D01*
G01*
X159847000Y-98038000D01*
G75*
G02*
X159937000Y-97948000I90000J0D01*
G01*
X160357000Y-97948000D01*
G75*
G02*
X160447000Y-98038000I0J-90000D01*
G01*
X160447000Y-99828000D01*
G75*
G02*
X160357000Y-99918000I-90000J0D01*
G01*
G37*
%TD.AperFunction*%
%TO.P,U5,10*%
%TO.N,GND*%
%TA.AperFunction,SMDPad,CuDef*%
G36*
G01*
X159087000Y-99918000D02*
X158667000Y-99918000D01*
G75*
G02*
X158577000Y-99828000I0J90000D01*
G01*
X158577000Y-98038000D01*
G75*
G02*
X158667000Y-97948000I90000J0D01*
G01*
X159087000Y-97948000D01*
G75*
G02*
X159177000Y-98038000I0J-90000D01*
G01*
X159177000Y-99828000D01*
G75*
G02*
X159087000Y-99918000I-90000J0D01*
G01*
G37*
%TD.AperFunction*%
%TO.P,U5,11*%
%TO.N,R1*%
%TA.AperFunction,SMDPad,CuDef*%
G36*
G01*
X157817000Y-99918000D02*
X157397000Y-99918000D01*
G75*
G02*
X157307000Y-99828000I0J90000D01*
G01*
X157307000Y-98038000D01*
G75*
G02*
X157397000Y-97948000I90000J0D01*
G01*
X157817000Y-97948000D01*
G75*
G02*
X157907000Y-98038000I0J-90000D01*
G01*
X157907000Y-99828000D01*
G75*
G02*
X157817000Y-99918000I-90000J0D01*
G01*
G37*
%TD.AperFunction*%
%TO.P,U5,12*%
%TO.N,IO23*%
%TA.AperFunction,SMDPad,CuDef*%
G36*
G01*
X156547000Y-99918000D02*
X156127000Y-99918000D01*
G75*
G02*
X156037000Y-99828000I0J90000D01*
G01*
X156037000Y-98038000D01*
G75*
G02*
X156127000Y-97948000I90000J0D01*
G01*
X156547000Y-97948000D01*
G75*
G02*
X156637000Y-98038000I0J-90000D01*
G01*
X156637000Y-99828000D01*
G75*
G02*
X156547000Y-99918000I-90000J0D01*
G01*
G37*
%TD.AperFunction*%
%TO.P,U5,13*%
%TO.N,GND*%
%TA.AperFunction,SMDPad,CuDef*%
G36*
G01*
X155277000Y-99918000D02*
X154857000Y-99918000D01*
G75*
G02*
X154767000Y-99828000I0J90000D01*
G01*
X154767000Y-98038000D01*
G75*
G02*
X154857000Y-97948000I90000J0D01*
G01*
X155277000Y-97948000D01*
G75*
G02*
X155367000Y-98038000I0J-90000D01*
G01*
X155367000Y-99828000D01*
G75*
G02*
X155277000Y-99918000I-90000J0D01*
G01*
G37*
%TD.AperFunction*%
%TO.P,U5,14*%
%TO.N,+5V*%
%TA.AperFunction,SMDPad,CuDef*%
G36*
G01*
X154007000Y-99918000D02*
X153587000Y-99918000D01*
G75*
G02*
X153497000Y-99828000I0J90000D01*
G01*
X153497000Y-98038000D01*
G75*
G02*
X153587000Y-97948000I90000J0D01*
G01*
X154007000Y-97948000D01*
G75*
G02*
X154097000Y-98038000I0J-90000D01*
G01*
X154097000Y-99828000D01*
G75*
G02*
X154007000Y-99918000I-90000J0D01*
G01*
G37*
%TD.AperFunction*%
%TD*%
D10*
%TO.P,J3,1*%
%TO.N,U1*%
X132715000Y-100584000D03*
D11*
%TO.P,J3,2*%
%TO.N,D1*%
X132715000Y-97814000D03*
%TO.P,J3,3*%
%TO.N,L1*%
X132715000Y-95044000D03*
%TO.P,J3,4*%
%TO.N,R1*%
X132715000Y-92274000D03*
%TO.P,J3,5*%
%TO.N,+5V*%
X132715000Y-89504000D03*
%TO.P,J3,6*%
%TO.N,Net-(J3-Pad6)*%
X132715000Y-86734000D03*
%TO.P,J3,7*%
%TO.N,Net-(J3-Pad7)*%
X132715000Y-83964000D03*
%TO.P,J3,8*%
%TO.N,Net-(J3-Pad8)*%
X132715000Y-81194000D03*
%TO.P,J3,9*%
%TO.N,U2*%
X132715000Y-78424000D03*
%TO.P,J3,10*%
%TO.N,D2*%
X132715000Y-75654000D03*
%TO.P,J3,11*%
%TO.N,L2*%
X132715000Y-72884000D03*
%TO.P,J3,12*%
%TO.N,R2*%
X132715000Y-70114000D03*
%TO.P,J3,13*%
%TO.N,+5V*%
X132715000Y-67344000D03*
%TO.P,J3,14*%
%TO.N,TL1*%
X129875000Y-99199000D03*
%TO.P,J3,15*%
%TO.N,TH1*%
X129875000Y-96429000D03*
%TO.P,J3,16*%
%TO.N,GND*%
X129875000Y-93659000D03*
%TO.P,J3,17*%
%TO.N,TR1*%
X129875000Y-90889000D03*
%TO.P,J3,18*%
%TO.N,Net-(J3-Pad18)*%
X129875000Y-88119000D03*
%TO.P,J3,19*%
%TO.N,Net-(J3-Pad19)*%
X129875000Y-85349000D03*
%TO.P,J3,20*%
%TO.N,Net-(J3-Pad20)*%
X129875000Y-82579000D03*
%TO.P,J3,21*%
%TO.N,Net-(J3-Pad21)*%
X129875000Y-79809000D03*
%TO.P,J3,22*%
%TO.N,TL2*%
X129875000Y-77039000D03*
%TO.P,J3,23*%
%TO.N,TH2*%
X129875000Y-74269000D03*
%TO.P,J3,24*%
%TO.N,GND*%
X129875000Y-71499000D03*
%TO.P,J3,25*%
%TO.N,TR2*%
X129875000Y-68729000D03*
D12*
%TO.P,J3,0*%
%TO.N,GND*%
X131295000Y-60414000D03*
X131295000Y-107514000D03*
%TD*%
%TO.P,C1,1*%
%TO.N,GND*%
%TA.AperFunction,SMDPad,CuDef*%
G36*
G01*
X152035500Y-76477500D02*
X152510500Y-76477500D01*
G75*
G02*
X152748000Y-76715000I0J-237500D01*
G01*
X152748000Y-77315000D01*
G75*
G02*
X152510500Y-77552500I-237500J0D01*
G01*
X152035500Y-77552500D01*
G75*
G02*
X151798000Y-77315000I0J237500D01*
G01*
X151798000Y-76715000D01*
G75*
G02*
X152035500Y-76477500I237500J0D01*
G01*
G37*
%TD.AperFunction*%
%TO.P,C1,2*%
%TO.N,+3V3*%
%TA.AperFunction,SMDPad,CuDef*%
G36*
G01*
X152035500Y-78202500D02*
X152510500Y-78202500D01*
G75*
G02*
X152748000Y-78440000I0J-237500D01*
G01*
X152748000Y-79040000D01*
G75*
G02*
X152510500Y-79277500I-237500J0D01*
G01*
X152035500Y-79277500D01*
G75*
G02*
X151798000Y-79040000I0J237500D01*
G01*
X151798000Y-78440000D01*
G75*
G02*
X152035500Y-78202500I237500J0D01*
G01*
G37*
%TD.AperFunction*%
%TD*%
%TO.P,C3,2*%
%TO.N,+5V*%
%TA.AperFunction,SMDPad,CuDef*%
G36*
G01*
X152035500Y-88309500D02*
X152510500Y-88309500D01*
G75*
G02*
X152748000Y-88547000I0J-237500D01*
G01*
X152748000Y-89147000D01*
G75*
G02*
X152510500Y-89384500I-237500J0D01*
G01*
X152035500Y-89384500D01*
G75*
G02*
X151798000Y-89147000I0J237500D01*
G01*
X151798000Y-88547000D01*
G75*
G02*
X152035500Y-88309500I237500J0D01*
G01*
G37*
%TD.AperFunction*%
%TO.P,C3,1*%
%TO.N,GND*%
%TA.AperFunction,SMDPad,CuDef*%
G36*
G01*
X152035500Y-86584500D02*
X152510500Y-86584500D01*
G75*
G02*
X152748000Y-86822000I0J-237500D01*
G01*
X152748000Y-87422000D01*
G75*
G02*
X152510500Y-87659500I-237500J0D01*
G01*
X152035500Y-87659500D01*
G75*
G02*
X151798000Y-87422000I0J237500D01*
G01*
X151798000Y-86822000D01*
G75*
G02*
X152035500Y-86584500I237500J0D01*
G01*
G37*
%TD.AperFunction*%
%TD*%
%TO.P,C5,2*%
%TO.N,+5V*%
%TA.AperFunction,SMDPad,CuDef*%
G36*
G01*
X151908500Y-98395500D02*
X152383500Y-98395500D01*
G75*
G02*
X152621000Y-98633000I0J-237500D01*
G01*
X152621000Y-99233000D01*
G75*
G02*
X152383500Y-99470500I-237500J0D01*
G01*
X151908500Y-99470500D01*
G75*
G02*
X151671000Y-99233000I0J237500D01*
G01*
X151671000Y-98633000D01*
G75*
G02*
X151908500Y-98395500I237500J0D01*
G01*
G37*
%TD.AperFunction*%
%TO.P,C5,1*%
%TO.N,GND*%
%TA.AperFunction,SMDPad,CuDef*%
G36*
G01*
X151908500Y-96670500D02*
X152383500Y-96670500D01*
G75*
G02*
X152621000Y-96908000I0J-237500D01*
G01*
X152621000Y-97508000D01*
G75*
G02*
X152383500Y-97745500I-237500J0D01*
G01*
X151908500Y-97745500D01*
G75*
G02*
X151671000Y-97508000I0J237500D01*
G01*
X151671000Y-96908000D01*
G75*
G02*
X151908500Y-96670500I237500J0D01*
G01*
G37*
%TD.AperFunction*%
%TD*%
%TO.P,C6,1*%
%TO.N,GND*%
%TA.AperFunction,SMDPad,CuDef*%
G36*
G01*
X152035500Y-66190500D02*
X152510500Y-66190500D01*
G75*
G02*
X152748000Y-66428000I0J-237500D01*
G01*
X152748000Y-67028000D01*
G75*
G02*
X152510500Y-67265500I-237500J0D01*
G01*
X152035500Y-67265500D01*
G75*
G02*
X151798000Y-67028000I0J237500D01*
G01*
X151798000Y-66428000D01*
G75*
G02*
X152035500Y-66190500I237500J0D01*
G01*
G37*
%TD.AperFunction*%
%TO.P,C6,2*%
%TO.N,+5V*%
%TA.AperFunction,SMDPad,CuDef*%
G36*
G01*
X152035500Y-67915500D02*
X152510500Y-67915500D01*
G75*
G02*
X152748000Y-68153000I0J-237500D01*
G01*
X152748000Y-68753000D01*
G75*
G02*
X152510500Y-68990500I-237500J0D01*
G01*
X152035500Y-68990500D01*
G75*
G02*
X151798000Y-68753000I0J237500D01*
G01*
X151798000Y-68153000D01*
G75*
G02*
X152035500Y-67915500I237500J0D01*
G01*
G37*
%TD.AperFunction*%
%TD*%
D13*
%TO.P,J1,1*%
%TO.N,+3V3*%
X146050000Y-63500000D03*
D14*
%TO.P,J1,2*%
%TO.N,Net-(J1-Pad2)*%
X146050000Y-66040000D03*
%TO.P,J1,3*%
%TO.N,IO36*%
X146050000Y-68580000D03*
%TO.P,J1,4*%
%TO.N,Net-(J1-Pad4)*%
X146050000Y-71120000D03*
%TO.P,J1,5*%
%TO.N,Net-(J1-Pad5)*%
X146050000Y-73660000D03*
%TO.P,J1,6*%
%TO.N,IO35*%
X146050000Y-76200000D03*
%TO.P,J1,7*%
%TO.N,Net-(J1-Pad7)*%
X146050000Y-78740000D03*
%TO.P,J1,8*%
%TO.N,IO33*%
X146050000Y-81280000D03*
%TO.P,J1,9*%
%TO.N,IO25*%
X146050000Y-83820000D03*
%TO.P,J1,10*%
%TO.N,IO26*%
X146050000Y-86360000D03*
%TO.P,J1,11*%
%TO.N,IO27*%
X146050000Y-88900000D03*
%TO.P,J1,12*%
%TO.N,Net-(J1-Pad12)*%
X146050000Y-91440000D03*
%TO.P,J1,13*%
%TO.N,Net-(J1-Pad13)*%
X146050000Y-93980000D03*
%TO.P,J1,14*%
%TO.N,GND*%
X146050000Y-96520000D03*
%TO.P,J1,15*%
%TO.N,Net-(J1-Pad15)*%
X146050000Y-99060000D03*
%TO.P,J1,16*%
%TO.N,Net-(J1-Pad16)*%
X146050000Y-101600000D03*
%TO.P,J1,17*%
%TO.N,Net-(J1-Pad17)*%
X146050000Y-104140000D03*
%TO.P,J1,18*%
%TO.N,Net-(J1-Pad18)*%
X146050000Y-106680000D03*
%TO.P,J1,19*%
%TO.N,+5V*%
X146050000Y-109220000D03*
%TD*%
%TO.P,J2,19*%
%TO.N,Net-(J2-Pad19)*%
X168910000Y-109220000D03*
%TO.P,J2,18*%
%TO.N,Net-(J2-Pad18)*%
X168910000Y-106680000D03*
%TO.P,J2,17*%
%TO.N,Net-(J2-Pad17)*%
X168910000Y-104140000D03*
%TO.P,J2,16*%
%TO.N,Net-(J2-Pad16)*%
X168910000Y-101600000D03*
%TO.P,J2,15*%
%TO.N,Net-(J2-Pad15)*%
X168910000Y-99060000D03*
%TO.P,J2,14*%
%TO.N,Net-(J2-Pad14)*%
X168910000Y-96520000D03*
%TO.P,J2,13*%
%TO.N,Net-(J2-Pad13)*%
X168910000Y-93980000D03*
%TO.P,J2,12*%
%TO.N,IO16*%
X168910000Y-91440000D03*
%TO.P,J2,11*%
%TO.N,IO17*%
X168910000Y-88900000D03*
%TO.P,J2,10*%
%TO.N,IO5*%
X168910000Y-86360000D03*
%TO.P,J2,9*%
%TO.N,IO18*%
X168910000Y-83820000D03*
%TO.P,J2,8*%
%TO.N,IO19*%
X168910000Y-81280000D03*
%TO.P,J2,7*%
%TO.N,GND*%
X168910000Y-78740000D03*
%TO.P,J2,6*%
%TO.N,IO21*%
X168910000Y-76200000D03*
%TO.P,J2,5*%
%TO.N,IO3*%
X168910000Y-73660000D03*
%TO.P,J2,4*%
%TO.N,Net-(J2-Pad4)*%
X168910000Y-71120000D03*
%TO.P,J2,3*%
%TO.N,IO22*%
X168910000Y-68580000D03*
%TO.P,J2,2*%
%TO.N,IO23*%
X168910000Y-66040000D03*
D13*
%TO.P,J2,1*%
%TO.N,GND*%
X168910000Y-63500000D03*
%TD*%
%TO.P,D1,1*%
%TO.N,GND*%
%TA.AperFunction,SMDPad,CuDef*%
G36*
G01*
X175516250Y-85172000D02*
X175003750Y-85172000D01*
G75*
G02*
X174785000Y-84953250I0J218750D01*
G01*
X174785000Y-84515750D01*
G75*
G02*
X175003750Y-84297000I218750J0D01*
G01*
X175516250Y-84297000D01*
G75*
G02*
X175735000Y-84515750I0J-218750D01*
G01*
X175735000Y-84953250D01*
G75*
G02*
X175516250Y-85172000I-218750J0D01*
G01*
G37*
%TD.AperFunction*%
%TO.P,D1,2*%
%TO.N,IO17*%
%TA.AperFunction,SMDPad,CuDef*%
G36*
G01*
X175516250Y-83597000D02*
X175003750Y-83597000D01*
G75*
G02*
X174785000Y-83378250I0J218750D01*
G01*
X174785000Y-82940750D01*
G75*
G02*
X175003750Y-82722000I218750J0D01*
G01*
X175516250Y-82722000D01*
G75*
G02*
X175735000Y-82940750I0J-218750D01*
G01*
X175735000Y-83378250D01*
G75*
G02*
X175516250Y-83597000I-218750J0D01*
G01*
G37*
%TD.AperFunction*%
%TD*%
%TO.P,R1,1*%
%TO.N,+3V3*%
%TA.AperFunction,SMDPad,CuDef*%
G36*
G01*
X174985000Y-79484000D02*
X175535000Y-79484000D01*
G75*
G02*
X175735000Y-79684000I0J-200000D01*
G01*
X175735000Y-80084000D01*
G75*
G02*
X175535000Y-80284000I-200000J0D01*
G01*
X174985000Y-80284000D01*
G75*
G02*
X174785000Y-80084000I0J200000D01*
G01*
X174785000Y-79684000D01*
G75*
G02*
X174985000Y-79484000I200000J0D01*
G01*
G37*
%TD.AperFunction*%
%TO.P,R1,2*%
%TO.N,IO17*%
%TA.AperFunction,SMDPad,CuDef*%
G36*
G01*
X174985000Y-81134000D02*
X175535000Y-81134000D01*
G75*
G02*
X175735000Y-81334000I0J-200000D01*
G01*
X175735000Y-81734000D01*
G75*
G02*
X175535000Y-81934000I-200000J0D01*
G01*
X174985000Y-81934000D01*
G75*
G02*
X174785000Y-81734000I0J200000D01*
G01*
X174785000Y-81334000D01*
G75*
G02*
X174985000Y-81134000I200000J0D01*
G01*
G37*
%TD.AperFunction*%
%TD*%
D15*
%TO.N,GND*%
X137414000Y-81280000D03*
X165862000Y-72390000D03*
X161417000Y-71120000D03*
X150622000Y-66929000D03*
X151003000Y-75057000D03*
X150622000Y-85852000D03*
X158750000Y-85979000D03*
X161417000Y-91186000D03*
X157607000Y-91821000D03*
X156083000Y-86868000D03*
X154305000Y-97028000D03*
X148780500Y-104584500D03*
X143002000Y-81280000D03*
X135509000Y-84328000D03*
X140208000Y-89535000D03*
X149225000Y-97282000D03*
X156972000Y-71501000D03*
X140716000Y-71628000D03*
X136017000Y-74295000D03*
X136906000Y-77089000D03*
X138557000Y-93726000D03*
X138557000Y-96393000D03*
X138557000Y-99441000D03*
%TO.N,+3V3*%
X175260000Y-78232000D03*
X151130000Y-78740000D03*
%TO.N,+5V*%
X151130000Y-68453000D03*
X151130000Y-88900000D03*
X151130000Y-98933000D03*
%TO.N,IO36*%
X157607000Y-76962000D03*
%TO.N,IO35*%
X156337000Y-81957410D03*
%TO.N,IO25*%
X156337000Y-66675000D03*
%TO.N,IO5*%
X158877000Y-105664000D03*
%TO.N,IO18*%
X160147000Y-97155000D03*
%TO.N,IO3*%
X155067000Y-105664000D03*
%TO.N,IO23*%
X156337000Y-97155000D03*
%TD*%
D16*
%TO.N,GND*%
X161417000Y-83755000D02*
X161417000Y-84740000D01*
X160147000Y-78805000D02*
X160147000Y-79375000D01*
X150040000Y-67638000D02*
X149733000Y-67945000D01*
X155067000Y-68453000D02*
X155067000Y-67468000D01*
X158877000Y-86614000D02*
X158242000Y-85979000D01*
X158877000Y-88900000D02*
X158877000Y-86614000D01*
X158877000Y-83755000D02*
X157607000Y-83755000D01*
X155067000Y-67468000D02*
X154401000Y-66802000D01*
D17*
%TO.N,+3V3*%
X152565500Y-78805000D02*
X152527000Y-78766500D01*
X152338000Y-78805000D02*
X152273000Y-78740000D01*
X153797000Y-78805000D02*
X152338000Y-78805000D01*
X152273000Y-78740000D02*
X151130000Y-78740000D01*
X175260000Y-79884000D02*
X175260000Y-78232000D01*
%TO.N,+5V*%
X153797000Y-68453000D02*
X152273000Y-68453000D01*
X152273000Y-68453000D02*
X151130000Y-68453000D01*
X153797000Y-88900000D02*
X152273000Y-88900000D01*
X152273000Y-88900000D02*
X151130000Y-88900000D01*
X153797000Y-98933000D02*
X152146000Y-98933000D01*
X152146000Y-98933000D02*
X151130000Y-98933000D01*
D16*
%TO.N,IO36*%
X157607000Y-78805000D02*
X157607000Y-76962000D01*
%TO.N,IO35*%
X156337000Y-83755000D02*
X156337000Y-81957410D01*
%TO.N,IO33*%
X153606500Y-81280000D02*
X146050000Y-81280000D01*
X159454410Y-84778410D02*
X159454410Y-82111410D01*
X159454410Y-82111410D02*
X158623000Y-81280000D01*
X160147000Y-85471000D02*
X159454410Y-84778410D01*
X158623000Y-81280000D02*
X153606500Y-81280000D01*
X160147000Y-88900000D02*
X160147000Y-85471000D01*
%TO.N,IO25*%
X156337000Y-68453000D02*
X156337000Y-66675000D01*
%TO.N,IO26*%
X150114000Y-90424000D02*
X146050000Y-86360000D01*
X155448000Y-90424000D02*
X150114000Y-90424000D01*
X156337000Y-89535000D02*
X156337000Y-88900000D01*
X155448000Y-90424000D02*
X156337000Y-89535000D01*
%TO.N,IO27*%
X146050000Y-89535000D02*
X146050000Y-88900000D01*
X147320000Y-92710000D02*
X147320000Y-90805000D01*
X154525000Y-95377000D02*
X149987000Y-95377000D01*
X147320000Y-90805000D02*
X146050000Y-89535000D01*
X155067000Y-94835000D02*
X154525000Y-95377000D01*
X149987000Y-95377000D02*
X147320000Y-92710000D01*
X155067000Y-93850000D02*
X155067000Y-94835000D01*
%TO.N,IO16*%
X159419000Y-95377000D02*
X164973000Y-95377000D01*
X164973000Y-95377000D02*
X168910000Y-91440000D01*
X158877000Y-94835000D02*
X159419000Y-95377000D01*
X158877000Y-93850000D02*
X158877000Y-94835000D01*
%TO.N,IO5*%
X158877000Y-105664000D02*
X158877000Y-103883000D01*
%TO.N,IO18*%
X160147000Y-98933000D02*
X160147000Y-97155000D01*
%TO.N,IO19*%
X167640000Y-80010000D02*
X168910000Y-81280000D01*
X163068000Y-75438000D02*
X167640000Y-80010000D01*
X156117000Y-75438000D02*
X163068000Y-75438000D01*
X155067000Y-74388000D02*
X156117000Y-75438000D01*
X155067000Y-73403000D02*
X155067000Y-74388000D01*
%TO.N,IO21*%
X164592000Y-76200000D02*
X168910000Y-76200000D01*
X159419000Y-74930000D02*
X163322000Y-74930000D01*
X163322000Y-74930000D02*
X164592000Y-76200000D01*
X158877000Y-74388000D02*
X159419000Y-74930000D01*
X158877000Y-73403000D02*
X158877000Y-74388000D01*
%TO.N,IO3*%
X155067000Y-105664000D02*
X155067000Y-103883000D01*
%TO.N,IO22*%
X167259000Y-66929000D02*
X168910000Y-68580000D01*
X160686000Y-66929000D02*
X167259000Y-66929000D01*
X160147000Y-67468000D02*
X160686000Y-66929000D01*
X160147000Y-68453000D02*
X160147000Y-67468000D01*
%TO.N,IO23*%
X156337000Y-98933000D02*
X156337000Y-97155000D01*
%TO.N,U1*%
X133096000Y-100965000D02*
X132715000Y-100584000D01*
X145415000Y-102870000D02*
X143510000Y-100965000D01*
X146685000Y-102870000D02*
X145415000Y-102870000D01*
X147193000Y-102362000D02*
X146685000Y-102870000D01*
X155801000Y-102362000D02*
X147193000Y-102362000D01*
X156337000Y-102898000D02*
X155801000Y-102362000D01*
X143510000Y-100965000D02*
X133096000Y-100965000D01*
X156337000Y-103883000D02*
X156337000Y-102898000D01*
%TO.N,D1*%
X142899000Y-97814000D02*
X132715000Y-97814000D01*
X148209000Y-100330000D02*
X145415000Y-100330000D01*
X149606000Y-101727000D02*
X148209000Y-100330000D01*
X158976000Y-101727000D02*
X149606000Y-101727000D01*
X145415000Y-100330000D02*
X142899000Y-97814000D01*
X160147000Y-102898000D02*
X158976000Y-101727000D01*
X160147000Y-103883000D02*
X160147000Y-102898000D01*
%TO.N,L1*%
X142542000Y-95044000D02*
X132715000Y-95044000D01*
X145288000Y-97790000D02*
X142542000Y-95044000D01*
X146558000Y-97790000D02*
X145288000Y-97790000D01*
X149860000Y-101092000D02*
X146558000Y-97790000D01*
X160243000Y-101092000D02*
X149860000Y-101092000D01*
X161417000Y-99918000D02*
X160243000Y-101092000D01*
X161417000Y-98933000D02*
X161417000Y-99918000D01*
%TO.N,R1*%
X142439000Y-92274000D02*
X132715000Y-92274000D01*
X145415000Y-95250000D02*
X142439000Y-92274000D01*
X146558000Y-95250000D02*
X145415000Y-95250000D01*
X147320000Y-96012000D02*
X146558000Y-95250000D01*
X157068000Y-100457000D02*
X150114000Y-100457000D01*
X150114000Y-100457000D02*
X147320000Y-97663000D01*
X157607000Y-99918000D02*
X157068000Y-100457000D01*
X147320000Y-97663000D02*
X147320000Y-96012000D01*
X157607000Y-98933000D02*
X157607000Y-99918000D01*
%TO.N,TL1*%
X156433000Y-91059000D02*
X157607000Y-89885000D01*
X149987000Y-91059000D02*
X156433000Y-91059000D01*
X130302000Y-94996000D02*
X129413000Y-94996000D01*
X131191000Y-97883000D02*
X131191000Y-95885000D01*
X129413000Y-94996000D02*
X128651000Y-94234000D01*
X131191000Y-95885000D02*
X130302000Y-94996000D01*
X157607000Y-89885000D02*
X157607000Y-88900000D01*
X129875000Y-99199000D02*
X131191000Y-97883000D01*
X146558000Y-87630000D02*
X149987000Y-91059000D01*
X128651000Y-94234000D02*
X128651000Y-90424000D01*
X128651000Y-90424000D02*
X129413000Y-89662000D01*
X130810000Y-89662000D02*
X132185589Y-88286411D01*
X132185589Y-88286411D02*
X144758589Y-88286411D01*
X144758589Y-88286411D02*
X145415000Y-87630000D01*
X129413000Y-89662000D02*
X130810000Y-89662000D01*
X145415000Y-87630000D02*
X146558000Y-87630000D01*
%TO.N,TH1*%
X128143000Y-94424500D02*
X129875000Y-96156500D01*
X128143000Y-90170000D02*
X128143000Y-94424500D01*
X129053411Y-89259589D02*
X128143000Y-90170000D01*
X130577411Y-89259589D02*
X129053411Y-89259589D01*
X131953000Y-87884000D02*
X130577411Y-89259589D01*
X142748000Y-87884000D02*
X131953000Y-87884000D01*
X146591153Y-85232599D02*
X145399401Y-85232599D01*
X149527752Y-82296000D02*
X146591153Y-85232599D01*
X154593000Y-82296000D02*
X149527752Y-82296000D01*
X155067000Y-82770000D02*
X154593000Y-82296000D01*
X129875000Y-96156500D02*
X129875000Y-96429000D01*
X145399401Y-85232599D02*
X142748000Y-87884000D01*
X155067000Y-83755000D02*
X155067000Y-82770000D01*
%TO.N,TR1*%
X156337000Y-93850000D02*
X156337000Y-94835000D01*
X155287000Y-95885000D02*
X149733000Y-95885000D01*
X156337000Y-94835000D02*
X155287000Y-95885000D01*
X149733000Y-95885000D02*
X146558000Y-92710000D01*
X146558000Y-92710000D02*
X145415000Y-92710000D01*
X145415000Y-92710000D02*
X143594000Y-90889000D01*
X143594000Y-90889000D02*
X139543446Y-90889000D01*
X139543446Y-90889000D02*
X129875000Y-90889000D01*
%TO.N,TR2*%
X128524000Y-70080000D02*
X129875000Y-68729000D01*
X160147000Y-93850000D02*
X160147000Y-91821000D01*
X160147000Y-91821000D02*
X158184410Y-89858410D01*
X155644410Y-84687008D02*
X155644410Y-82707812D01*
X130683000Y-81153000D02*
X129413000Y-81153000D01*
X128524000Y-80264000D02*
X128524000Y-70080000D01*
X158184410Y-87227008D02*
X155644410Y-84687008D01*
X158184410Y-89858410D02*
X158184410Y-87227008D01*
X155644410Y-82707812D02*
X154724598Y-81788000D01*
X154724598Y-81788000D02*
X148844000Y-81788000D01*
X148082000Y-82550000D02*
X132080000Y-82550000D01*
X148844000Y-81788000D02*
X148082000Y-82550000D01*
X132080000Y-82550000D02*
X130683000Y-81153000D01*
X129413000Y-81153000D02*
X128524000Y-80264000D01*
%TO.N,TH2*%
X130952401Y-75346401D02*
X129875000Y-74269000D01*
X130952401Y-78501401D02*
X130952401Y-75346401D01*
X133350000Y-79629000D02*
X132080000Y-79629000D01*
X133731000Y-79248000D02*
X133350000Y-79629000D01*
X142875000Y-79248000D02*
X133731000Y-79248000D01*
X144653000Y-77470000D02*
X142875000Y-79248000D01*
X146566777Y-77470000D02*
X144653000Y-77470000D01*
X155863000Y-80264000D02*
X149360777Y-80264000D01*
X132080000Y-79629000D02*
X130952401Y-78501401D01*
X149360777Y-80264000D02*
X146566777Y-77470000D01*
X156337000Y-79790000D02*
X155863000Y-80264000D01*
X156337000Y-78805000D02*
X156337000Y-79790000D01*
%TO.N,TL2*%
X131847411Y-80031411D02*
X129875000Y-78059000D01*
X148103411Y-80031411D02*
X131847411Y-80031411D01*
X148844000Y-80772000D02*
X148103411Y-80031411D01*
X129875000Y-78059000D02*
X129875000Y-77039000D01*
X158788598Y-80772000D02*
X148844000Y-80772000D01*
X160782000Y-84963000D02*
X160782000Y-82765402D01*
X161417000Y-85598000D02*
X160782000Y-84963000D01*
X160782000Y-82765402D02*
X158788598Y-80772000D01*
X161417000Y-88900000D02*
X161417000Y-85598000D01*
%TO.N,R2*%
X142611000Y-70114000D02*
X132715000Y-70114000D01*
X145415000Y-67310000D02*
X142611000Y-70114000D01*
X146448554Y-67310000D02*
X145415000Y-67310000D01*
X148226554Y-65532000D02*
X146448554Y-67310000D01*
X156196554Y-65532000D02*
X148226554Y-65532000D01*
X157607000Y-66942446D02*
X156196554Y-65532000D01*
X157607000Y-68453000D02*
X157607000Y-66942446D01*
%TO.N,L2*%
X142381000Y-72884000D02*
X132715000Y-72884000D01*
X145415000Y-69850000D02*
X142381000Y-72884000D01*
X161005000Y-69850000D02*
X145415000Y-69850000D01*
X161417000Y-69438000D02*
X161005000Y-69850000D01*
X161417000Y-68453000D02*
X161417000Y-69438000D01*
%TO.N,D2*%
X142151000Y-75654000D02*
X132715000Y-75654000D01*
X145415000Y-72390000D02*
X142151000Y-75654000D01*
X146812000Y-72390000D02*
X145415000Y-72390000D01*
X148844000Y-70358000D02*
X146812000Y-72390000D01*
X158369000Y-70358000D02*
X148844000Y-70358000D01*
X160147000Y-72136000D02*
X158369000Y-70358000D01*
X160147000Y-73403000D02*
X160147000Y-72136000D01*
%TO.N,U2*%
X141921000Y-78424000D02*
X132715000Y-78424000D01*
X146558000Y-74930000D02*
X145415000Y-74930000D01*
X150495000Y-70993000D02*
X146558000Y-74930000D01*
X154912000Y-70993000D02*
X150495000Y-70993000D01*
X145415000Y-74930000D02*
X141921000Y-78424000D01*
X156337000Y-72418000D02*
X154912000Y-70993000D01*
X156337000Y-73403000D02*
X156337000Y-72418000D01*
%TO.N,IO17*%
X174650500Y-83159500D02*
X175260000Y-83159500D01*
X168910000Y-88900000D02*
X174650500Y-83159500D01*
X175260000Y-83159500D02*
X175260000Y-81534000D01*
%TD*%
D18*
%TO.N,GND*%
X130260474Y-57976721D02*
X129843228Y-58199742D01*
X129627106Y-58566501D01*
X131295000Y-60234395D01*
X132962894Y-58566501D01*
X132746772Y-58199742D01*
X132286895Y-57959062D01*
X132211817Y-57937000D01*
X179807000Y-57937000D01*
X179807001Y-109957000D01*
X170203547Y-109957000D01*
X170225990Y-109923411D01*
X170337932Y-109653158D01*
X170395000Y-109366260D01*
X170395000Y-109073740D01*
X170337932Y-108786842D01*
X170225990Y-108516589D01*
X170063475Y-108273368D01*
X169856632Y-108066525D01*
X169682240Y-107950000D01*
X169856632Y-107833475D01*
X170063475Y-107626632D01*
X170225990Y-107383411D01*
X170337932Y-107113158D01*
X170395000Y-106826260D01*
X170395000Y-106533740D01*
X170337932Y-106246842D01*
X170225990Y-105976589D01*
X170063475Y-105733368D01*
X169856632Y-105526525D01*
X169682240Y-105410000D01*
X169856632Y-105293475D01*
X169930939Y-105219168D01*
X172160000Y-105219168D01*
X172160000Y-105854832D01*
X172284012Y-106478281D01*
X172527270Y-107065558D01*
X172880425Y-107594093D01*
X173329907Y-108043575D01*
X173858442Y-108396730D01*
X174445719Y-108639988D01*
X175069168Y-108764000D01*
X175704832Y-108764000D01*
X176328281Y-108639988D01*
X176915558Y-108396730D01*
X177444093Y-108043575D01*
X177893575Y-107594093D01*
X178246730Y-107065558D01*
X178489988Y-106478281D01*
X178614000Y-105854832D01*
X178614000Y-105219168D01*
X178489988Y-104595719D01*
X178246730Y-104008442D01*
X177893575Y-103479907D01*
X177444093Y-103030425D01*
X176915558Y-102677270D01*
X176328281Y-102434012D01*
X175704832Y-102310000D01*
X175069168Y-102310000D01*
X174445719Y-102434012D01*
X173858442Y-102677270D01*
X173329907Y-103030425D01*
X172880425Y-103479907D01*
X172527270Y-104008442D01*
X172284012Y-104595719D01*
X172160000Y-105219168D01*
X169930939Y-105219168D01*
X170063475Y-105086632D01*
X170225990Y-104843411D01*
X170337932Y-104573158D01*
X170395000Y-104286260D01*
X170395000Y-103993740D01*
X170337932Y-103706842D01*
X170225990Y-103436589D01*
X170063475Y-103193368D01*
X169856632Y-102986525D01*
X169682240Y-102870000D01*
X169856632Y-102753475D01*
X170063475Y-102546632D01*
X170225990Y-102303411D01*
X170337932Y-102033158D01*
X170395000Y-101746260D01*
X170395000Y-101453740D01*
X170337932Y-101166842D01*
X170225990Y-100896589D01*
X170063475Y-100653368D01*
X169856632Y-100446525D01*
X169682240Y-100330000D01*
X169856632Y-100213475D01*
X170063475Y-100006632D01*
X170225990Y-99763411D01*
X170337932Y-99493158D01*
X170395000Y-99206260D01*
X170395000Y-98913740D01*
X170337932Y-98626842D01*
X170225990Y-98356589D01*
X170063475Y-98113368D01*
X169856632Y-97906525D01*
X169682240Y-97790000D01*
X169856632Y-97673475D01*
X170063475Y-97466632D01*
X170225990Y-97223411D01*
X170337932Y-96953158D01*
X170395000Y-96666260D01*
X170395000Y-96373740D01*
X170337932Y-96086842D01*
X170225990Y-95816589D01*
X170063475Y-95573368D01*
X169856632Y-95366525D01*
X169682240Y-95250000D01*
X169856632Y-95133475D01*
X170063475Y-94926632D01*
X170225990Y-94683411D01*
X170337932Y-94413158D01*
X170395000Y-94126260D01*
X170395000Y-93833740D01*
X170337932Y-93546842D01*
X170225990Y-93276589D01*
X170063475Y-93033368D01*
X169856632Y-92826525D01*
X169682240Y-92710000D01*
X169856632Y-92593475D01*
X170063475Y-92386632D01*
X170225990Y-92143411D01*
X170337932Y-91873158D01*
X170395000Y-91586260D01*
X170395000Y-91293740D01*
X170337932Y-91006842D01*
X170225990Y-90736589D01*
X170063475Y-90493368D01*
X169856632Y-90286525D01*
X169682240Y-90170000D01*
X169856632Y-90053475D01*
X170063475Y-89846632D01*
X170225990Y-89603411D01*
X170337932Y-89333158D01*
X170395000Y-89046260D01*
X170395000Y-88753740D01*
X170351209Y-88533592D01*
X174150000Y-84734802D01*
X174150000Y-84861502D01*
X174308748Y-84861502D01*
X174150000Y-85020250D01*
X174146928Y-85172000D01*
X174159188Y-85296482D01*
X174195498Y-85416180D01*
X174254463Y-85526494D01*
X174333815Y-85623185D01*
X174430506Y-85702537D01*
X174540820Y-85761502D01*
X174660518Y-85797812D01*
X174785000Y-85810072D01*
X174974250Y-85807000D01*
X175133000Y-85648250D01*
X175133000Y-84861500D01*
X175387000Y-84861500D01*
X175387000Y-85648250D01*
X175545750Y-85807000D01*
X175735000Y-85810072D01*
X175859482Y-85797812D01*
X175979180Y-85761502D01*
X176089494Y-85702537D01*
X176186185Y-85623185D01*
X176265537Y-85526494D01*
X176324502Y-85416180D01*
X176360812Y-85296482D01*
X176373072Y-85172000D01*
X176370000Y-85020250D01*
X176211250Y-84861500D01*
X175387000Y-84861500D01*
X175133000Y-84861500D01*
X175113000Y-84861500D01*
X175113000Y-84607500D01*
X175133000Y-84607500D01*
X175133000Y-84587500D01*
X175387000Y-84587500D01*
X175387000Y-84607500D01*
X176211250Y-84607500D01*
X176370000Y-84448750D01*
X176373072Y-84297000D01*
X176360812Y-84172518D01*
X176324502Y-84052820D01*
X176265537Y-83942506D01*
X176210900Y-83875930D01*
X176228671Y-83854275D01*
X176307850Y-83706142D01*
X176356608Y-83545408D01*
X176373072Y-83378250D01*
X176373072Y-82940750D01*
X176356608Y-82773592D01*
X176307850Y-82612858D01*
X176228671Y-82464725D01*
X176122115Y-82334885D01*
X176119817Y-82332999D01*
X176127606Y-82326606D01*
X176231831Y-82199608D01*
X176309278Y-82054716D01*
X176356969Y-81897500D01*
X176373072Y-81734000D01*
X176373072Y-81334000D01*
X176356969Y-81170500D01*
X176309278Y-81013284D01*
X176231831Y-80868392D01*
X176127606Y-80741394D01*
X176088134Y-80709000D01*
X176127606Y-80676606D01*
X176231831Y-80549608D01*
X176309278Y-80404716D01*
X176356969Y-80247500D01*
X176373072Y-80084000D01*
X176373072Y-79684000D01*
X176356969Y-79520500D01*
X176309278Y-79363284D01*
X176231831Y-79218392D01*
X176145000Y-79112589D01*
X176145000Y-78770454D01*
X176177205Y-78722256D01*
X176255226Y-78533898D01*
X176295000Y-78333939D01*
X176295000Y-78130061D01*
X176255226Y-77930102D01*
X176177205Y-77741744D01*
X176063937Y-77572226D01*
X175919774Y-77428063D01*
X175750256Y-77314795D01*
X175561898Y-77236774D01*
X175361939Y-77197000D01*
X175158061Y-77197000D01*
X174958102Y-77236774D01*
X174769744Y-77314795D01*
X174600226Y-77428063D01*
X174456063Y-77572226D01*
X174342795Y-77741744D01*
X174264774Y-77930102D01*
X174225000Y-78130061D01*
X174225000Y-78333939D01*
X174264774Y-78533898D01*
X174342795Y-78722256D01*
X174375001Y-78770455D01*
X174375000Y-79112588D01*
X174288169Y-79218392D01*
X174210722Y-79363284D01*
X174163031Y-79520500D01*
X174146928Y-79684000D01*
X174146928Y-80084000D01*
X174163031Y-80247500D01*
X174210722Y-80404716D01*
X174288169Y-80549608D01*
X174392394Y-80676606D01*
X174431866Y-80709000D01*
X174392394Y-80741394D01*
X174288169Y-80868392D01*
X174210722Y-81013284D01*
X174163031Y-81170500D01*
X174146928Y-81334000D01*
X174146928Y-81734000D01*
X174163031Y-81897500D01*
X174210722Y-82054716D01*
X174288169Y-82199608D01*
X174392394Y-82326606D01*
X174400183Y-82332999D01*
X174397885Y-82334885D01*
X174291329Y-82464725D01*
X174272621Y-82499726D01*
X174226223Y-82524526D01*
X174148581Y-82588246D01*
X174110499Y-82619499D01*
X174086701Y-82648497D01*
X170395000Y-86340199D01*
X170395000Y-86213740D01*
X170337932Y-85926842D01*
X170225990Y-85656589D01*
X170063475Y-85413368D01*
X169856632Y-85206525D01*
X169682240Y-85090000D01*
X169856632Y-84973475D01*
X170063475Y-84766632D01*
X170225990Y-84523411D01*
X170337932Y-84253158D01*
X170395000Y-83966260D01*
X170395000Y-83673740D01*
X170337932Y-83386842D01*
X170225990Y-83116589D01*
X170063475Y-82873368D01*
X169856632Y-82666525D01*
X169682240Y-82550000D01*
X169856632Y-82433475D01*
X170063475Y-82226632D01*
X170225990Y-81983411D01*
X170337932Y-81713158D01*
X170395000Y-81426260D01*
X170395000Y-81133740D01*
X170337932Y-80846842D01*
X170225990Y-80576589D01*
X170063475Y-80333368D01*
X169856632Y-80126525D01*
X169674466Y-80004805D01*
X169791355Y-79935178D01*
X170007588Y-79740269D01*
X170181641Y-79506920D01*
X170306825Y-79244099D01*
X170351476Y-79096890D01*
X170230155Y-78867000D01*
X169037000Y-78867000D01*
X169037000Y-78887000D01*
X168783000Y-78887000D01*
X168783000Y-78867000D01*
X168763000Y-78867000D01*
X168763000Y-78613000D01*
X168783000Y-78613000D01*
X168783000Y-78593000D01*
X169037000Y-78593000D01*
X169037000Y-78613000D01*
X170230155Y-78613000D01*
X170351476Y-78383110D01*
X170306825Y-78235901D01*
X170181641Y-77973080D01*
X170007588Y-77739731D01*
X169791355Y-77544822D01*
X169674466Y-77475195D01*
X169856632Y-77353475D01*
X170063475Y-77146632D01*
X170225990Y-76903411D01*
X170337932Y-76633158D01*
X170395000Y-76346260D01*
X170395000Y-76053740D01*
X170337932Y-75766842D01*
X170225990Y-75496589D01*
X170063475Y-75253368D01*
X169856632Y-75046525D01*
X169682240Y-74930000D01*
X169856632Y-74813475D01*
X170063475Y-74606632D01*
X170225990Y-74363411D01*
X170337932Y-74093158D01*
X170395000Y-73806260D01*
X170395000Y-73513740D01*
X170337932Y-73226842D01*
X170225990Y-72956589D01*
X170063475Y-72713368D01*
X169856632Y-72506525D01*
X169682240Y-72390000D01*
X169856632Y-72273475D01*
X170063475Y-72066632D01*
X170225990Y-71823411D01*
X170337932Y-71553158D01*
X170395000Y-71266260D01*
X170395000Y-70973740D01*
X170337932Y-70686842D01*
X170225990Y-70416589D01*
X170063475Y-70173368D01*
X169856632Y-69966525D01*
X169682240Y-69850000D01*
X169856632Y-69733475D01*
X170063475Y-69526632D01*
X170225990Y-69283411D01*
X170337932Y-69013158D01*
X170395000Y-68726260D01*
X170395000Y-68433740D01*
X170337932Y-68146842D01*
X170225990Y-67876589D01*
X170063475Y-67633368D01*
X169856632Y-67426525D01*
X169682240Y-67310000D01*
X169856632Y-67193475D01*
X170063475Y-66986632D01*
X170225990Y-66743411D01*
X170337932Y-66473158D01*
X170395000Y-66186260D01*
X170395000Y-65893740D01*
X170337932Y-65606842D01*
X170225990Y-65336589D01*
X170063475Y-65093368D01*
X169931620Y-64961513D01*
X170004180Y-64939502D01*
X170114494Y-64880537D01*
X170211185Y-64801185D01*
X170290537Y-64704494D01*
X170349502Y-64594180D01*
X170385812Y-64474482D01*
X170398072Y-64350000D01*
X170395000Y-63785750D01*
X170236250Y-63627000D01*
X169037000Y-63627000D01*
X169037000Y-63647000D01*
X168783000Y-63647000D01*
X168783000Y-63627000D01*
X167583750Y-63627000D01*
X167425000Y-63785750D01*
X167421928Y-64350000D01*
X167434188Y-64474482D01*
X167470498Y-64594180D01*
X167529463Y-64704494D01*
X167608815Y-64801185D01*
X167705506Y-64880537D01*
X167815820Y-64939502D01*
X167888380Y-64961513D01*
X167756525Y-65093368D01*
X167594010Y-65336589D01*
X167482068Y-65606842D01*
X167425000Y-65893740D01*
X167425000Y-66185158D01*
X167407986Y-66179997D01*
X167296333Y-66169000D01*
X167296322Y-66169000D01*
X167259000Y-66165324D01*
X167221678Y-66169000D01*
X160723322Y-66169000D01*
X160685999Y-66165324D01*
X160648676Y-66169000D01*
X160648667Y-66169000D01*
X160537014Y-66179997D01*
X160393753Y-66223454D01*
X160261723Y-66294026D01*
X160178083Y-66362668D01*
X160145999Y-66388999D01*
X160122200Y-66417998D01*
X159650797Y-66889401D01*
X159543085Y-66946975D01*
X159531494Y-66937463D01*
X159421180Y-66878498D01*
X159301482Y-66842188D01*
X159177000Y-66829928D01*
X159162750Y-66833000D01*
X159004000Y-66991750D01*
X159004000Y-68326000D01*
X159024000Y-68326000D01*
X159024000Y-68580000D01*
X159004000Y-68580000D01*
X159004000Y-68600000D01*
X158750000Y-68600000D01*
X158750000Y-68580000D01*
X158730000Y-68580000D01*
X158730000Y-68326000D01*
X158750000Y-68326000D01*
X158750000Y-66991750D01*
X158591250Y-66833000D01*
X158577000Y-66829928D01*
X158452518Y-66842188D01*
X158363463Y-66869203D01*
X158356003Y-66793460D01*
X158312546Y-66650199D01*
X158241974Y-66518170D01*
X158147001Y-66402445D01*
X158118003Y-66378647D01*
X156760358Y-65021003D01*
X156736555Y-64991999D01*
X156620830Y-64897026D01*
X156488801Y-64826454D01*
X156345540Y-64782997D01*
X156233887Y-64772000D01*
X156233876Y-64772000D01*
X156196554Y-64768324D01*
X156159232Y-64772000D01*
X148263879Y-64772000D01*
X148226554Y-64768324D01*
X148189229Y-64772000D01*
X148189221Y-64772000D01*
X148077568Y-64782997D01*
X147934307Y-64826454D01*
X147802278Y-64897026D01*
X147686553Y-64991999D01*
X147662755Y-65020997D01*
X147358449Y-65325303D01*
X147203475Y-65093368D01*
X147071620Y-64961513D01*
X147144180Y-64939502D01*
X147254494Y-64880537D01*
X147351185Y-64801185D01*
X147430537Y-64704494D01*
X147489502Y-64594180D01*
X147525812Y-64474482D01*
X147538072Y-64350000D01*
X147538072Y-62650000D01*
X167421928Y-62650000D01*
X167425000Y-63214250D01*
X167583750Y-63373000D01*
X168783000Y-63373000D01*
X168783000Y-62173750D01*
X169037000Y-62173750D01*
X169037000Y-63373000D01*
X170236250Y-63373000D01*
X170395000Y-63214250D01*
X170398072Y-62650000D01*
X170385812Y-62525518D01*
X170349502Y-62405820D01*
X170290537Y-62295506D01*
X170211185Y-62198815D01*
X170114494Y-62119463D01*
X170004180Y-62060498D01*
X169933865Y-62039168D01*
X172160000Y-62039168D01*
X172160000Y-62674832D01*
X172284012Y-63298281D01*
X172527270Y-63885558D01*
X172880425Y-64414093D01*
X173329907Y-64863575D01*
X173858442Y-65216730D01*
X174445719Y-65459988D01*
X175069168Y-65584000D01*
X175704832Y-65584000D01*
X176328281Y-65459988D01*
X176915558Y-65216730D01*
X177444093Y-64863575D01*
X177893575Y-64414093D01*
X178246730Y-63885558D01*
X178489988Y-63298281D01*
X178614000Y-62674832D01*
X178614000Y-62039168D01*
X178489988Y-61415719D01*
X178246730Y-60828442D01*
X177893575Y-60299907D01*
X177444093Y-59850425D01*
X176915558Y-59497270D01*
X176328281Y-59254012D01*
X175704832Y-59130000D01*
X175069168Y-59130000D01*
X174445719Y-59254012D01*
X173858442Y-59497270D01*
X173329907Y-59850425D01*
X172880425Y-60299907D01*
X172527270Y-60828442D01*
X172284012Y-61415719D01*
X172160000Y-62039168D01*
X169933865Y-62039168D01*
X169884482Y-62024188D01*
X169760000Y-62011928D01*
X169195750Y-62015000D01*
X169037000Y-62173750D01*
X168783000Y-62173750D01*
X168624250Y-62015000D01*
X168060000Y-62011928D01*
X167935518Y-62024188D01*
X167815820Y-62060498D01*
X167705506Y-62119463D01*
X167608815Y-62198815D01*
X167529463Y-62295506D01*
X167470498Y-62405820D01*
X167434188Y-62525518D01*
X167421928Y-62650000D01*
X147538072Y-62650000D01*
X147525812Y-62525518D01*
X147489502Y-62405820D01*
X147430537Y-62295506D01*
X147351185Y-62198815D01*
X147254494Y-62119463D01*
X147144180Y-62060498D01*
X147024482Y-62024188D01*
X146900000Y-62011928D01*
X145200000Y-62011928D01*
X145075518Y-62024188D01*
X144955820Y-62060498D01*
X144845506Y-62119463D01*
X144748815Y-62198815D01*
X144669463Y-62295506D01*
X144610498Y-62405820D01*
X144574188Y-62525518D01*
X144561928Y-62650000D01*
X144561928Y-64350000D01*
X144574188Y-64474482D01*
X144610498Y-64594180D01*
X144669463Y-64704494D01*
X144748815Y-64801185D01*
X144845506Y-64880537D01*
X144955820Y-64939502D01*
X145028380Y-64961513D01*
X144896525Y-65093368D01*
X144734010Y-65336589D01*
X144622068Y-65606842D01*
X144565000Y-65893740D01*
X144565000Y-66186260D01*
X144622068Y-66473158D01*
X144734010Y-66743411D01*
X144803215Y-66846983D01*
X142296199Y-69354000D01*
X133933043Y-69354000D01*
X133829637Y-69199241D01*
X133629759Y-68999363D01*
X133394727Y-68842320D01*
X133133574Y-68734147D01*
X133107699Y-68729000D01*
X133133574Y-68723853D01*
X133394727Y-68615680D01*
X133629759Y-68458637D01*
X133829637Y-68258759D01*
X133986680Y-68023727D01*
X134094853Y-67762574D01*
X134150000Y-67485335D01*
X134150000Y-67202665D01*
X134094853Y-66925426D01*
X133986680Y-66664273D01*
X133829637Y-66429241D01*
X133629759Y-66229363D01*
X133394727Y-66072320D01*
X133133574Y-65964147D01*
X132856335Y-65909000D01*
X132573665Y-65909000D01*
X132296426Y-65964147D01*
X132035273Y-66072320D01*
X131800241Y-66229363D01*
X131600363Y-66429241D01*
X131443320Y-66664273D01*
X131335147Y-66925426D01*
X131280000Y-67202665D01*
X131280000Y-67485335D01*
X131335147Y-67762574D01*
X131443320Y-68023727D01*
X131600363Y-68258759D01*
X131800241Y-68458637D01*
X132035273Y-68615680D01*
X132296426Y-68723853D01*
X132322301Y-68729000D01*
X132296426Y-68734147D01*
X132035273Y-68842320D01*
X131800241Y-68999363D01*
X131600363Y-69199241D01*
X131443320Y-69434273D01*
X131335147Y-69695426D01*
X131280000Y-69972665D01*
X131280000Y-70255335D01*
X131335147Y-70532574D01*
X131443320Y-70793727D01*
X131600363Y-71028759D01*
X131800241Y-71228637D01*
X132035273Y-71385680D01*
X132296426Y-71493853D01*
X132322301Y-71499000D01*
X132296426Y-71504147D01*
X132035273Y-71612320D01*
X131800241Y-71769363D01*
X131600363Y-71969241D01*
X131443320Y-72204273D01*
X131335147Y-72465426D01*
X131280000Y-72742665D01*
X131280000Y-73025335D01*
X131335147Y-73302574D01*
X131443320Y-73563727D01*
X131600363Y-73798759D01*
X131800241Y-73998637D01*
X132035273Y-74155680D01*
X132296426Y-74263853D01*
X132322301Y-74269000D01*
X132296426Y-74274147D01*
X132035273Y-74382320D01*
X131800241Y-74539363D01*
X131600363Y-74739241D01*
X131527176Y-74848773D01*
X131516200Y-74835398D01*
X131492402Y-74806400D01*
X131463404Y-74782602D01*
X131273688Y-74592886D01*
X131310000Y-74410335D01*
X131310000Y-74127665D01*
X131254853Y-73850426D01*
X131146680Y-73589273D01*
X130989637Y-73354241D01*
X130789759Y-73154363D01*
X130554727Y-72997320D01*
X130293574Y-72889147D01*
X130265118Y-72883487D01*
X130491292Y-72802603D01*
X130616514Y-72735671D01*
X130688097Y-72491702D01*
X129875000Y-71678605D01*
X129860858Y-71692748D01*
X129681253Y-71513143D01*
X129695395Y-71499000D01*
X130054605Y-71499000D01*
X130867702Y-72312097D01*
X131111671Y-72240514D01*
X131232571Y-71985004D01*
X131301300Y-71710816D01*
X131315217Y-71428488D01*
X131273787Y-71148870D01*
X131178603Y-70882708D01*
X131111671Y-70757486D01*
X130867702Y-70685903D01*
X130054605Y-71499000D01*
X129695395Y-71499000D01*
X129681253Y-71484858D01*
X129860858Y-71305253D01*
X129875000Y-71319395D01*
X130688097Y-70506298D01*
X130616514Y-70262329D01*
X130361004Y-70141429D01*
X130258711Y-70115788D01*
X130293574Y-70108853D01*
X130554727Y-70000680D01*
X130789759Y-69843637D01*
X130989637Y-69643759D01*
X131146680Y-69408727D01*
X131254853Y-69147574D01*
X131310000Y-68870335D01*
X131310000Y-68587665D01*
X131254853Y-68310426D01*
X131146680Y-68049273D01*
X130989637Y-67814241D01*
X130789759Y-67614363D01*
X130554727Y-67457320D01*
X130293574Y-67349147D01*
X130016335Y-67294000D01*
X129733665Y-67294000D01*
X129456426Y-67349147D01*
X129195273Y-67457320D01*
X128960241Y-67614363D01*
X128760363Y-67814241D01*
X128603320Y-68049273D01*
X128495147Y-68310426D01*
X128440000Y-68587665D01*
X128440000Y-68870335D01*
X128476312Y-69052886D01*
X128012998Y-69516201D01*
X127984000Y-69539999D01*
X127960202Y-69568997D01*
X127960201Y-69568998D01*
X127889026Y-69655724D01*
X127818454Y-69787754D01*
X127788180Y-69887558D01*
X127774998Y-69931014D01*
X127771302Y-69968537D01*
X127760324Y-70080000D01*
X127764001Y-70117332D01*
X127764000Y-80226678D01*
X127760324Y-80264000D01*
X127764000Y-80301322D01*
X127764000Y-80301332D01*
X127774997Y-80412985D01*
X127814258Y-80542413D01*
X127818454Y-80556246D01*
X127889026Y-80688276D01*
X127922221Y-80728724D01*
X127983999Y-80804001D01*
X128013002Y-80827803D01*
X128804901Y-81619703D01*
X128760363Y-81664241D01*
X128603320Y-81899273D01*
X128495147Y-82160426D01*
X128440000Y-82437665D01*
X128440000Y-82720335D01*
X128495147Y-82997574D01*
X128603320Y-83258727D01*
X128760363Y-83493759D01*
X128960241Y-83693637D01*
X129195273Y-83850680D01*
X129456426Y-83958853D01*
X129482301Y-83964000D01*
X129456426Y-83969147D01*
X129195273Y-84077320D01*
X128960241Y-84234363D01*
X128760363Y-84434241D01*
X128603320Y-84669273D01*
X128495147Y-84930426D01*
X128440000Y-85207665D01*
X128440000Y-85490335D01*
X128495147Y-85767574D01*
X128603320Y-86028727D01*
X128760363Y-86263759D01*
X128960241Y-86463637D01*
X129195273Y-86620680D01*
X129456426Y-86728853D01*
X129482301Y-86734000D01*
X129456426Y-86739147D01*
X129195273Y-86847320D01*
X128960241Y-87004363D01*
X128760363Y-87204241D01*
X128603320Y-87439273D01*
X128495147Y-87700426D01*
X128440000Y-87977665D01*
X128440000Y-88260335D01*
X128495147Y-88537574D01*
X128556046Y-88684598D01*
X128513410Y-88719588D01*
X128489612Y-88748586D01*
X127632002Y-89606197D01*
X127602999Y-89629999D01*
X127547871Y-89697174D01*
X127508026Y-89745724D01*
X127464451Y-89827246D01*
X127437454Y-89877754D01*
X127393997Y-90021015D01*
X127383000Y-90132668D01*
X127383000Y-90132678D01*
X127379324Y-90170000D01*
X127383000Y-90207323D01*
X127383001Y-94387168D01*
X127379324Y-94424500D01*
X127383001Y-94461833D01*
X127393825Y-94571724D01*
X127393998Y-94573485D01*
X127437454Y-94716746D01*
X127508026Y-94848776D01*
X127579201Y-94935502D01*
X127603000Y-94964501D01*
X127631998Y-94988299D01*
X128541710Y-95898012D01*
X128495147Y-96010426D01*
X128440000Y-96287665D01*
X128440000Y-96570335D01*
X128495147Y-96847574D01*
X128603320Y-97108727D01*
X128760363Y-97343759D01*
X128960241Y-97543637D01*
X129195273Y-97700680D01*
X129456426Y-97808853D01*
X129482301Y-97814000D01*
X129456426Y-97819147D01*
X129195273Y-97927320D01*
X128960241Y-98084363D01*
X128760363Y-98284241D01*
X128603320Y-98519273D01*
X128495147Y-98780426D01*
X128440000Y-99057665D01*
X128440000Y-99340335D01*
X128495147Y-99617574D01*
X128603320Y-99878727D01*
X128760363Y-100113759D01*
X128960241Y-100313637D01*
X129195273Y-100470680D01*
X129456426Y-100578853D01*
X129733665Y-100634000D01*
X130016335Y-100634000D01*
X130293574Y-100578853D01*
X130554727Y-100470680D01*
X130789759Y-100313637D01*
X130989637Y-100113759D01*
X131146680Y-99878727D01*
X131254853Y-99617574D01*
X131310000Y-99340335D01*
X131310000Y-99057665D01*
X131273688Y-98875114D01*
X131528137Y-98620665D01*
X131600363Y-98728759D01*
X131800241Y-98928637D01*
X132035273Y-99085680D01*
X132180725Y-99145928D01*
X131915000Y-99145928D01*
X131790518Y-99158188D01*
X131670820Y-99194498D01*
X131560506Y-99253463D01*
X131463815Y-99332815D01*
X131384463Y-99429506D01*
X131325498Y-99539820D01*
X131289188Y-99659518D01*
X131276928Y-99784000D01*
X131276928Y-101384000D01*
X131289188Y-101508482D01*
X131325498Y-101628180D01*
X131384463Y-101738494D01*
X131463815Y-101835185D01*
X131560506Y-101914537D01*
X131670820Y-101973502D01*
X131790518Y-102009812D01*
X131915000Y-102022072D01*
X133515000Y-102022072D01*
X133639482Y-102009812D01*
X133759180Y-101973502D01*
X133869494Y-101914537D01*
X133966185Y-101835185D01*
X134045537Y-101738494D01*
X134052750Y-101725000D01*
X143195199Y-101725000D01*
X144803215Y-103333017D01*
X144734010Y-103436589D01*
X144622068Y-103706842D01*
X144565000Y-103993740D01*
X144565000Y-104286260D01*
X144622068Y-104573158D01*
X144734010Y-104843411D01*
X144896525Y-105086632D01*
X145103368Y-105293475D01*
X145277760Y-105410000D01*
X145103368Y-105526525D01*
X144896525Y-105733368D01*
X144734010Y-105976589D01*
X144622068Y-106246842D01*
X144565000Y-106533740D01*
X144565000Y-106826260D01*
X144622068Y-107113158D01*
X144734010Y-107383411D01*
X144896525Y-107626632D01*
X145103368Y-107833475D01*
X145277760Y-107950000D01*
X145103368Y-108066525D01*
X144896525Y-108273368D01*
X144734010Y-108516589D01*
X144622068Y-108786842D01*
X144565000Y-109073740D01*
X144565000Y-109366260D01*
X144622068Y-109653158D01*
X144734010Y-109923411D01*
X144756453Y-109957000D01*
X132311241Y-109957000D01*
X132329526Y-109951279D01*
X132746772Y-109728258D01*
X132962894Y-109361499D01*
X131295000Y-107693605D01*
X129627106Y-109361499D01*
X129843228Y-109728258D01*
X130280295Y-109957000D01*
X122834000Y-109957000D01*
X122834000Y-107537071D01*
X128647352Y-107537071D01*
X128702727Y-108053159D01*
X128857721Y-108548526D01*
X129080742Y-108965772D01*
X129447501Y-109181894D01*
X131115395Y-107514000D01*
X131474605Y-107514000D01*
X133142499Y-109181894D01*
X133509258Y-108965772D01*
X133749938Y-108505895D01*
X133896275Y-108007902D01*
X133942648Y-107490929D01*
X133887273Y-106974841D01*
X133732279Y-106479474D01*
X133509258Y-106062228D01*
X133142499Y-105846106D01*
X131474605Y-107514000D01*
X131115395Y-107514000D01*
X129447501Y-105846106D01*
X129080742Y-106062228D01*
X128840062Y-106522105D01*
X128693725Y-107020098D01*
X128647352Y-107537071D01*
X122834000Y-107537071D01*
X122834000Y-105666501D01*
X129627106Y-105666501D01*
X131295000Y-107334395D01*
X132962894Y-105666501D01*
X132746772Y-105299742D01*
X132592817Y-105219168D01*
X136473000Y-105219168D01*
X136473000Y-105854832D01*
X136597012Y-106478281D01*
X136840270Y-107065558D01*
X137193425Y-107594093D01*
X137642907Y-108043575D01*
X138171442Y-108396730D01*
X138758719Y-108639988D01*
X139382168Y-108764000D01*
X140017832Y-108764000D01*
X140641281Y-108639988D01*
X141228558Y-108396730D01*
X141757093Y-108043575D01*
X142206575Y-107594093D01*
X142559730Y-107065558D01*
X142802988Y-106478281D01*
X142927000Y-105854832D01*
X142927000Y-105219168D01*
X142802988Y-104595719D01*
X142559730Y-104008442D01*
X142206575Y-103479907D01*
X141757093Y-103030425D01*
X141228558Y-102677270D01*
X140641281Y-102434012D01*
X140017832Y-102310000D01*
X139382168Y-102310000D01*
X138758719Y-102434012D01*
X138171442Y-102677270D01*
X137642907Y-103030425D01*
X137193425Y-103479907D01*
X136840270Y-104008442D01*
X136597012Y-104595719D01*
X136473000Y-105219168D01*
X132592817Y-105219168D01*
X132286895Y-105059062D01*
X131788902Y-104912725D01*
X131271929Y-104866352D01*
X130755841Y-104921727D01*
X130260474Y-105076721D01*
X129843228Y-105299742D01*
X129627106Y-105666501D01*
X122834000Y-105666501D01*
X122834000Y-62261499D01*
X129627106Y-62261499D01*
X129843228Y-62628258D01*
X130303105Y-62868938D01*
X130801098Y-63015275D01*
X131318071Y-63061648D01*
X131834159Y-63006273D01*
X132329526Y-62851279D01*
X132746772Y-62628258D01*
X132962894Y-62261499D01*
X131295000Y-60593605D01*
X129627106Y-62261499D01*
X122834000Y-62261499D01*
X122834000Y-60437071D01*
X128647352Y-60437071D01*
X128702727Y-60953159D01*
X128857721Y-61448526D01*
X129080742Y-61865772D01*
X129447501Y-62081894D01*
X131115395Y-60414000D01*
X131474605Y-60414000D01*
X133142499Y-62081894D01*
X133215005Y-62039168D01*
X136346000Y-62039168D01*
X136346000Y-62674832D01*
X136470012Y-63298281D01*
X136713270Y-63885558D01*
X137066425Y-64414093D01*
X137515907Y-64863575D01*
X138044442Y-65216730D01*
X138631719Y-65459988D01*
X139255168Y-65584000D01*
X139890832Y-65584000D01*
X140514281Y-65459988D01*
X141101558Y-65216730D01*
X141630093Y-64863575D01*
X142079575Y-64414093D01*
X142432730Y-63885558D01*
X142675988Y-63298281D01*
X142800000Y-62674832D01*
X142800000Y-62039168D01*
X142675988Y-61415719D01*
X142432730Y-60828442D01*
X142079575Y-60299907D01*
X141630093Y-59850425D01*
X141101558Y-59497270D01*
X140514281Y-59254012D01*
X139890832Y-59130000D01*
X139255168Y-59130000D01*
X138631719Y-59254012D01*
X138044442Y-59497270D01*
X137515907Y-59850425D01*
X137066425Y-60299907D01*
X136713270Y-60828442D01*
X136470012Y-61415719D01*
X136346000Y-62039168D01*
X133215005Y-62039168D01*
X133509258Y-61865772D01*
X133749938Y-61405895D01*
X133896275Y-60907902D01*
X133942648Y-60390929D01*
X133887273Y-59874841D01*
X133732279Y-59379474D01*
X133509258Y-58962228D01*
X133142499Y-58746106D01*
X131474605Y-60414000D01*
X131115395Y-60414000D01*
X129447501Y-58746106D01*
X129080742Y-58962228D01*
X128840062Y-59422105D01*
X128693725Y-59920098D01*
X128647352Y-60437071D01*
X122834000Y-60437071D01*
X122834000Y-57937000D01*
X130387424Y-57937000D01*
X130260474Y-57976721D01*
%TA.AperFunction,Conductor*%
D19*
G36*
X130260474Y-57976721D02*
G01*
X129843228Y-58199742D01*
X129627106Y-58566501D01*
X131295000Y-60234395D01*
X132962894Y-58566501D01*
X132746772Y-58199742D01*
X132286895Y-57959062D01*
X132211817Y-57937000D01*
X179807000Y-57937000D01*
X179807001Y-109957000D01*
X170203547Y-109957000D01*
X170225990Y-109923411D01*
X170337932Y-109653158D01*
X170395000Y-109366260D01*
X170395000Y-109073740D01*
X170337932Y-108786842D01*
X170225990Y-108516589D01*
X170063475Y-108273368D01*
X169856632Y-108066525D01*
X169682240Y-107950000D01*
X169856632Y-107833475D01*
X170063475Y-107626632D01*
X170225990Y-107383411D01*
X170337932Y-107113158D01*
X170395000Y-106826260D01*
X170395000Y-106533740D01*
X170337932Y-106246842D01*
X170225990Y-105976589D01*
X170063475Y-105733368D01*
X169856632Y-105526525D01*
X169682240Y-105410000D01*
X169856632Y-105293475D01*
X169930939Y-105219168D01*
X172160000Y-105219168D01*
X172160000Y-105854832D01*
X172284012Y-106478281D01*
X172527270Y-107065558D01*
X172880425Y-107594093D01*
X173329907Y-108043575D01*
X173858442Y-108396730D01*
X174445719Y-108639988D01*
X175069168Y-108764000D01*
X175704832Y-108764000D01*
X176328281Y-108639988D01*
X176915558Y-108396730D01*
X177444093Y-108043575D01*
X177893575Y-107594093D01*
X178246730Y-107065558D01*
X178489988Y-106478281D01*
X178614000Y-105854832D01*
X178614000Y-105219168D01*
X178489988Y-104595719D01*
X178246730Y-104008442D01*
X177893575Y-103479907D01*
X177444093Y-103030425D01*
X176915558Y-102677270D01*
X176328281Y-102434012D01*
X175704832Y-102310000D01*
X175069168Y-102310000D01*
X174445719Y-102434012D01*
X173858442Y-102677270D01*
X173329907Y-103030425D01*
X172880425Y-103479907D01*
X172527270Y-104008442D01*
X172284012Y-104595719D01*
X172160000Y-105219168D01*
X169930939Y-105219168D01*
X170063475Y-105086632D01*
X170225990Y-104843411D01*
X170337932Y-104573158D01*
X170395000Y-104286260D01*
X170395000Y-103993740D01*
X170337932Y-103706842D01*
X170225990Y-103436589D01*
X170063475Y-103193368D01*
X169856632Y-102986525D01*
X169682240Y-102870000D01*
X169856632Y-102753475D01*
X170063475Y-102546632D01*
X170225990Y-102303411D01*
X170337932Y-102033158D01*
X170395000Y-101746260D01*
X170395000Y-101453740D01*
X170337932Y-101166842D01*
X170225990Y-100896589D01*
X170063475Y-100653368D01*
X169856632Y-100446525D01*
X169682240Y-100330000D01*
X169856632Y-100213475D01*
X170063475Y-100006632D01*
X170225990Y-99763411D01*
X170337932Y-99493158D01*
X170395000Y-99206260D01*
X170395000Y-98913740D01*
X170337932Y-98626842D01*
X170225990Y-98356589D01*
X170063475Y-98113368D01*
X169856632Y-97906525D01*
X169682240Y-97790000D01*
X169856632Y-97673475D01*
X170063475Y-97466632D01*
X170225990Y-97223411D01*
X170337932Y-96953158D01*
X170395000Y-96666260D01*
X170395000Y-96373740D01*
X170337932Y-96086842D01*
X170225990Y-95816589D01*
X170063475Y-95573368D01*
X169856632Y-95366525D01*
X169682240Y-95250000D01*
X169856632Y-95133475D01*
X170063475Y-94926632D01*
X170225990Y-94683411D01*
X170337932Y-94413158D01*
X170395000Y-94126260D01*
X170395000Y-93833740D01*
X170337932Y-93546842D01*
X170225990Y-93276589D01*
X170063475Y-93033368D01*
X169856632Y-92826525D01*
X169682240Y-92710000D01*
X169856632Y-92593475D01*
X170063475Y-92386632D01*
X170225990Y-92143411D01*
X170337932Y-91873158D01*
X170395000Y-91586260D01*
X170395000Y-91293740D01*
X170337932Y-91006842D01*
X170225990Y-90736589D01*
X170063475Y-90493368D01*
X169856632Y-90286525D01*
X169682240Y-90170000D01*
X169856632Y-90053475D01*
X170063475Y-89846632D01*
X170225990Y-89603411D01*
X170337932Y-89333158D01*
X170395000Y-89046260D01*
X170395000Y-88753740D01*
X170351209Y-88533592D01*
X174150000Y-84734802D01*
X174150000Y-84861502D01*
X174308748Y-84861502D01*
X174150000Y-85020250D01*
X174146928Y-85172000D01*
X174159188Y-85296482D01*
X174195498Y-85416180D01*
X174254463Y-85526494D01*
X174333815Y-85623185D01*
X174430506Y-85702537D01*
X174540820Y-85761502D01*
X174660518Y-85797812D01*
X174785000Y-85810072D01*
X174974250Y-85807000D01*
X175133000Y-85648250D01*
X175133000Y-84861500D01*
X175387000Y-84861500D01*
X175387000Y-85648250D01*
X175545750Y-85807000D01*
X175735000Y-85810072D01*
X175859482Y-85797812D01*
X175979180Y-85761502D01*
X176089494Y-85702537D01*
X176186185Y-85623185D01*
X176265537Y-85526494D01*
X176324502Y-85416180D01*
X176360812Y-85296482D01*
X176373072Y-85172000D01*
X176370000Y-85020250D01*
X176211250Y-84861500D01*
X175387000Y-84861500D01*
X175133000Y-84861500D01*
X175113000Y-84861500D01*
X175113000Y-84607500D01*
X175133000Y-84607500D01*
X175133000Y-84587500D01*
X175387000Y-84587500D01*
X175387000Y-84607500D01*
X176211250Y-84607500D01*
X176370000Y-84448750D01*
X176373072Y-84297000D01*
X176360812Y-84172518D01*
X176324502Y-84052820D01*
X176265537Y-83942506D01*
X176210900Y-83875930D01*
X176228671Y-83854275D01*
X176307850Y-83706142D01*
X176356608Y-83545408D01*
X176373072Y-83378250D01*
X176373072Y-82940750D01*
X176356608Y-82773592D01*
X176307850Y-82612858D01*
X176228671Y-82464725D01*
X176122115Y-82334885D01*
X176119817Y-82332999D01*
X176127606Y-82326606D01*
X176231831Y-82199608D01*
X176309278Y-82054716D01*
X176356969Y-81897500D01*
X176373072Y-81734000D01*
X176373072Y-81334000D01*
X176356969Y-81170500D01*
X176309278Y-81013284D01*
X176231831Y-80868392D01*
X176127606Y-80741394D01*
X176088134Y-80709000D01*
X176127606Y-80676606D01*
X176231831Y-80549608D01*
X176309278Y-80404716D01*
X176356969Y-80247500D01*
X176373072Y-80084000D01*
X176373072Y-79684000D01*
X176356969Y-79520500D01*
X176309278Y-79363284D01*
X176231831Y-79218392D01*
X176145000Y-79112589D01*
X176145000Y-78770454D01*
X176177205Y-78722256D01*
X176255226Y-78533898D01*
X176295000Y-78333939D01*
X176295000Y-78130061D01*
X176255226Y-77930102D01*
X176177205Y-77741744D01*
X176063937Y-77572226D01*
X175919774Y-77428063D01*
X175750256Y-77314795D01*
X175561898Y-77236774D01*
X175361939Y-77197000D01*
X175158061Y-77197000D01*
X174958102Y-77236774D01*
X174769744Y-77314795D01*
X174600226Y-77428063D01*
X174456063Y-77572226D01*
X174342795Y-77741744D01*
X174264774Y-77930102D01*
X174225000Y-78130061D01*
X174225000Y-78333939D01*
X174264774Y-78533898D01*
X174342795Y-78722256D01*
X174375001Y-78770455D01*
X174375000Y-79112588D01*
X174288169Y-79218392D01*
X174210722Y-79363284D01*
X174163031Y-79520500D01*
X174146928Y-79684000D01*
X174146928Y-80084000D01*
X174163031Y-80247500D01*
X174210722Y-80404716D01*
X174288169Y-80549608D01*
X174392394Y-80676606D01*
X174431866Y-80709000D01*
X174392394Y-80741394D01*
X174288169Y-80868392D01*
X174210722Y-81013284D01*
X174163031Y-81170500D01*
X174146928Y-81334000D01*
X174146928Y-81734000D01*
X174163031Y-81897500D01*
X174210722Y-82054716D01*
X174288169Y-82199608D01*
X174392394Y-82326606D01*
X174400183Y-82332999D01*
X174397885Y-82334885D01*
X174291329Y-82464725D01*
X174272621Y-82499726D01*
X174226223Y-82524526D01*
X174148581Y-82588246D01*
X174110499Y-82619499D01*
X174086701Y-82648497D01*
X170395000Y-86340199D01*
X170395000Y-86213740D01*
X170337932Y-85926842D01*
X170225990Y-85656589D01*
X170063475Y-85413368D01*
X169856632Y-85206525D01*
X169682240Y-85090000D01*
X169856632Y-84973475D01*
X170063475Y-84766632D01*
X170225990Y-84523411D01*
X170337932Y-84253158D01*
X170395000Y-83966260D01*
X170395000Y-83673740D01*
X170337932Y-83386842D01*
X170225990Y-83116589D01*
X170063475Y-82873368D01*
X169856632Y-82666525D01*
X169682240Y-82550000D01*
X169856632Y-82433475D01*
X170063475Y-82226632D01*
X170225990Y-81983411D01*
X170337932Y-81713158D01*
X170395000Y-81426260D01*
X170395000Y-81133740D01*
X170337932Y-80846842D01*
X170225990Y-80576589D01*
X170063475Y-80333368D01*
X169856632Y-80126525D01*
X169674466Y-80004805D01*
X169791355Y-79935178D01*
X170007588Y-79740269D01*
X170181641Y-79506920D01*
X170306825Y-79244099D01*
X170351476Y-79096890D01*
X170230155Y-78867000D01*
X169037000Y-78867000D01*
X169037000Y-78887000D01*
X168783000Y-78887000D01*
X168783000Y-78867000D01*
X168763000Y-78867000D01*
X168763000Y-78613000D01*
X168783000Y-78613000D01*
X168783000Y-78593000D01*
X169037000Y-78593000D01*
X169037000Y-78613000D01*
X170230155Y-78613000D01*
X170351476Y-78383110D01*
X170306825Y-78235901D01*
X170181641Y-77973080D01*
X170007588Y-77739731D01*
X169791355Y-77544822D01*
X169674466Y-77475195D01*
X169856632Y-77353475D01*
X170063475Y-77146632D01*
X170225990Y-76903411D01*
X170337932Y-76633158D01*
X170395000Y-76346260D01*
X170395000Y-76053740D01*
X170337932Y-75766842D01*
X170225990Y-75496589D01*
X170063475Y-75253368D01*
X169856632Y-75046525D01*
X169682240Y-74930000D01*
X169856632Y-74813475D01*
X170063475Y-74606632D01*
X170225990Y-74363411D01*
X170337932Y-74093158D01*
X170395000Y-73806260D01*
X170395000Y-73513740D01*
X170337932Y-73226842D01*
X170225990Y-72956589D01*
X170063475Y-72713368D01*
X169856632Y-72506525D01*
X169682240Y-72390000D01*
X169856632Y-72273475D01*
X170063475Y-72066632D01*
X170225990Y-71823411D01*
X170337932Y-71553158D01*
X170395000Y-71266260D01*
X170395000Y-70973740D01*
X170337932Y-70686842D01*
X170225990Y-70416589D01*
X170063475Y-70173368D01*
X169856632Y-69966525D01*
X169682240Y-69850000D01*
X169856632Y-69733475D01*
X170063475Y-69526632D01*
X170225990Y-69283411D01*
X170337932Y-69013158D01*
X170395000Y-68726260D01*
X170395000Y-68433740D01*
X170337932Y-68146842D01*
X170225990Y-67876589D01*
X170063475Y-67633368D01*
X169856632Y-67426525D01*
X169682240Y-67310000D01*
X169856632Y-67193475D01*
X170063475Y-66986632D01*
X170225990Y-66743411D01*
X170337932Y-66473158D01*
X170395000Y-66186260D01*
X170395000Y-65893740D01*
X170337932Y-65606842D01*
X170225990Y-65336589D01*
X170063475Y-65093368D01*
X169931620Y-64961513D01*
X170004180Y-64939502D01*
X170114494Y-64880537D01*
X170211185Y-64801185D01*
X170290537Y-64704494D01*
X170349502Y-64594180D01*
X170385812Y-64474482D01*
X170398072Y-64350000D01*
X170395000Y-63785750D01*
X170236250Y-63627000D01*
X169037000Y-63627000D01*
X169037000Y-63647000D01*
X168783000Y-63647000D01*
X168783000Y-63627000D01*
X167583750Y-63627000D01*
X167425000Y-63785750D01*
X167421928Y-64350000D01*
X167434188Y-64474482D01*
X167470498Y-64594180D01*
X167529463Y-64704494D01*
X167608815Y-64801185D01*
X167705506Y-64880537D01*
X167815820Y-64939502D01*
X167888380Y-64961513D01*
X167756525Y-65093368D01*
X167594010Y-65336589D01*
X167482068Y-65606842D01*
X167425000Y-65893740D01*
X167425000Y-66185158D01*
X167407986Y-66179997D01*
X167296333Y-66169000D01*
X167296322Y-66169000D01*
X167259000Y-66165324D01*
X167221678Y-66169000D01*
X160723322Y-66169000D01*
X160685999Y-66165324D01*
X160648676Y-66169000D01*
X160648667Y-66169000D01*
X160537014Y-66179997D01*
X160393753Y-66223454D01*
X160261723Y-66294026D01*
X160178083Y-66362668D01*
X160145999Y-66388999D01*
X160122200Y-66417998D01*
X159650797Y-66889401D01*
X159543085Y-66946975D01*
X159531494Y-66937463D01*
X159421180Y-66878498D01*
X159301482Y-66842188D01*
X159177000Y-66829928D01*
X159162750Y-66833000D01*
X159004000Y-66991750D01*
X159004000Y-68326000D01*
X159024000Y-68326000D01*
X159024000Y-68580000D01*
X159004000Y-68580000D01*
X159004000Y-68600000D01*
X158750000Y-68600000D01*
X158750000Y-68580000D01*
X158730000Y-68580000D01*
X158730000Y-68326000D01*
X158750000Y-68326000D01*
X158750000Y-66991750D01*
X158591250Y-66833000D01*
X158577000Y-66829928D01*
X158452518Y-66842188D01*
X158363463Y-66869203D01*
X158356003Y-66793460D01*
X158312546Y-66650199D01*
X158241974Y-66518170D01*
X158147001Y-66402445D01*
X158118003Y-66378647D01*
X156760358Y-65021003D01*
X156736555Y-64991999D01*
X156620830Y-64897026D01*
X156488801Y-64826454D01*
X156345540Y-64782997D01*
X156233887Y-64772000D01*
X156233876Y-64772000D01*
X156196554Y-64768324D01*
X156159232Y-64772000D01*
X148263879Y-64772000D01*
X148226554Y-64768324D01*
X148189229Y-64772000D01*
X148189221Y-64772000D01*
X148077568Y-64782997D01*
X147934307Y-64826454D01*
X147802278Y-64897026D01*
X147686553Y-64991999D01*
X147662755Y-65020997D01*
X147358449Y-65325303D01*
X147203475Y-65093368D01*
X147071620Y-64961513D01*
X147144180Y-64939502D01*
X147254494Y-64880537D01*
X147351185Y-64801185D01*
X147430537Y-64704494D01*
X147489502Y-64594180D01*
X147525812Y-64474482D01*
X147538072Y-64350000D01*
X147538072Y-62650000D01*
X167421928Y-62650000D01*
X167425000Y-63214250D01*
X167583750Y-63373000D01*
X168783000Y-63373000D01*
X168783000Y-62173750D01*
X169037000Y-62173750D01*
X169037000Y-63373000D01*
X170236250Y-63373000D01*
X170395000Y-63214250D01*
X170398072Y-62650000D01*
X170385812Y-62525518D01*
X170349502Y-62405820D01*
X170290537Y-62295506D01*
X170211185Y-62198815D01*
X170114494Y-62119463D01*
X170004180Y-62060498D01*
X169933865Y-62039168D01*
X172160000Y-62039168D01*
X172160000Y-62674832D01*
X172284012Y-63298281D01*
X172527270Y-63885558D01*
X172880425Y-64414093D01*
X173329907Y-64863575D01*
X173858442Y-65216730D01*
X174445719Y-65459988D01*
X175069168Y-65584000D01*
X175704832Y-65584000D01*
X176328281Y-65459988D01*
X176915558Y-65216730D01*
X177444093Y-64863575D01*
X177893575Y-64414093D01*
X178246730Y-63885558D01*
X178489988Y-63298281D01*
X178614000Y-62674832D01*
X178614000Y-62039168D01*
X178489988Y-61415719D01*
X178246730Y-60828442D01*
X177893575Y-60299907D01*
X177444093Y-59850425D01*
X176915558Y-59497270D01*
X176328281Y-59254012D01*
X175704832Y-59130000D01*
X175069168Y-59130000D01*
X174445719Y-59254012D01*
X173858442Y-59497270D01*
X173329907Y-59850425D01*
X172880425Y-60299907D01*
X172527270Y-60828442D01*
X172284012Y-61415719D01*
X172160000Y-62039168D01*
X169933865Y-62039168D01*
X169884482Y-62024188D01*
X169760000Y-62011928D01*
X169195750Y-62015000D01*
X169037000Y-62173750D01*
X168783000Y-62173750D01*
X168624250Y-62015000D01*
X168060000Y-62011928D01*
X167935518Y-62024188D01*
X167815820Y-62060498D01*
X167705506Y-62119463D01*
X167608815Y-62198815D01*
X167529463Y-62295506D01*
X167470498Y-62405820D01*
X167434188Y-62525518D01*
X167421928Y-62650000D01*
X147538072Y-62650000D01*
X147525812Y-62525518D01*
X147489502Y-62405820D01*
X147430537Y-62295506D01*
X147351185Y-62198815D01*
X147254494Y-62119463D01*
X147144180Y-62060498D01*
X147024482Y-62024188D01*
X146900000Y-62011928D01*
X145200000Y-62011928D01*
X145075518Y-62024188D01*
X144955820Y-62060498D01*
X144845506Y-62119463D01*
X144748815Y-62198815D01*
X144669463Y-62295506D01*
X144610498Y-62405820D01*
X144574188Y-62525518D01*
X144561928Y-62650000D01*
X144561928Y-64350000D01*
X144574188Y-64474482D01*
X144610498Y-64594180D01*
X144669463Y-64704494D01*
X144748815Y-64801185D01*
X144845506Y-64880537D01*
X144955820Y-64939502D01*
X145028380Y-64961513D01*
X144896525Y-65093368D01*
X144734010Y-65336589D01*
X144622068Y-65606842D01*
X144565000Y-65893740D01*
X144565000Y-66186260D01*
X144622068Y-66473158D01*
X144734010Y-66743411D01*
X144803215Y-66846983D01*
X142296199Y-69354000D01*
X133933043Y-69354000D01*
X133829637Y-69199241D01*
X133629759Y-68999363D01*
X133394727Y-68842320D01*
X133133574Y-68734147D01*
X133107699Y-68729000D01*
X133133574Y-68723853D01*
X133394727Y-68615680D01*
X133629759Y-68458637D01*
X133829637Y-68258759D01*
X133986680Y-68023727D01*
X134094853Y-67762574D01*
X134150000Y-67485335D01*
X134150000Y-67202665D01*
X134094853Y-66925426D01*
X133986680Y-66664273D01*
X133829637Y-66429241D01*
X133629759Y-66229363D01*
X133394727Y-66072320D01*
X133133574Y-65964147D01*
X132856335Y-65909000D01*
X132573665Y-65909000D01*
X132296426Y-65964147D01*
X132035273Y-66072320D01*
X131800241Y-66229363D01*
X131600363Y-66429241D01*
X131443320Y-66664273D01*
X131335147Y-66925426D01*
X131280000Y-67202665D01*
X131280000Y-67485335D01*
X131335147Y-67762574D01*
X131443320Y-68023727D01*
X131600363Y-68258759D01*
X131800241Y-68458637D01*
X132035273Y-68615680D01*
X132296426Y-68723853D01*
X132322301Y-68729000D01*
X132296426Y-68734147D01*
X132035273Y-68842320D01*
X131800241Y-68999363D01*
X131600363Y-69199241D01*
X131443320Y-69434273D01*
X131335147Y-69695426D01*
X131280000Y-69972665D01*
X131280000Y-70255335D01*
X131335147Y-70532574D01*
X131443320Y-70793727D01*
X131600363Y-71028759D01*
X131800241Y-71228637D01*
X132035273Y-71385680D01*
X132296426Y-71493853D01*
X132322301Y-71499000D01*
X132296426Y-71504147D01*
X132035273Y-71612320D01*
X131800241Y-71769363D01*
X131600363Y-71969241D01*
X131443320Y-72204273D01*
X131335147Y-72465426D01*
X131280000Y-72742665D01*
X131280000Y-73025335D01*
X131335147Y-73302574D01*
X131443320Y-73563727D01*
X131600363Y-73798759D01*
X131800241Y-73998637D01*
X132035273Y-74155680D01*
X132296426Y-74263853D01*
X132322301Y-74269000D01*
X132296426Y-74274147D01*
X132035273Y-74382320D01*
X131800241Y-74539363D01*
X131600363Y-74739241D01*
X131527176Y-74848773D01*
X131516200Y-74835398D01*
X131492402Y-74806400D01*
X131463404Y-74782602D01*
X131273688Y-74592886D01*
X131310000Y-74410335D01*
X131310000Y-74127665D01*
X131254853Y-73850426D01*
X131146680Y-73589273D01*
X130989637Y-73354241D01*
X130789759Y-73154363D01*
X130554727Y-72997320D01*
X130293574Y-72889147D01*
X130265118Y-72883487D01*
X130491292Y-72802603D01*
X130616514Y-72735671D01*
X130688097Y-72491702D01*
X129875000Y-71678605D01*
X129860858Y-71692748D01*
X129681253Y-71513143D01*
X129695395Y-71499000D01*
X130054605Y-71499000D01*
X130867702Y-72312097D01*
X131111671Y-72240514D01*
X131232571Y-71985004D01*
X131301300Y-71710816D01*
X131315217Y-71428488D01*
X131273787Y-71148870D01*
X131178603Y-70882708D01*
X131111671Y-70757486D01*
X130867702Y-70685903D01*
X130054605Y-71499000D01*
X129695395Y-71499000D01*
X129681253Y-71484858D01*
X129860858Y-71305253D01*
X129875000Y-71319395D01*
X130688097Y-70506298D01*
X130616514Y-70262329D01*
X130361004Y-70141429D01*
X130258711Y-70115788D01*
X130293574Y-70108853D01*
X130554727Y-70000680D01*
X130789759Y-69843637D01*
X130989637Y-69643759D01*
X131146680Y-69408727D01*
X131254853Y-69147574D01*
X131310000Y-68870335D01*
X131310000Y-68587665D01*
X131254853Y-68310426D01*
X131146680Y-68049273D01*
X130989637Y-67814241D01*
X130789759Y-67614363D01*
X130554727Y-67457320D01*
X130293574Y-67349147D01*
X130016335Y-67294000D01*
X129733665Y-67294000D01*
X129456426Y-67349147D01*
X129195273Y-67457320D01*
X128960241Y-67614363D01*
X128760363Y-67814241D01*
X128603320Y-68049273D01*
X128495147Y-68310426D01*
X128440000Y-68587665D01*
X128440000Y-68870335D01*
X128476312Y-69052886D01*
X128012998Y-69516201D01*
X127984000Y-69539999D01*
X127960202Y-69568997D01*
X127960201Y-69568998D01*
X127889026Y-69655724D01*
X127818454Y-69787754D01*
X127788180Y-69887558D01*
X127774998Y-69931014D01*
X127771302Y-69968537D01*
X127760324Y-70080000D01*
X127764001Y-70117332D01*
X127764000Y-80226678D01*
X127760324Y-80264000D01*
X127764000Y-80301322D01*
X127764000Y-80301332D01*
X127774997Y-80412985D01*
X127814258Y-80542413D01*
X127818454Y-80556246D01*
X127889026Y-80688276D01*
X127922221Y-80728724D01*
X127983999Y-80804001D01*
X128013002Y-80827803D01*
X128804901Y-81619703D01*
X128760363Y-81664241D01*
X128603320Y-81899273D01*
X128495147Y-82160426D01*
X128440000Y-82437665D01*
X128440000Y-82720335D01*
X128495147Y-82997574D01*
X128603320Y-83258727D01*
X128760363Y-83493759D01*
X128960241Y-83693637D01*
X129195273Y-83850680D01*
X129456426Y-83958853D01*
X129482301Y-83964000D01*
X129456426Y-83969147D01*
X129195273Y-84077320D01*
X128960241Y-84234363D01*
X128760363Y-84434241D01*
X128603320Y-84669273D01*
X128495147Y-84930426D01*
X128440000Y-85207665D01*
X128440000Y-85490335D01*
X128495147Y-85767574D01*
X128603320Y-86028727D01*
X128760363Y-86263759D01*
X128960241Y-86463637D01*
X129195273Y-86620680D01*
X129456426Y-86728853D01*
X129482301Y-86734000D01*
X129456426Y-86739147D01*
X129195273Y-86847320D01*
X128960241Y-87004363D01*
X128760363Y-87204241D01*
X128603320Y-87439273D01*
X128495147Y-87700426D01*
X128440000Y-87977665D01*
X128440000Y-88260335D01*
X128495147Y-88537574D01*
X128556046Y-88684598D01*
X128513410Y-88719588D01*
X128489612Y-88748586D01*
X127632002Y-89606197D01*
X127602999Y-89629999D01*
X127547871Y-89697174D01*
X127508026Y-89745724D01*
X127464451Y-89827246D01*
X127437454Y-89877754D01*
X127393997Y-90021015D01*
X127383000Y-90132668D01*
X127383000Y-90132678D01*
X127379324Y-90170000D01*
X127383000Y-90207323D01*
X127383001Y-94387168D01*
X127379324Y-94424500D01*
X127383001Y-94461833D01*
X127393825Y-94571724D01*
X127393998Y-94573485D01*
X127437454Y-94716746D01*
X127508026Y-94848776D01*
X127579201Y-94935502D01*
X127603000Y-94964501D01*
X127631998Y-94988299D01*
X128541710Y-95898012D01*
X128495147Y-96010426D01*
X128440000Y-96287665D01*
X128440000Y-96570335D01*
X128495147Y-96847574D01*
X128603320Y-97108727D01*
X128760363Y-97343759D01*
X128960241Y-97543637D01*
X129195273Y-97700680D01*
X129456426Y-97808853D01*
X129482301Y-97814000D01*
X129456426Y-97819147D01*
X129195273Y-97927320D01*
X128960241Y-98084363D01*
X128760363Y-98284241D01*
X128603320Y-98519273D01*
X128495147Y-98780426D01*
X128440000Y-99057665D01*
X128440000Y-99340335D01*
X128495147Y-99617574D01*
X128603320Y-99878727D01*
X128760363Y-100113759D01*
X128960241Y-100313637D01*
X129195273Y-100470680D01*
X129456426Y-100578853D01*
X129733665Y-100634000D01*
X130016335Y-100634000D01*
X130293574Y-100578853D01*
X130554727Y-100470680D01*
X130789759Y-100313637D01*
X130989637Y-100113759D01*
X131146680Y-99878727D01*
X131254853Y-99617574D01*
X131310000Y-99340335D01*
X131310000Y-99057665D01*
X131273688Y-98875114D01*
X131528137Y-98620665D01*
X131600363Y-98728759D01*
X131800241Y-98928637D01*
X132035273Y-99085680D01*
X132180725Y-99145928D01*
X131915000Y-99145928D01*
X131790518Y-99158188D01*
X131670820Y-99194498D01*
X131560506Y-99253463D01*
X131463815Y-99332815D01*
X131384463Y-99429506D01*
X131325498Y-99539820D01*
X131289188Y-99659518D01*
X131276928Y-99784000D01*
X131276928Y-101384000D01*
X131289188Y-101508482D01*
X131325498Y-101628180D01*
X131384463Y-101738494D01*
X131463815Y-101835185D01*
X131560506Y-101914537D01*
X131670820Y-101973502D01*
X131790518Y-102009812D01*
X131915000Y-102022072D01*
X133515000Y-102022072D01*
X133639482Y-102009812D01*
X133759180Y-101973502D01*
X133869494Y-101914537D01*
X133966185Y-101835185D01*
X134045537Y-101738494D01*
X134052750Y-101725000D01*
X143195199Y-101725000D01*
X144803215Y-103333017D01*
X144734010Y-103436589D01*
X144622068Y-103706842D01*
X144565000Y-103993740D01*
X144565000Y-104286260D01*
X144622068Y-104573158D01*
X144734010Y-104843411D01*
X144896525Y-105086632D01*
X145103368Y-105293475D01*
X145277760Y-105410000D01*
X145103368Y-105526525D01*
X144896525Y-105733368D01*
X144734010Y-105976589D01*
X144622068Y-106246842D01*
X144565000Y-106533740D01*
X144565000Y-106826260D01*
X144622068Y-107113158D01*
X144734010Y-107383411D01*
X144896525Y-107626632D01*
X145103368Y-107833475D01*
X145277760Y-107950000D01*
X145103368Y-108066525D01*
X144896525Y-108273368D01*
X144734010Y-108516589D01*
X144622068Y-108786842D01*
X144565000Y-109073740D01*
X144565000Y-109366260D01*
X144622068Y-109653158D01*
X144734010Y-109923411D01*
X144756453Y-109957000D01*
X132311241Y-109957000D01*
X132329526Y-109951279D01*
X132746772Y-109728258D01*
X132962894Y-109361499D01*
X131295000Y-107693605D01*
X129627106Y-109361499D01*
X129843228Y-109728258D01*
X130280295Y-109957000D01*
X122834000Y-109957000D01*
X122834000Y-107537071D01*
X128647352Y-107537071D01*
X128702727Y-108053159D01*
X128857721Y-108548526D01*
X129080742Y-108965772D01*
X129447501Y-109181894D01*
X131115395Y-107514000D01*
X131474605Y-107514000D01*
X133142499Y-109181894D01*
X133509258Y-108965772D01*
X133749938Y-108505895D01*
X133896275Y-108007902D01*
X133942648Y-107490929D01*
X133887273Y-106974841D01*
X133732279Y-106479474D01*
X133509258Y-106062228D01*
X133142499Y-105846106D01*
X131474605Y-107514000D01*
X131115395Y-107514000D01*
X129447501Y-105846106D01*
X129080742Y-106062228D01*
X128840062Y-106522105D01*
X128693725Y-107020098D01*
X128647352Y-107537071D01*
X122834000Y-107537071D01*
X122834000Y-105666501D01*
X129627106Y-105666501D01*
X131295000Y-107334395D01*
X132962894Y-105666501D01*
X132746772Y-105299742D01*
X132592817Y-105219168D01*
X136473000Y-105219168D01*
X136473000Y-105854832D01*
X136597012Y-106478281D01*
X136840270Y-107065558D01*
X137193425Y-107594093D01*
X137642907Y-108043575D01*
X138171442Y-108396730D01*
X138758719Y-108639988D01*
X139382168Y-108764000D01*
X140017832Y-108764000D01*
X140641281Y-108639988D01*
X141228558Y-108396730D01*
X141757093Y-108043575D01*
X142206575Y-107594093D01*
X142559730Y-107065558D01*
X142802988Y-106478281D01*
X142927000Y-105854832D01*
X142927000Y-105219168D01*
X142802988Y-104595719D01*
X142559730Y-104008442D01*
X142206575Y-103479907D01*
X141757093Y-103030425D01*
X141228558Y-102677270D01*
X140641281Y-102434012D01*
X140017832Y-102310000D01*
X139382168Y-102310000D01*
X138758719Y-102434012D01*
X138171442Y-102677270D01*
X137642907Y-103030425D01*
X137193425Y-103479907D01*
X136840270Y-104008442D01*
X136597012Y-104595719D01*
X136473000Y-105219168D01*
X132592817Y-105219168D01*
X132286895Y-105059062D01*
X131788902Y-104912725D01*
X131271929Y-104866352D01*
X130755841Y-104921727D01*
X130260474Y-105076721D01*
X129843228Y-105299742D01*
X129627106Y-105666501D01*
X122834000Y-105666501D01*
X122834000Y-62261499D01*
X129627106Y-62261499D01*
X129843228Y-62628258D01*
X130303105Y-62868938D01*
X130801098Y-63015275D01*
X131318071Y-63061648D01*
X131834159Y-63006273D01*
X132329526Y-62851279D01*
X132746772Y-62628258D01*
X132962894Y-62261499D01*
X131295000Y-60593605D01*
X129627106Y-62261499D01*
X122834000Y-62261499D01*
X122834000Y-60437071D01*
X128647352Y-60437071D01*
X128702727Y-60953159D01*
X128857721Y-61448526D01*
X129080742Y-61865772D01*
X129447501Y-62081894D01*
X131115395Y-60414000D01*
X131474605Y-60414000D01*
X133142499Y-62081894D01*
X133215005Y-62039168D01*
X136346000Y-62039168D01*
X136346000Y-62674832D01*
X136470012Y-63298281D01*
X136713270Y-63885558D01*
X137066425Y-64414093D01*
X137515907Y-64863575D01*
X138044442Y-65216730D01*
X138631719Y-65459988D01*
X139255168Y-65584000D01*
X139890832Y-65584000D01*
X140514281Y-65459988D01*
X141101558Y-65216730D01*
X141630093Y-64863575D01*
X142079575Y-64414093D01*
X142432730Y-63885558D01*
X142675988Y-63298281D01*
X142800000Y-62674832D01*
X142800000Y-62039168D01*
X142675988Y-61415719D01*
X142432730Y-60828442D01*
X142079575Y-60299907D01*
X141630093Y-59850425D01*
X141101558Y-59497270D01*
X140514281Y-59254012D01*
X139890832Y-59130000D01*
X139255168Y-59130000D01*
X138631719Y-59254012D01*
X138044442Y-59497270D01*
X137515907Y-59850425D01*
X137066425Y-60299907D01*
X136713270Y-60828442D01*
X136470012Y-61415719D01*
X136346000Y-62039168D01*
X133215005Y-62039168D01*
X133509258Y-61865772D01*
X133749938Y-61405895D01*
X133896275Y-60907902D01*
X133942648Y-60390929D01*
X133887273Y-59874841D01*
X133732279Y-59379474D01*
X133509258Y-58962228D01*
X133142499Y-58746106D01*
X131474605Y-60414000D01*
X131115395Y-60414000D01*
X129447501Y-58746106D01*
X129080742Y-58962228D01*
X128840062Y-59422105D01*
X128693725Y-59920098D01*
X128647352Y-60437071D01*
X122834000Y-60437071D01*
X122834000Y-57937000D01*
X130387424Y-57937000D01*
X130260474Y-57976721D01*
G37*
%TD.AperFunction*%
D18*
X167425000Y-94126260D02*
X167482068Y-94413158D01*
X167594010Y-94683411D01*
X167756525Y-94926632D01*
X167963368Y-95133475D01*
X168137760Y-95250000D01*
X167963368Y-95366525D01*
X167756525Y-95573368D01*
X167594010Y-95816589D01*
X167482068Y-96086842D01*
X167425000Y-96373740D01*
X167425000Y-96666260D01*
X167482068Y-96953158D01*
X167594010Y-97223411D01*
X167756525Y-97466632D01*
X167963368Y-97673475D01*
X168137760Y-97790000D01*
X167963368Y-97906525D01*
X167756525Y-98113368D01*
X167594010Y-98356589D01*
X167482068Y-98626842D01*
X167425000Y-98913740D01*
X167425000Y-99206260D01*
X167482068Y-99493158D01*
X167594010Y-99763411D01*
X167756525Y-100006632D01*
X167963368Y-100213475D01*
X168137760Y-100330000D01*
X167963368Y-100446525D01*
X167756525Y-100653368D01*
X167594010Y-100896589D01*
X167482068Y-101166842D01*
X167425000Y-101453740D01*
X167425000Y-101746260D01*
X167482068Y-102033158D01*
X167594010Y-102303411D01*
X167756525Y-102546632D01*
X167963368Y-102753475D01*
X168137760Y-102870000D01*
X167963368Y-102986525D01*
X167756525Y-103193368D01*
X167594010Y-103436589D01*
X167482068Y-103706842D01*
X167425000Y-103993740D01*
X167425000Y-104286260D01*
X167482068Y-104573158D01*
X167594010Y-104843411D01*
X167756525Y-105086632D01*
X167963368Y-105293475D01*
X168137760Y-105410000D01*
X167963368Y-105526525D01*
X167756525Y-105733368D01*
X167594010Y-105976589D01*
X167482068Y-106246842D01*
X167425000Y-106533740D01*
X167425000Y-106826260D01*
X167482068Y-107113158D01*
X167594010Y-107383411D01*
X167756525Y-107626632D01*
X167963368Y-107833475D01*
X168137760Y-107950000D01*
X167963368Y-108066525D01*
X167756525Y-108273368D01*
X167594010Y-108516589D01*
X167482068Y-108786842D01*
X167425000Y-109073740D01*
X167425000Y-109366260D01*
X167482068Y-109653158D01*
X167594010Y-109923411D01*
X167616453Y-109957000D01*
X147343547Y-109957000D01*
X147365990Y-109923411D01*
X147477932Y-109653158D01*
X147535000Y-109366260D01*
X147535000Y-109073740D01*
X147477932Y-108786842D01*
X147365990Y-108516589D01*
X147203475Y-108273368D01*
X146996632Y-108066525D01*
X146822240Y-107950000D01*
X146996632Y-107833475D01*
X147203475Y-107626632D01*
X147365990Y-107383411D01*
X147477932Y-107113158D01*
X147535000Y-106826260D01*
X147535000Y-106533740D01*
X147477932Y-106246842D01*
X147365990Y-105976589D01*
X147203475Y-105733368D01*
X146996632Y-105526525D01*
X146822240Y-105410000D01*
X146996632Y-105293475D01*
X147203475Y-105086632D01*
X147349560Y-104868000D01*
X152858928Y-104868000D01*
X152871188Y-104992482D01*
X152907498Y-105112180D01*
X152966463Y-105222494D01*
X153045815Y-105319185D01*
X153142506Y-105398537D01*
X153252820Y-105457502D01*
X153372518Y-105493812D01*
X153497000Y-105506072D01*
X153511250Y-105503000D01*
X153670000Y-105344250D01*
X153670000Y-104010000D01*
X153020750Y-104010000D01*
X152862000Y-104168750D01*
X152858928Y-104868000D01*
X147349560Y-104868000D01*
X147365990Y-104843411D01*
X147477932Y-104573158D01*
X147535000Y-104286260D01*
X147535000Y-103993740D01*
X147477932Y-103706842D01*
X147365990Y-103436589D01*
X147296785Y-103333016D01*
X147507802Y-103122000D01*
X152859912Y-103122000D01*
X152862000Y-103597250D01*
X153020750Y-103756000D01*
X153670000Y-103756000D01*
X153670000Y-103736000D01*
X153924000Y-103736000D01*
X153924000Y-103756000D01*
X153944000Y-103756000D01*
X153944000Y-104010000D01*
X153924000Y-104010000D01*
X153924000Y-105344250D01*
X154050219Y-105470469D01*
X154032000Y-105562061D01*
X154032000Y-105765939D01*
X154071774Y-105965898D01*
X154149795Y-106154256D01*
X154263063Y-106323774D01*
X154407226Y-106467937D01*
X154576744Y-106581205D01*
X154765102Y-106659226D01*
X154965061Y-106699000D01*
X155168939Y-106699000D01*
X155368898Y-106659226D01*
X155557256Y-106581205D01*
X155726774Y-106467937D01*
X155870937Y-106323774D01*
X155984205Y-106154256D01*
X156062226Y-105965898D01*
X156102000Y-105765939D01*
X156102000Y-105562061D01*
X156090141Y-105502442D01*
X156127000Y-105506072D01*
X156547000Y-105506072D01*
X156689040Y-105492082D01*
X156825621Y-105450651D01*
X156940915Y-105389025D01*
X156952506Y-105398537D01*
X157062820Y-105457502D01*
X157182518Y-105493812D01*
X157307000Y-105506072D01*
X157321250Y-105503000D01*
X157480000Y-105344250D01*
X157480000Y-104010000D01*
X157460000Y-104010000D01*
X157460000Y-103756000D01*
X157480000Y-103756000D01*
X157480000Y-103736000D01*
X157734000Y-103736000D01*
X157734000Y-103756000D01*
X157754000Y-103756000D01*
X157754000Y-104010000D01*
X157734000Y-104010000D01*
X157734000Y-105344250D01*
X157860219Y-105470469D01*
X157842000Y-105562061D01*
X157842000Y-105765939D01*
X157881774Y-105965898D01*
X157959795Y-106154256D01*
X158073063Y-106323774D01*
X158217226Y-106467937D01*
X158386744Y-106581205D01*
X158575102Y-106659226D01*
X158775061Y-106699000D01*
X158978939Y-106699000D01*
X159178898Y-106659226D01*
X159367256Y-106581205D01*
X159536774Y-106467937D01*
X159680937Y-106323774D01*
X159794205Y-106154256D01*
X159872226Y-105965898D01*
X159912000Y-105765939D01*
X159912000Y-105562061D01*
X159900141Y-105502442D01*
X159937000Y-105506072D01*
X160357000Y-105506072D01*
X160499040Y-105492082D01*
X160635621Y-105450651D01*
X160750915Y-105389025D01*
X160762506Y-105398537D01*
X160872820Y-105457502D01*
X160992518Y-105493812D01*
X161117000Y-105506072D01*
X161131250Y-105503000D01*
X161290000Y-105344250D01*
X161290000Y-104010000D01*
X161544000Y-104010000D01*
X161544000Y-105344250D01*
X161702750Y-105503000D01*
X161717000Y-105506072D01*
X161841482Y-105493812D01*
X161961180Y-105457502D01*
X162071494Y-105398537D01*
X162168185Y-105319185D01*
X162247537Y-105222494D01*
X162306502Y-105112180D01*
X162342812Y-104992482D01*
X162355072Y-104868000D01*
X162352000Y-104168750D01*
X162193250Y-104010000D01*
X161544000Y-104010000D01*
X161290000Y-104010000D01*
X161270000Y-104010000D01*
X161270000Y-103756000D01*
X161290000Y-103756000D01*
X161290000Y-102421750D01*
X161544000Y-102421750D01*
X161544000Y-103756000D01*
X162193250Y-103756000D01*
X162352000Y-103597250D01*
X162355072Y-102898000D01*
X162342812Y-102773518D01*
X162306502Y-102653820D01*
X162247537Y-102543506D01*
X162168185Y-102446815D01*
X162071494Y-102367463D01*
X161961180Y-102308498D01*
X161841482Y-102272188D01*
X161717000Y-102259928D01*
X161702750Y-102263000D01*
X161544000Y-102421750D01*
X161290000Y-102421750D01*
X161131250Y-102263000D01*
X161117000Y-102259928D01*
X160992518Y-102272188D01*
X160872820Y-102308498D01*
X160762506Y-102367463D01*
X160750915Y-102376975D01*
X160643204Y-102319402D01*
X160175802Y-101852000D01*
X160205678Y-101852000D01*
X160243000Y-101855676D01*
X160280322Y-101852000D01*
X160280333Y-101852000D01*
X160391986Y-101841003D01*
X160535247Y-101797546D01*
X160667276Y-101726974D01*
X160783001Y-101632001D01*
X160806804Y-101602997D01*
X161913204Y-100496598D01*
X162031495Y-100433370D01*
X162141825Y-100342825D01*
X162232370Y-100232495D01*
X162299651Y-100106621D01*
X162341082Y-99970040D01*
X162355072Y-99828000D01*
X162355072Y-98038000D01*
X162341082Y-97895960D01*
X162299651Y-97759379D01*
X162232370Y-97633505D01*
X162141825Y-97523175D01*
X162031495Y-97432630D01*
X161905621Y-97365349D01*
X161769040Y-97323918D01*
X161627000Y-97309928D01*
X161207000Y-97309928D01*
X161170750Y-97313498D01*
X161182000Y-97256939D01*
X161182000Y-97053061D01*
X161142226Y-96853102D01*
X161064205Y-96664744D01*
X160950937Y-96495226D01*
X160806774Y-96351063D01*
X160637256Y-96237795D01*
X160448898Y-96159774D01*
X160334404Y-96137000D01*
X164935678Y-96137000D01*
X164973000Y-96140676D01*
X165010322Y-96137000D01*
X165010333Y-96137000D01*
X165121986Y-96126003D01*
X165265247Y-96082546D01*
X165397276Y-96011974D01*
X165513001Y-95917001D01*
X165536804Y-95887997D01*
X167425000Y-93999801D01*
X167425000Y-94126260D01*
%TA.AperFunction,Conductor*%
D19*
G36*
X167425000Y-94126260D02*
G01*
X167482068Y-94413158D01*
X167594010Y-94683411D01*
X167756525Y-94926632D01*
X167963368Y-95133475D01*
X168137760Y-95250000D01*
X167963368Y-95366525D01*
X167756525Y-95573368D01*
X167594010Y-95816589D01*
X167482068Y-96086842D01*
X167425000Y-96373740D01*
X167425000Y-96666260D01*
X167482068Y-96953158D01*
X167594010Y-97223411D01*
X167756525Y-97466632D01*
X167963368Y-97673475D01*
X168137760Y-97790000D01*
X167963368Y-97906525D01*
X167756525Y-98113368D01*
X167594010Y-98356589D01*
X167482068Y-98626842D01*
X167425000Y-98913740D01*
X167425000Y-99206260D01*
X167482068Y-99493158D01*
X167594010Y-99763411D01*
X167756525Y-100006632D01*
X167963368Y-100213475D01*
X168137760Y-100330000D01*
X167963368Y-100446525D01*
X167756525Y-100653368D01*
X167594010Y-100896589D01*
X167482068Y-101166842D01*
X167425000Y-101453740D01*
X167425000Y-101746260D01*
X167482068Y-102033158D01*
X167594010Y-102303411D01*
X167756525Y-102546632D01*
X167963368Y-102753475D01*
X168137760Y-102870000D01*
X167963368Y-102986525D01*
X167756525Y-103193368D01*
X167594010Y-103436589D01*
X167482068Y-103706842D01*
X167425000Y-103993740D01*
X167425000Y-104286260D01*
X167482068Y-104573158D01*
X167594010Y-104843411D01*
X167756525Y-105086632D01*
X167963368Y-105293475D01*
X168137760Y-105410000D01*
X167963368Y-105526525D01*
X167756525Y-105733368D01*
X167594010Y-105976589D01*
X167482068Y-106246842D01*
X167425000Y-106533740D01*
X167425000Y-106826260D01*
X167482068Y-107113158D01*
X167594010Y-107383411D01*
X167756525Y-107626632D01*
X167963368Y-107833475D01*
X168137760Y-107950000D01*
X167963368Y-108066525D01*
X167756525Y-108273368D01*
X167594010Y-108516589D01*
X167482068Y-108786842D01*
X167425000Y-109073740D01*
X167425000Y-109366260D01*
X167482068Y-109653158D01*
X167594010Y-109923411D01*
X167616453Y-109957000D01*
X147343547Y-109957000D01*
X147365990Y-109923411D01*
X147477932Y-109653158D01*
X147535000Y-109366260D01*
X147535000Y-109073740D01*
X147477932Y-108786842D01*
X147365990Y-108516589D01*
X147203475Y-108273368D01*
X146996632Y-108066525D01*
X146822240Y-107950000D01*
X146996632Y-107833475D01*
X147203475Y-107626632D01*
X147365990Y-107383411D01*
X147477932Y-107113158D01*
X147535000Y-106826260D01*
X147535000Y-106533740D01*
X147477932Y-106246842D01*
X147365990Y-105976589D01*
X147203475Y-105733368D01*
X146996632Y-105526525D01*
X146822240Y-105410000D01*
X146996632Y-105293475D01*
X147203475Y-105086632D01*
X147349560Y-104868000D01*
X152858928Y-104868000D01*
X152871188Y-104992482D01*
X152907498Y-105112180D01*
X152966463Y-105222494D01*
X153045815Y-105319185D01*
X153142506Y-105398537D01*
X153252820Y-105457502D01*
X153372518Y-105493812D01*
X153497000Y-105506072D01*
X153511250Y-105503000D01*
X153670000Y-105344250D01*
X153670000Y-104010000D01*
X153020750Y-104010000D01*
X152862000Y-104168750D01*
X152858928Y-104868000D01*
X147349560Y-104868000D01*
X147365990Y-104843411D01*
X147477932Y-104573158D01*
X147535000Y-104286260D01*
X147535000Y-103993740D01*
X147477932Y-103706842D01*
X147365990Y-103436589D01*
X147296785Y-103333016D01*
X147507802Y-103122000D01*
X152859912Y-103122000D01*
X152862000Y-103597250D01*
X153020750Y-103756000D01*
X153670000Y-103756000D01*
X153670000Y-103736000D01*
X153924000Y-103736000D01*
X153924000Y-103756000D01*
X153944000Y-103756000D01*
X153944000Y-104010000D01*
X153924000Y-104010000D01*
X153924000Y-105344250D01*
X154050219Y-105470469D01*
X154032000Y-105562061D01*
X154032000Y-105765939D01*
X154071774Y-105965898D01*
X154149795Y-106154256D01*
X154263063Y-106323774D01*
X154407226Y-106467937D01*
X154576744Y-106581205D01*
X154765102Y-106659226D01*
X154965061Y-106699000D01*
X155168939Y-106699000D01*
X155368898Y-106659226D01*
X155557256Y-106581205D01*
X155726774Y-106467937D01*
X155870937Y-106323774D01*
X155984205Y-106154256D01*
X156062226Y-105965898D01*
X156102000Y-105765939D01*
X156102000Y-105562061D01*
X156090141Y-105502442D01*
X156127000Y-105506072D01*
X156547000Y-105506072D01*
X156689040Y-105492082D01*
X156825621Y-105450651D01*
X156940915Y-105389025D01*
X156952506Y-105398537D01*
X157062820Y-105457502D01*
X157182518Y-105493812D01*
X157307000Y-105506072D01*
X157321250Y-105503000D01*
X157480000Y-105344250D01*
X157480000Y-104010000D01*
X157460000Y-104010000D01*
X157460000Y-103756000D01*
X157480000Y-103756000D01*
X157480000Y-103736000D01*
X157734000Y-103736000D01*
X157734000Y-103756000D01*
X157754000Y-103756000D01*
X157754000Y-104010000D01*
X157734000Y-104010000D01*
X157734000Y-105344250D01*
X157860219Y-105470469D01*
X157842000Y-105562061D01*
X157842000Y-105765939D01*
X157881774Y-105965898D01*
X157959795Y-106154256D01*
X158073063Y-106323774D01*
X158217226Y-106467937D01*
X158386744Y-106581205D01*
X158575102Y-106659226D01*
X158775061Y-106699000D01*
X158978939Y-106699000D01*
X159178898Y-106659226D01*
X159367256Y-106581205D01*
X159536774Y-106467937D01*
X159680937Y-106323774D01*
X159794205Y-106154256D01*
X159872226Y-105965898D01*
X159912000Y-105765939D01*
X159912000Y-105562061D01*
X159900141Y-105502442D01*
X159937000Y-105506072D01*
X160357000Y-105506072D01*
X160499040Y-105492082D01*
X160635621Y-105450651D01*
X160750915Y-105389025D01*
X160762506Y-105398537D01*
X160872820Y-105457502D01*
X160992518Y-105493812D01*
X161117000Y-105506072D01*
X161131250Y-105503000D01*
X161290000Y-105344250D01*
X161290000Y-104010000D01*
X161544000Y-104010000D01*
X161544000Y-105344250D01*
X161702750Y-105503000D01*
X161717000Y-105506072D01*
X161841482Y-105493812D01*
X161961180Y-105457502D01*
X162071494Y-105398537D01*
X162168185Y-105319185D01*
X162247537Y-105222494D01*
X162306502Y-105112180D01*
X162342812Y-104992482D01*
X162355072Y-104868000D01*
X162352000Y-104168750D01*
X162193250Y-104010000D01*
X161544000Y-104010000D01*
X161290000Y-104010000D01*
X161270000Y-104010000D01*
X161270000Y-103756000D01*
X161290000Y-103756000D01*
X161290000Y-102421750D01*
X161544000Y-102421750D01*
X161544000Y-103756000D01*
X162193250Y-103756000D01*
X162352000Y-103597250D01*
X162355072Y-102898000D01*
X162342812Y-102773518D01*
X162306502Y-102653820D01*
X162247537Y-102543506D01*
X162168185Y-102446815D01*
X162071494Y-102367463D01*
X161961180Y-102308498D01*
X161841482Y-102272188D01*
X161717000Y-102259928D01*
X161702750Y-102263000D01*
X161544000Y-102421750D01*
X161290000Y-102421750D01*
X161131250Y-102263000D01*
X161117000Y-102259928D01*
X160992518Y-102272188D01*
X160872820Y-102308498D01*
X160762506Y-102367463D01*
X160750915Y-102376975D01*
X160643204Y-102319402D01*
X160175802Y-101852000D01*
X160205678Y-101852000D01*
X160243000Y-101855676D01*
X160280322Y-101852000D01*
X160280333Y-101852000D01*
X160391986Y-101841003D01*
X160535247Y-101797546D01*
X160667276Y-101726974D01*
X160783001Y-101632001D01*
X160806804Y-101602997D01*
X161913204Y-100496598D01*
X162031495Y-100433370D01*
X162141825Y-100342825D01*
X162232370Y-100232495D01*
X162299651Y-100106621D01*
X162341082Y-99970040D01*
X162355072Y-99828000D01*
X162355072Y-98038000D01*
X162341082Y-97895960D01*
X162299651Y-97759379D01*
X162232370Y-97633505D01*
X162141825Y-97523175D01*
X162031495Y-97432630D01*
X161905621Y-97365349D01*
X161769040Y-97323918D01*
X161627000Y-97309928D01*
X161207000Y-97309928D01*
X161170750Y-97313498D01*
X161182000Y-97256939D01*
X161182000Y-97053061D01*
X161142226Y-96853102D01*
X161064205Y-96664744D01*
X160950937Y-96495226D01*
X160806774Y-96351063D01*
X160637256Y-96237795D01*
X160448898Y-96159774D01*
X160334404Y-96137000D01*
X164935678Y-96137000D01*
X164973000Y-96140676D01*
X165010322Y-96137000D01*
X165010333Y-96137000D01*
X165121986Y-96126003D01*
X165265247Y-96082546D01*
X165397276Y-96011974D01*
X165513001Y-95917001D01*
X165536804Y-95887997D01*
X167425000Y-93999801D01*
X167425000Y-94126260D01*
G37*
%TD.AperFunction*%
D18*
X144803215Y-100793017D02*
X144734010Y-100896589D01*
X144670271Y-101050470D01*
X144073804Y-100454003D01*
X144050001Y-100424999D01*
X143934276Y-100330026D01*
X143802247Y-100259454D01*
X143658986Y-100215997D01*
X143547333Y-100205000D01*
X143547322Y-100205000D01*
X143510000Y-100201324D01*
X143472678Y-100205000D01*
X134153072Y-100205000D01*
X134153072Y-99784000D01*
X134140812Y-99659518D01*
X134104502Y-99539820D01*
X134045537Y-99429506D01*
X133966185Y-99332815D01*
X133869494Y-99253463D01*
X133759180Y-99194498D01*
X133639482Y-99158188D01*
X133515000Y-99145928D01*
X133249275Y-99145928D01*
X133394727Y-99085680D01*
X133629759Y-98928637D01*
X133829637Y-98728759D01*
X133933043Y-98574000D01*
X142584199Y-98574000D01*
X144803215Y-100793017D01*
%TA.AperFunction,Conductor*%
D19*
G36*
X144803215Y-100793017D02*
G01*
X144734010Y-100896589D01*
X144670271Y-101050470D01*
X144073804Y-100454003D01*
X144050001Y-100424999D01*
X143934276Y-100330026D01*
X143802247Y-100259454D01*
X143658986Y-100215997D01*
X143547333Y-100205000D01*
X143547322Y-100205000D01*
X143510000Y-100201324D01*
X143472678Y-100205000D01*
X134153072Y-100205000D01*
X134153072Y-99784000D01*
X134140812Y-99659518D01*
X134104502Y-99539820D01*
X134045537Y-99429506D01*
X133966185Y-99332815D01*
X133869494Y-99253463D01*
X133759180Y-99194498D01*
X133639482Y-99158188D01*
X133515000Y-99145928D01*
X133249275Y-99145928D01*
X133394727Y-99085680D01*
X133629759Y-98928637D01*
X133829637Y-98728759D01*
X133933043Y-98574000D01*
X142584199Y-98574000D01*
X144803215Y-100793017D01*
G37*
%TD.AperFunction*%
D18*
X149169201Y-96396003D02*
X149192999Y-96425001D01*
X149221997Y-96448799D01*
X149308723Y-96519974D01*
X149417253Y-96577985D01*
X149440753Y-96590546D01*
X149584014Y-96634003D01*
X149695667Y-96645000D01*
X149695676Y-96645000D01*
X149732999Y-96648676D01*
X149770322Y-96645000D01*
X151035439Y-96645000D01*
X151032928Y-96670500D01*
X151036000Y-96922250D01*
X151194750Y-97081000D01*
X152019000Y-97081000D01*
X152019000Y-97061000D01*
X152273000Y-97061000D01*
X152273000Y-97081000D01*
X153097250Y-97081000D01*
X153256000Y-96922250D01*
X153259072Y-96670500D01*
X153256561Y-96645000D01*
X155249678Y-96645000D01*
X155287000Y-96648676D01*
X155324322Y-96645000D01*
X155324333Y-96645000D01*
X155435986Y-96634003D01*
X155441441Y-96632348D01*
X155419795Y-96664744D01*
X155341774Y-96853102D01*
X155302000Y-97053061D01*
X155302000Y-97256939D01*
X155319721Y-97346029D01*
X155194000Y-97471750D01*
X155194000Y-98806000D01*
X155214000Y-98806000D01*
X155214000Y-99060000D01*
X155194000Y-99060000D01*
X155194000Y-99080000D01*
X154940000Y-99080000D01*
X154940000Y-99060000D01*
X154920000Y-99060000D01*
X154920000Y-98806000D01*
X154940000Y-98806000D01*
X154940000Y-97471750D01*
X154781250Y-97313000D01*
X154767000Y-97309928D01*
X154642518Y-97322188D01*
X154522820Y-97358498D01*
X154412506Y-97417463D01*
X154400915Y-97426975D01*
X154285621Y-97365349D01*
X154149040Y-97323918D01*
X154007000Y-97309928D01*
X153587000Y-97309928D01*
X153444960Y-97323918D01*
X153308379Y-97365349D01*
X153190569Y-97428319D01*
X153097250Y-97335000D01*
X152273000Y-97335000D01*
X152273000Y-97355000D01*
X152019000Y-97355000D01*
X152019000Y-97335000D01*
X151194750Y-97335000D01*
X151036000Y-97493750D01*
X151032928Y-97745500D01*
X151045188Y-97869982D01*
X151053687Y-97898000D01*
X151028061Y-97898000D01*
X150828102Y-97937774D01*
X150639744Y-98015795D01*
X150470226Y-98129063D01*
X150326063Y-98273226D01*
X150212795Y-98442744D01*
X150134774Y-98631102D01*
X150095000Y-98831061D01*
X150095000Y-99034939D01*
X150134774Y-99234898D01*
X150212795Y-99423256D01*
X150326063Y-99592774D01*
X150430289Y-99697000D01*
X150428802Y-99697000D01*
X148080000Y-97348199D01*
X148080000Y-96049325D01*
X148083676Y-96012000D01*
X148080000Y-95974675D01*
X148080000Y-95974667D01*
X148069003Y-95863014D01*
X148025546Y-95719753D01*
X147954974Y-95587724D01*
X147860001Y-95471999D01*
X147831002Y-95448201D01*
X147245916Y-94863115D01*
X147365990Y-94683411D01*
X147392532Y-94619333D01*
X149169201Y-96396003D01*
%TA.AperFunction,Conductor*%
D19*
G36*
X149169201Y-96396003D02*
G01*
X149192999Y-96425001D01*
X149221997Y-96448799D01*
X149308723Y-96519974D01*
X149417253Y-96577985D01*
X149440753Y-96590546D01*
X149584014Y-96634003D01*
X149695667Y-96645000D01*
X149695676Y-96645000D01*
X149732999Y-96648676D01*
X149770322Y-96645000D01*
X151035439Y-96645000D01*
X151032928Y-96670500D01*
X151036000Y-96922250D01*
X151194750Y-97081000D01*
X152019000Y-97081000D01*
X152019000Y-97061000D01*
X152273000Y-97061000D01*
X152273000Y-97081000D01*
X153097250Y-97081000D01*
X153256000Y-96922250D01*
X153259072Y-96670500D01*
X153256561Y-96645000D01*
X155249678Y-96645000D01*
X155287000Y-96648676D01*
X155324322Y-96645000D01*
X155324333Y-96645000D01*
X155435986Y-96634003D01*
X155441441Y-96632348D01*
X155419795Y-96664744D01*
X155341774Y-96853102D01*
X155302000Y-97053061D01*
X155302000Y-97256939D01*
X155319721Y-97346029D01*
X155194000Y-97471750D01*
X155194000Y-98806000D01*
X155214000Y-98806000D01*
X155214000Y-99060000D01*
X155194000Y-99060000D01*
X155194000Y-99080000D01*
X154940000Y-99080000D01*
X154940000Y-99060000D01*
X154920000Y-99060000D01*
X154920000Y-98806000D01*
X154940000Y-98806000D01*
X154940000Y-97471750D01*
X154781250Y-97313000D01*
X154767000Y-97309928D01*
X154642518Y-97322188D01*
X154522820Y-97358498D01*
X154412506Y-97417463D01*
X154400915Y-97426975D01*
X154285621Y-97365349D01*
X154149040Y-97323918D01*
X154007000Y-97309928D01*
X153587000Y-97309928D01*
X153444960Y-97323918D01*
X153308379Y-97365349D01*
X153190569Y-97428319D01*
X153097250Y-97335000D01*
X152273000Y-97335000D01*
X152273000Y-97355000D01*
X152019000Y-97355000D01*
X152019000Y-97335000D01*
X151194750Y-97335000D01*
X151036000Y-97493750D01*
X151032928Y-97745500D01*
X151045188Y-97869982D01*
X151053687Y-97898000D01*
X151028061Y-97898000D01*
X150828102Y-97937774D01*
X150639744Y-98015795D01*
X150470226Y-98129063D01*
X150326063Y-98273226D01*
X150212795Y-98442744D01*
X150134774Y-98631102D01*
X150095000Y-98831061D01*
X150095000Y-99034939D01*
X150134774Y-99234898D01*
X150212795Y-99423256D01*
X150326063Y-99592774D01*
X150430289Y-99697000D01*
X150428802Y-99697000D01*
X148080000Y-97348199D01*
X148080000Y-96049325D01*
X148083676Y-96012000D01*
X148080000Y-95974675D01*
X148080000Y-95974667D01*
X148069003Y-95863014D01*
X148025546Y-95719753D01*
X147954974Y-95587724D01*
X147860001Y-95471999D01*
X147831002Y-95448201D01*
X147245916Y-94863115D01*
X147365990Y-94683411D01*
X147392532Y-94619333D01*
X149169201Y-96396003D01*
G37*
%TD.AperFunction*%
D18*
X149423201Y-91570003D02*
X149446999Y-91599001D01*
X149562724Y-91693974D01*
X149694753Y-91764546D01*
X149838014Y-91808003D01*
X149949667Y-91819000D01*
X149949676Y-91819000D01*
X149986999Y-91822676D01*
X150024322Y-91819000D01*
X156395678Y-91819000D01*
X156433000Y-91822676D01*
X156470322Y-91819000D01*
X156470333Y-91819000D01*
X156581986Y-91808003D01*
X156725247Y-91764546D01*
X156857276Y-91693974D01*
X156973001Y-91599001D01*
X156996804Y-91569997D01*
X157909000Y-90657802D01*
X159387001Y-92135804D01*
X159387001Y-92293777D01*
X159365621Y-92282349D01*
X159229040Y-92240918D01*
X159087000Y-92226928D01*
X158667000Y-92226928D01*
X158524960Y-92240918D01*
X158388379Y-92282349D01*
X158273085Y-92343975D01*
X158261494Y-92334463D01*
X158151180Y-92275498D01*
X158031482Y-92239188D01*
X157907000Y-92226928D01*
X157892750Y-92230000D01*
X157734000Y-92388750D01*
X157734000Y-93723000D01*
X157754000Y-93723000D01*
X157754000Y-93977000D01*
X157734000Y-93977000D01*
X157734000Y-95311250D01*
X157892750Y-95470000D01*
X157907000Y-95473072D01*
X158031482Y-95460812D01*
X158151180Y-95424502D01*
X158261494Y-95365537D01*
X158273085Y-95356025D01*
X158380797Y-95413599D01*
X158855200Y-95888002D01*
X158878999Y-95917001D01*
X158994724Y-96011974D01*
X159126753Y-96082546D01*
X159270014Y-96126003D01*
X159381667Y-96137000D01*
X159381675Y-96137000D01*
X159419000Y-96140676D01*
X159456325Y-96137000D01*
X159959596Y-96137000D01*
X159845102Y-96159774D01*
X159656744Y-96237795D01*
X159487226Y-96351063D01*
X159343063Y-96495226D01*
X159229795Y-96664744D01*
X159151774Y-96853102D01*
X159112000Y-97053061D01*
X159112000Y-97256939D01*
X159129721Y-97346029D01*
X159004000Y-97471750D01*
X159004000Y-98806000D01*
X159024000Y-98806000D01*
X159024000Y-99060000D01*
X159004000Y-99060000D01*
X159004000Y-99080000D01*
X158750000Y-99080000D01*
X158750000Y-99060000D01*
X158730000Y-99060000D01*
X158730000Y-98806000D01*
X158750000Y-98806000D01*
X158750000Y-97471750D01*
X158591250Y-97313000D01*
X158577000Y-97309928D01*
X158452518Y-97322188D01*
X158332820Y-97358498D01*
X158222506Y-97417463D01*
X158210915Y-97426975D01*
X158095621Y-97365349D01*
X157959040Y-97323918D01*
X157817000Y-97309928D01*
X157397000Y-97309928D01*
X157360750Y-97313498D01*
X157372000Y-97256939D01*
X157372000Y-97053061D01*
X157332226Y-96853102D01*
X157254205Y-96664744D01*
X157140937Y-96495226D01*
X156996774Y-96351063D01*
X156827256Y-96237795D01*
X156638898Y-96159774D01*
X156438939Y-96120000D01*
X156235061Y-96120000D01*
X156099920Y-96146881D01*
X156833204Y-95413598D01*
X156940915Y-95356025D01*
X156952506Y-95365537D01*
X157062820Y-95424502D01*
X157182518Y-95460812D01*
X157307000Y-95473072D01*
X157321250Y-95470000D01*
X157480000Y-95311250D01*
X157480000Y-93977000D01*
X157460000Y-93977000D01*
X157460000Y-93723000D01*
X157480000Y-93723000D01*
X157480000Y-92388750D01*
X157321250Y-92230000D01*
X157307000Y-92226928D01*
X157182518Y-92239188D01*
X157062820Y-92275498D01*
X156952506Y-92334463D01*
X156940915Y-92343975D01*
X156825621Y-92282349D01*
X156689040Y-92240918D01*
X156547000Y-92226928D01*
X156127000Y-92226928D01*
X155984960Y-92240918D01*
X155848379Y-92282349D01*
X155722505Y-92349630D01*
X155702000Y-92366458D01*
X155681495Y-92349630D01*
X155555621Y-92282349D01*
X155419040Y-92240918D01*
X155277000Y-92226928D01*
X154857000Y-92226928D01*
X154714960Y-92240918D01*
X154578379Y-92282349D01*
X154463085Y-92343975D01*
X154451494Y-92334463D01*
X154341180Y-92275498D01*
X154221482Y-92239188D01*
X154097000Y-92226928D01*
X154082750Y-92230000D01*
X153924000Y-92388750D01*
X153924000Y-93723000D01*
X153944000Y-93723000D01*
X153944000Y-93977000D01*
X153924000Y-93977000D01*
X153924000Y-93997000D01*
X153670000Y-93997000D01*
X153670000Y-93977000D01*
X153020750Y-93977000D01*
X152862000Y-94135750D01*
X152859886Y-94617000D01*
X150301802Y-94617000D01*
X148549802Y-92865000D01*
X152858928Y-92865000D01*
X152862000Y-93564250D01*
X153020750Y-93723000D01*
X153670000Y-93723000D01*
X153670000Y-92388750D01*
X153511250Y-92230000D01*
X153497000Y-92226928D01*
X153372518Y-92239188D01*
X153252820Y-92275498D01*
X153142506Y-92334463D01*
X153045815Y-92413815D01*
X152966463Y-92510506D01*
X152907498Y-92620820D01*
X152871188Y-92740518D01*
X152858928Y-92865000D01*
X148549802Y-92865000D01*
X148080000Y-92395199D01*
X148080000Y-90842322D01*
X148083676Y-90804999D01*
X148080000Y-90767676D01*
X148080000Y-90767667D01*
X148069003Y-90656014D01*
X148025546Y-90512753D01*
X147954974Y-90380724D01*
X147860001Y-90264999D01*
X147831003Y-90241201D01*
X147296785Y-89706984D01*
X147365990Y-89603411D01*
X147392532Y-89539333D01*
X149423201Y-91570003D01*
%TA.AperFunction,Conductor*%
D19*
G36*
X149423201Y-91570003D02*
G01*
X149446999Y-91599001D01*
X149562724Y-91693974D01*
X149694753Y-91764546D01*
X149838014Y-91808003D01*
X149949667Y-91819000D01*
X149949676Y-91819000D01*
X149986999Y-91822676D01*
X150024322Y-91819000D01*
X156395678Y-91819000D01*
X156433000Y-91822676D01*
X156470322Y-91819000D01*
X156470333Y-91819000D01*
X156581986Y-91808003D01*
X156725247Y-91764546D01*
X156857276Y-91693974D01*
X156973001Y-91599001D01*
X156996804Y-91569997D01*
X157909000Y-90657802D01*
X159387001Y-92135804D01*
X159387001Y-92293777D01*
X159365621Y-92282349D01*
X159229040Y-92240918D01*
X159087000Y-92226928D01*
X158667000Y-92226928D01*
X158524960Y-92240918D01*
X158388379Y-92282349D01*
X158273085Y-92343975D01*
X158261494Y-92334463D01*
X158151180Y-92275498D01*
X158031482Y-92239188D01*
X157907000Y-92226928D01*
X157892750Y-92230000D01*
X157734000Y-92388750D01*
X157734000Y-93723000D01*
X157754000Y-93723000D01*
X157754000Y-93977000D01*
X157734000Y-93977000D01*
X157734000Y-95311250D01*
X157892750Y-95470000D01*
X157907000Y-95473072D01*
X158031482Y-95460812D01*
X158151180Y-95424502D01*
X158261494Y-95365537D01*
X158273085Y-95356025D01*
X158380797Y-95413599D01*
X158855200Y-95888002D01*
X158878999Y-95917001D01*
X158994724Y-96011974D01*
X159126753Y-96082546D01*
X159270014Y-96126003D01*
X159381667Y-96137000D01*
X159381675Y-96137000D01*
X159419000Y-96140676D01*
X159456325Y-96137000D01*
X159959596Y-96137000D01*
X159845102Y-96159774D01*
X159656744Y-96237795D01*
X159487226Y-96351063D01*
X159343063Y-96495226D01*
X159229795Y-96664744D01*
X159151774Y-96853102D01*
X159112000Y-97053061D01*
X159112000Y-97256939D01*
X159129721Y-97346029D01*
X159004000Y-97471750D01*
X159004000Y-98806000D01*
X159024000Y-98806000D01*
X159024000Y-99060000D01*
X159004000Y-99060000D01*
X159004000Y-99080000D01*
X158750000Y-99080000D01*
X158750000Y-99060000D01*
X158730000Y-99060000D01*
X158730000Y-98806000D01*
X158750000Y-98806000D01*
X158750000Y-97471750D01*
X158591250Y-97313000D01*
X158577000Y-97309928D01*
X158452518Y-97322188D01*
X158332820Y-97358498D01*
X158222506Y-97417463D01*
X158210915Y-97426975D01*
X158095621Y-97365349D01*
X157959040Y-97323918D01*
X157817000Y-97309928D01*
X157397000Y-97309928D01*
X157360750Y-97313498D01*
X157372000Y-97256939D01*
X157372000Y-97053061D01*
X157332226Y-96853102D01*
X157254205Y-96664744D01*
X157140937Y-96495226D01*
X156996774Y-96351063D01*
X156827256Y-96237795D01*
X156638898Y-96159774D01*
X156438939Y-96120000D01*
X156235061Y-96120000D01*
X156099920Y-96146881D01*
X156833204Y-95413598D01*
X156940915Y-95356025D01*
X156952506Y-95365537D01*
X157062820Y-95424502D01*
X157182518Y-95460812D01*
X157307000Y-95473072D01*
X157321250Y-95470000D01*
X157480000Y-95311250D01*
X157480000Y-93977000D01*
X157460000Y-93977000D01*
X157460000Y-93723000D01*
X157480000Y-93723000D01*
X157480000Y-92388750D01*
X157321250Y-92230000D01*
X157307000Y-92226928D01*
X157182518Y-92239188D01*
X157062820Y-92275498D01*
X156952506Y-92334463D01*
X156940915Y-92343975D01*
X156825621Y-92282349D01*
X156689040Y-92240918D01*
X156547000Y-92226928D01*
X156127000Y-92226928D01*
X155984960Y-92240918D01*
X155848379Y-92282349D01*
X155722505Y-92349630D01*
X155702000Y-92366458D01*
X155681495Y-92349630D01*
X155555621Y-92282349D01*
X155419040Y-92240918D01*
X155277000Y-92226928D01*
X154857000Y-92226928D01*
X154714960Y-92240918D01*
X154578379Y-92282349D01*
X154463085Y-92343975D01*
X154451494Y-92334463D01*
X154341180Y-92275498D01*
X154221482Y-92239188D01*
X154097000Y-92226928D01*
X154082750Y-92230000D01*
X153924000Y-92388750D01*
X153924000Y-93723000D01*
X153944000Y-93723000D01*
X153944000Y-93977000D01*
X153924000Y-93977000D01*
X153924000Y-93997000D01*
X153670000Y-93997000D01*
X153670000Y-93977000D01*
X153020750Y-93977000D01*
X152862000Y-94135750D01*
X152859886Y-94617000D01*
X150301802Y-94617000D01*
X148549802Y-92865000D01*
X152858928Y-92865000D01*
X152862000Y-93564250D01*
X153020750Y-93723000D01*
X153670000Y-93723000D01*
X153670000Y-92388750D01*
X153511250Y-92230000D01*
X153497000Y-92226928D01*
X153372518Y-92239188D01*
X153252820Y-92275498D01*
X153142506Y-92334463D01*
X153045815Y-92413815D01*
X152966463Y-92510506D01*
X152907498Y-92620820D01*
X152871188Y-92740518D01*
X152858928Y-92865000D01*
X148549802Y-92865000D01*
X148080000Y-92395199D01*
X148080000Y-90842322D01*
X148083676Y-90804999D01*
X148080000Y-90767676D01*
X148080000Y-90767667D01*
X148069003Y-90656014D01*
X148025546Y-90512753D01*
X147954974Y-90380724D01*
X147860001Y-90264999D01*
X147831003Y-90241201D01*
X147296785Y-89706984D01*
X147365990Y-89603411D01*
X147392532Y-89539333D01*
X149423201Y-91570003D01*
G37*
%TD.AperFunction*%
D18*
X144724205Y-98301008D02*
X144747999Y-98330001D01*
X144750438Y-98332003D01*
X144734010Y-98356589D01*
X144670271Y-98510469D01*
X143462804Y-97303003D01*
X143439001Y-97273999D01*
X143323276Y-97179026D01*
X143191247Y-97108454D01*
X143047986Y-97064997D01*
X142936333Y-97054000D01*
X142936322Y-97054000D01*
X142899000Y-97050324D01*
X142861678Y-97054000D01*
X133933043Y-97054000D01*
X133829637Y-96899241D01*
X133629759Y-96699363D01*
X133394727Y-96542320D01*
X133133574Y-96434147D01*
X133107699Y-96429000D01*
X133133574Y-96423853D01*
X133394727Y-96315680D01*
X133629759Y-96158637D01*
X133829637Y-95958759D01*
X133933043Y-95804000D01*
X142227199Y-95804000D01*
X144724205Y-98301008D01*
%TA.AperFunction,Conductor*%
D19*
G36*
X144724205Y-98301008D02*
G01*
X144747999Y-98330001D01*
X144750438Y-98332003D01*
X144734010Y-98356589D01*
X144670271Y-98510469D01*
X143462804Y-97303003D01*
X143439001Y-97273999D01*
X143323276Y-97179026D01*
X143191247Y-97108454D01*
X143047986Y-97064997D01*
X142936333Y-97054000D01*
X142936322Y-97054000D01*
X142899000Y-97050324D01*
X142861678Y-97054000D01*
X133933043Y-97054000D01*
X133829637Y-96899241D01*
X133629759Y-96699363D01*
X133394727Y-96542320D01*
X133133574Y-96434147D01*
X133107699Y-96429000D01*
X133133574Y-96423853D01*
X133394727Y-96315680D01*
X133629759Y-96158637D01*
X133829637Y-95958759D01*
X133933043Y-95804000D01*
X142227199Y-95804000D01*
X144724205Y-98301008D01*
G37*
%TD.AperFunction*%
D18*
X146177000Y-96393000D02*
X146197000Y-96393000D01*
X146197000Y-96647000D01*
X146177000Y-96647000D01*
X146177000Y-96667000D01*
X145923000Y-96667000D01*
X145923000Y-96647000D01*
X145903000Y-96647000D01*
X145903000Y-96393000D01*
X145923000Y-96393000D01*
X145923000Y-96373000D01*
X146177000Y-96373000D01*
X146177000Y-96393000D01*
%TA.AperFunction,Conductor*%
D19*
G36*
X146177000Y-96393000D02*
G01*
X146197000Y-96393000D01*
X146197000Y-96647000D01*
X146177000Y-96647000D01*
X146177000Y-96667000D01*
X145923000Y-96667000D01*
X145923000Y-96647000D01*
X145903000Y-96647000D01*
X145903000Y-96393000D01*
X145923000Y-96393000D01*
X145923000Y-96373000D01*
X146177000Y-96373000D01*
X146177000Y-96393000D01*
G37*
%TD.AperFunction*%
D18*
X144806094Y-95715896D02*
X144778359Y-95753080D01*
X144653175Y-96015901D01*
X144638171Y-96065369D01*
X143105804Y-94533003D01*
X143082001Y-94503999D01*
X142966276Y-94409026D01*
X142834247Y-94338454D01*
X142690986Y-94294997D01*
X142579333Y-94284000D01*
X142579322Y-94284000D01*
X142542000Y-94280324D01*
X142504678Y-94284000D01*
X133933043Y-94284000D01*
X133829637Y-94129241D01*
X133629759Y-93929363D01*
X133394727Y-93772320D01*
X133133574Y-93664147D01*
X133107699Y-93659000D01*
X133133574Y-93653853D01*
X133394727Y-93545680D01*
X133629759Y-93388637D01*
X133829637Y-93188759D01*
X133933043Y-93034000D01*
X142124199Y-93034000D01*
X144806094Y-95715896D01*
%TA.AperFunction,Conductor*%
D19*
G36*
X144806094Y-95715896D02*
G01*
X144778359Y-95753080D01*
X144653175Y-96015901D01*
X144638171Y-96065369D01*
X143105804Y-94533003D01*
X143082001Y-94503999D01*
X142966276Y-94409026D01*
X142834247Y-94338454D01*
X142690986Y-94294997D01*
X142579333Y-94284000D01*
X142579322Y-94284000D01*
X142542000Y-94280324D01*
X142504678Y-94284000D01*
X133933043Y-94284000D01*
X133829637Y-94129241D01*
X133629759Y-93929363D01*
X133394727Y-93772320D01*
X133133574Y-93664147D01*
X133107699Y-93659000D01*
X133133574Y-93653853D01*
X133394727Y-93545680D01*
X133629759Y-93388637D01*
X133829637Y-93188759D01*
X133933043Y-93034000D01*
X142124199Y-93034000D01*
X144806094Y-95715896D01*
G37*
%TD.AperFunction*%
D18*
X131335147Y-91855426D02*
X131280000Y-92132665D01*
X131280000Y-92415335D01*
X131335147Y-92692574D01*
X131443320Y-92953727D01*
X131600363Y-93188759D01*
X131800241Y-93388637D01*
X132035273Y-93545680D01*
X132296426Y-93653853D01*
X132322301Y-93659000D01*
X132296426Y-93664147D01*
X132035273Y-93772320D01*
X131800241Y-93929363D01*
X131600363Y-94129241D01*
X131443320Y-94364273D01*
X131335147Y-94625426D01*
X131280575Y-94899774D01*
X130976574Y-94595773D01*
X130983977Y-94588370D01*
X130867704Y-94472097D01*
X131111671Y-94400514D01*
X131232571Y-94145004D01*
X131301300Y-93870816D01*
X131315217Y-93588488D01*
X131273787Y-93308870D01*
X131178603Y-93042708D01*
X131111671Y-92917486D01*
X130867702Y-92845903D01*
X130054605Y-93659000D01*
X130068748Y-93673143D01*
X129889143Y-93852748D01*
X129875000Y-93838605D01*
X129860858Y-93852748D01*
X129681253Y-93673143D01*
X129695395Y-93659000D01*
X129681253Y-93644858D01*
X129860858Y-93465253D01*
X129875000Y-93479395D01*
X130688097Y-92666298D01*
X130616514Y-92422329D01*
X130361004Y-92301429D01*
X130258711Y-92275788D01*
X130293574Y-92268853D01*
X130554727Y-92160680D01*
X130789759Y-92003637D01*
X130989637Y-91803759D01*
X131093043Y-91649000D01*
X131420651Y-91649000D01*
X131335147Y-91855426D01*
%TA.AperFunction,Conductor*%
D19*
G36*
X131335147Y-91855426D02*
G01*
X131280000Y-92132665D01*
X131280000Y-92415335D01*
X131335147Y-92692574D01*
X131443320Y-92953727D01*
X131600363Y-93188759D01*
X131800241Y-93388637D01*
X132035273Y-93545680D01*
X132296426Y-93653853D01*
X132322301Y-93659000D01*
X132296426Y-93664147D01*
X132035273Y-93772320D01*
X131800241Y-93929363D01*
X131600363Y-94129241D01*
X131443320Y-94364273D01*
X131335147Y-94625426D01*
X131280575Y-94899774D01*
X130976574Y-94595773D01*
X130983977Y-94588370D01*
X130867704Y-94472097D01*
X131111671Y-94400514D01*
X131232571Y-94145004D01*
X131301300Y-93870816D01*
X131315217Y-93588488D01*
X131273787Y-93308870D01*
X131178603Y-93042708D01*
X131111671Y-92917486D01*
X130867702Y-92845903D01*
X130054605Y-93659000D01*
X130068748Y-93673143D01*
X129889143Y-93852748D01*
X129875000Y-93838605D01*
X129860858Y-93852748D01*
X129681253Y-93673143D01*
X129695395Y-93659000D01*
X129681253Y-93644858D01*
X129860858Y-93465253D01*
X129875000Y-93479395D01*
X130688097Y-92666298D01*
X130616514Y-92422329D01*
X130361004Y-92301429D01*
X130258711Y-92275788D01*
X130293574Y-92268853D01*
X130554727Y-92160680D01*
X130789759Y-92003637D01*
X130989637Y-91803759D01*
X131093043Y-91649000D01*
X131420651Y-91649000D01*
X131335147Y-91855426D01*
G37*
%TD.AperFunction*%
D18*
X167128996Y-80573799D02*
X167129007Y-80573808D01*
X167468791Y-80913592D01*
X167425000Y-81133740D01*
X167425000Y-81426260D01*
X167482068Y-81713158D01*
X167594010Y-81983411D01*
X167756525Y-82226632D01*
X167963368Y-82433475D01*
X168137760Y-82550000D01*
X167963368Y-82666525D01*
X167756525Y-82873368D01*
X167594010Y-83116589D01*
X167482068Y-83386842D01*
X167425000Y-83673740D01*
X167425000Y-83966260D01*
X167482068Y-84253158D01*
X167594010Y-84523411D01*
X167756525Y-84766632D01*
X167963368Y-84973475D01*
X168137760Y-85090000D01*
X167963368Y-85206525D01*
X167756525Y-85413368D01*
X167594010Y-85656589D01*
X167482068Y-85926842D01*
X167425000Y-86213740D01*
X167425000Y-86506260D01*
X167482068Y-86793158D01*
X167594010Y-87063411D01*
X167756525Y-87306632D01*
X167963368Y-87513475D01*
X168137760Y-87630000D01*
X167963368Y-87746525D01*
X167756525Y-87953368D01*
X167594010Y-88196589D01*
X167482068Y-88466842D01*
X167425000Y-88753740D01*
X167425000Y-89046260D01*
X167482068Y-89333158D01*
X167594010Y-89603411D01*
X167756525Y-89846632D01*
X167963368Y-90053475D01*
X168137760Y-90170000D01*
X167963368Y-90286525D01*
X167756525Y-90493368D01*
X167594010Y-90736589D01*
X167482068Y-91006842D01*
X167425000Y-91293740D01*
X167425000Y-91586260D01*
X167468790Y-91806408D01*
X164658199Y-94617000D01*
X162354114Y-94617000D01*
X162352000Y-94135750D01*
X162193250Y-93977000D01*
X161544000Y-93977000D01*
X161544000Y-93997000D01*
X161290000Y-93997000D01*
X161290000Y-93977000D01*
X161270000Y-93977000D01*
X161270000Y-93723000D01*
X161290000Y-93723000D01*
X161290000Y-92388750D01*
X161544000Y-92388750D01*
X161544000Y-93723000D01*
X162193250Y-93723000D01*
X162352000Y-93564250D01*
X162355072Y-92865000D01*
X162342812Y-92740518D01*
X162306502Y-92620820D01*
X162247537Y-92510506D01*
X162168185Y-92413815D01*
X162071494Y-92334463D01*
X161961180Y-92275498D01*
X161841482Y-92239188D01*
X161717000Y-92226928D01*
X161702750Y-92230000D01*
X161544000Y-92388750D01*
X161290000Y-92388750D01*
X161131250Y-92230000D01*
X161117000Y-92226928D01*
X160992518Y-92239188D01*
X160907000Y-92265130D01*
X160907000Y-91858322D01*
X160910676Y-91820999D01*
X160907000Y-91783676D01*
X160907000Y-91783667D01*
X160896003Y-91672014D01*
X160852546Y-91528753D01*
X160781974Y-91396724D01*
X160744652Y-91351247D01*
X160710799Y-91309996D01*
X160710795Y-91309992D01*
X160687001Y-91280999D01*
X160658008Y-91257205D01*
X159922440Y-90521638D01*
X159937000Y-90523072D01*
X160357000Y-90523072D01*
X160499040Y-90509082D01*
X160635621Y-90467651D01*
X160761495Y-90400370D01*
X160782000Y-90383542D01*
X160802505Y-90400370D01*
X160928379Y-90467651D01*
X161064960Y-90509082D01*
X161207000Y-90523072D01*
X161627000Y-90523072D01*
X161769040Y-90509082D01*
X161905621Y-90467651D01*
X162031495Y-90400370D01*
X162141825Y-90309825D01*
X162232370Y-90199495D01*
X162299651Y-90073621D01*
X162341082Y-89937040D01*
X162355072Y-89795000D01*
X162355072Y-88005000D01*
X162341082Y-87862960D01*
X162299651Y-87726379D01*
X162232370Y-87600505D01*
X162177000Y-87533036D01*
X162177000Y-85635333D01*
X162180677Y-85598000D01*
X162166003Y-85449014D01*
X162122546Y-85305753D01*
X162093896Y-85252153D01*
X162168185Y-85191185D01*
X162247537Y-85094494D01*
X162306502Y-84984180D01*
X162342812Y-84864482D01*
X162355072Y-84740000D01*
X162352000Y-84040750D01*
X162193250Y-83882000D01*
X161544000Y-83882000D01*
X161544000Y-83902000D01*
X161542000Y-83902000D01*
X161542000Y-82802724D01*
X161544000Y-82782418D01*
X161544000Y-83628000D01*
X162193250Y-83628000D01*
X162352000Y-83469250D01*
X162355072Y-82770000D01*
X162342812Y-82645518D01*
X162306502Y-82525820D01*
X162247537Y-82415506D01*
X162168185Y-82318815D01*
X162071494Y-82239463D01*
X161961180Y-82180498D01*
X161841482Y-82144188D01*
X161717000Y-82131928D01*
X161702750Y-82135000D01*
X161544000Y-82293750D01*
X161544000Y-82748384D01*
X161542000Y-82728078D01*
X161542000Y-82728069D01*
X161531003Y-82616416D01*
X161487546Y-82473155D01*
X161416974Y-82341125D01*
X161345799Y-82254399D01*
X161322001Y-82225401D01*
X161293003Y-82201603D01*
X159453582Y-80362183D01*
X159512000Y-80330957D01*
X159602820Y-80379502D01*
X159722518Y-80415812D01*
X159847000Y-80428072D01*
X159861250Y-80425000D01*
X160020000Y-80266250D01*
X160020000Y-78932000D01*
X159004000Y-78932000D01*
X159004000Y-78952000D01*
X158750000Y-78952000D01*
X158750000Y-78932000D01*
X158730000Y-78932000D01*
X158730000Y-78678000D01*
X158750000Y-78678000D01*
X158750000Y-77343750D01*
X159004000Y-77343750D01*
X159004000Y-78678000D01*
X160020000Y-78678000D01*
X160020000Y-77343750D01*
X160274000Y-77343750D01*
X160274000Y-78678000D01*
X160294000Y-78678000D01*
X160294000Y-78932000D01*
X160274000Y-78932000D01*
X160274000Y-80266250D01*
X160432750Y-80425000D01*
X160447000Y-80428072D01*
X160571482Y-80415812D01*
X160691180Y-80379502D01*
X160801494Y-80320537D01*
X160813085Y-80311025D01*
X160928379Y-80372651D01*
X161064960Y-80414082D01*
X161207000Y-80428072D01*
X161627000Y-80428072D01*
X161769040Y-80414082D01*
X161905621Y-80372651D01*
X162031495Y-80305370D01*
X162141825Y-80214825D01*
X162232370Y-80104495D01*
X162299651Y-79978621D01*
X162341082Y-79842040D01*
X162355072Y-79700000D01*
X162355072Y-77910000D01*
X162341082Y-77767960D01*
X162299651Y-77631379D01*
X162232370Y-77505505D01*
X162141825Y-77395175D01*
X162031495Y-77304630D01*
X161905621Y-77237349D01*
X161769040Y-77195918D01*
X161627000Y-77181928D01*
X161207000Y-77181928D01*
X161064960Y-77195918D01*
X160928379Y-77237349D01*
X160813085Y-77298975D01*
X160801494Y-77289463D01*
X160691180Y-77230498D01*
X160571482Y-77194188D01*
X160447000Y-77181928D01*
X160432750Y-77185000D01*
X160274000Y-77343750D01*
X160020000Y-77343750D01*
X159861250Y-77185000D01*
X159847000Y-77181928D01*
X159722518Y-77194188D01*
X159602820Y-77230498D01*
X159512000Y-77279043D01*
X159421180Y-77230498D01*
X159301482Y-77194188D01*
X159177000Y-77181928D01*
X159162750Y-77185000D01*
X159004000Y-77343750D01*
X158750000Y-77343750D01*
X158613495Y-77207245D01*
X158642000Y-77063939D01*
X158642000Y-76860061D01*
X158602226Y-76660102D01*
X158524205Y-76471744D01*
X158410937Y-76302226D01*
X158306711Y-76198000D01*
X162753199Y-76198000D01*
X167128996Y-80573799D01*
%TA.AperFunction,Conductor*%
D19*
G36*
X167128996Y-80573799D02*
G01*
X167129007Y-80573808D01*
X167468791Y-80913592D01*
X167425000Y-81133740D01*
X167425000Y-81426260D01*
X167482068Y-81713158D01*
X167594010Y-81983411D01*
X167756525Y-82226632D01*
X167963368Y-82433475D01*
X168137760Y-82550000D01*
X167963368Y-82666525D01*
X167756525Y-82873368D01*
X167594010Y-83116589D01*
X167482068Y-83386842D01*
X167425000Y-83673740D01*
X167425000Y-83966260D01*
X167482068Y-84253158D01*
X167594010Y-84523411D01*
X167756525Y-84766632D01*
X167963368Y-84973475D01*
X168137760Y-85090000D01*
X167963368Y-85206525D01*
X167756525Y-85413368D01*
X167594010Y-85656589D01*
X167482068Y-85926842D01*
X167425000Y-86213740D01*
X167425000Y-86506260D01*
X167482068Y-86793158D01*
X167594010Y-87063411D01*
X167756525Y-87306632D01*
X167963368Y-87513475D01*
X168137760Y-87630000D01*
X167963368Y-87746525D01*
X167756525Y-87953368D01*
X167594010Y-88196589D01*
X167482068Y-88466842D01*
X167425000Y-88753740D01*
X167425000Y-89046260D01*
X167482068Y-89333158D01*
X167594010Y-89603411D01*
X167756525Y-89846632D01*
X167963368Y-90053475D01*
X168137760Y-90170000D01*
X167963368Y-90286525D01*
X167756525Y-90493368D01*
X167594010Y-90736589D01*
X167482068Y-91006842D01*
X167425000Y-91293740D01*
X167425000Y-91586260D01*
X167468790Y-91806408D01*
X164658199Y-94617000D01*
X162354114Y-94617000D01*
X162352000Y-94135750D01*
X162193250Y-93977000D01*
X161544000Y-93977000D01*
X161544000Y-93997000D01*
X161290000Y-93997000D01*
X161290000Y-93977000D01*
X161270000Y-93977000D01*
X161270000Y-93723000D01*
X161290000Y-93723000D01*
X161290000Y-92388750D01*
X161544000Y-92388750D01*
X161544000Y-93723000D01*
X162193250Y-93723000D01*
X162352000Y-93564250D01*
X162355072Y-92865000D01*
X162342812Y-92740518D01*
X162306502Y-92620820D01*
X162247537Y-92510506D01*
X162168185Y-92413815D01*
X162071494Y-92334463D01*
X161961180Y-92275498D01*
X161841482Y-92239188D01*
X161717000Y-92226928D01*
X161702750Y-92230000D01*
X161544000Y-92388750D01*
X161290000Y-92388750D01*
X161131250Y-92230000D01*
X161117000Y-92226928D01*
X160992518Y-92239188D01*
X160907000Y-92265130D01*
X160907000Y-91858322D01*
X160910676Y-91820999D01*
X160907000Y-91783676D01*
X160907000Y-91783667D01*
X160896003Y-91672014D01*
X160852546Y-91528753D01*
X160781974Y-91396724D01*
X160744652Y-91351247D01*
X160710799Y-91309996D01*
X160710795Y-91309992D01*
X160687001Y-91280999D01*
X160658008Y-91257205D01*
X159922440Y-90521638D01*
X159937000Y-90523072D01*
X160357000Y-90523072D01*
X160499040Y-90509082D01*
X160635621Y-90467651D01*
X160761495Y-90400370D01*
X160782000Y-90383542D01*
X160802505Y-90400370D01*
X160928379Y-90467651D01*
X161064960Y-90509082D01*
X161207000Y-90523072D01*
X161627000Y-90523072D01*
X161769040Y-90509082D01*
X161905621Y-90467651D01*
X162031495Y-90400370D01*
X162141825Y-90309825D01*
X162232370Y-90199495D01*
X162299651Y-90073621D01*
X162341082Y-89937040D01*
X162355072Y-89795000D01*
X162355072Y-88005000D01*
X162341082Y-87862960D01*
X162299651Y-87726379D01*
X162232370Y-87600505D01*
X162177000Y-87533036D01*
X162177000Y-85635333D01*
X162180677Y-85598000D01*
X162166003Y-85449014D01*
X162122546Y-85305753D01*
X162093896Y-85252153D01*
X162168185Y-85191185D01*
X162247537Y-85094494D01*
X162306502Y-84984180D01*
X162342812Y-84864482D01*
X162355072Y-84740000D01*
X162352000Y-84040750D01*
X162193250Y-83882000D01*
X161544000Y-83882000D01*
X161544000Y-83902000D01*
X161542000Y-83902000D01*
X161542000Y-82802724D01*
X161544000Y-82782418D01*
X161544000Y-83628000D01*
X162193250Y-83628000D01*
X162352000Y-83469250D01*
X162355072Y-82770000D01*
X162342812Y-82645518D01*
X162306502Y-82525820D01*
X162247537Y-82415506D01*
X162168185Y-82318815D01*
X162071494Y-82239463D01*
X161961180Y-82180498D01*
X161841482Y-82144188D01*
X161717000Y-82131928D01*
X161702750Y-82135000D01*
X161544000Y-82293750D01*
X161544000Y-82748384D01*
X161542000Y-82728078D01*
X161542000Y-82728069D01*
X161531003Y-82616416D01*
X161487546Y-82473155D01*
X161416974Y-82341125D01*
X161345799Y-82254399D01*
X161322001Y-82225401D01*
X161293003Y-82201603D01*
X159453582Y-80362183D01*
X159512000Y-80330957D01*
X159602820Y-80379502D01*
X159722518Y-80415812D01*
X159847000Y-80428072D01*
X159861250Y-80425000D01*
X160020000Y-80266250D01*
X160020000Y-78932000D01*
X159004000Y-78932000D01*
X159004000Y-78952000D01*
X158750000Y-78952000D01*
X158750000Y-78932000D01*
X158730000Y-78932000D01*
X158730000Y-78678000D01*
X158750000Y-78678000D01*
X158750000Y-77343750D01*
X159004000Y-77343750D01*
X159004000Y-78678000D01*
X160020000Y-78678000D01*
X160020000Y-77343750D01*
X160274000Y-77343750D01*
X160274000Y-78678000D01*
X160294000Y-78678000D01*
X160294000Y-78932000D01*
X160274000Y-78932000D01*
X160274000Y-80266250D01*
X160432750Y-80425000D01*
X160447000Y-80428072D01*
X160571482Y-80415812D01*
X160691180Y-80379502D01*
X160801494Y-80320537D01*
X160813085Y-80311025D01*
X160928379Y-80372651D01*
X161064960Y-80414082D01*
X161207000Y-80428072D01*
X161627000Y-80428072D01*
X161769040Y-80414082D01*
X161905621Y-80372651D01*
X162031495Y-80305370D01*
X162141825Y-80214825D01*
X162232370Y-80104495D01*
X162299651Y-79978621D01*
X162341082Y-79842040D01*
X162355072Y-79700000D01*
X162355072Y-77910000D01*
X162341082Y-77767960D01*
X162299651Y-77631379D01*
X162232370Y-77505505D01*
X162141825Y-77395175D01*
X162031495Y-77304630D01*
X161905621Y-77237349D01*
X161769040Y-77195918D01*
X161627000Y-77181928D01*
X161207000Y-77181928D01*
X161064960Y-77195918D01*
X160928379Y-77237349D01*
X160813085Y-77298975D01*
X160801494Y-77289463D01*
X160691180Y-77230498D01*
X160571482Y-77194188D01*
X160447000Y-77181928D01*
X160432750Y-77185000D01*
X160274000Y-77343750D01*
X160020000Y-77343750D01*
X159861250Y-77185000D01*
X159847000Y-77181928D01*
X159722518Y-77194188D01*
X159602820Y-77230498D01*
X159512000Y-77279043D01*
X159421180Y-77230498D01*
X159301482Y-77194188D01*
X159177000Y-77181928D01*
X159162750Y-77185000D01*
X159004000Y-77343750D01*
X158750000Y-77343750D01*
X158613495Y-77207245D01*
X158642000Y-77063939D01*
X158642000Y-76860061D01*
X158602226Y-76660102D01*
X158524205Y-76471744D01*
X158410937Y-76302226D01*
X158306711Y-76198000D01*
X162753199Y-76198000D01*
X167128996Y-80573799D01*
G37*
%TD.AperFunction*%
D18*
X144622068Y-89333158D02*
X144734010Y-89603411D01*
X144896525Y-89846632D01*
X145103368Y-90053475D01*
X145277760Y-90170000D01*
X145103368Y-90286525D01*
X144896525Y-90493368D01*
X144734010Y-90736589D01*
X144670271Y-90890470D01*
X144157804Y-90378003D01*
X144134001Y-90348999D01*
X144018276Y-90254026D01*
X143886247Y-90183454D01*
X143742986Y-90139997D01*
X143631333Y-90129000D01*
X143631322Y-90129000D01*
X143594000Y-90125324D01*
X143556678Y-90129000D01*
X134009349Y-90129000D01*
X134094853Y-89922574D01*
X134150000Y-89645335D01*
X134150000Y-89362665D01*
X134094853Y-89085426D01*
X134078692Y-89046411D01*
X144565030Y-89046411D01*
X144622068Y-89333158D01*
%TA.AperFunction,Conductor*%
D19*
G36*
X144622068Y-89333158D02*
G01*
X144734010Y-89603411D01*
X144896525Y-89846632D01*
X145103368Y-90053475D01*
X145277760Y-90170000D01*
X145103368Y-90286525D01*
X144896525Y-90493368D01*
X144734010Y-90736589D01*
X144670271Y-90890470D01*
X144157804Y-90378003D01*
X144134001Y-90348999D01*
X144018276Y-90254026D01*
X143886247Y-90183454D01*
X143742986Y-90139997D01*
X143631333Y-90129000D01*
X143631322Y-90129000D01*
X143594000Y-90125324D01*
X143556678Y-90129000D01*
X134009349Y-90129000D01*
X134094853Y-89922574D01*
X134150000Y-89645335D01*
X134150000Y-89362665D01*
X134094853Y-89085426D01*
X134078692Y-89046411D01*
X144565030Y-89046411D01*
X144622068Y-89333158D01*
G37*
%TD.AperFunction*%
D18*
X152862000Y-83469250D02*
X153020750Y-83628000D01*
X153670000Y-83628000D01*
X153670000Y-83608000D01*
X153924000Y-83608000D01*
X153924000Y-83628000D01*
X153944000Y-83628000D01*
X153944000Y-83882000D01*
X153924000Y-83882000D01*
X153924000Y-85216250D01*
X154082750Y-85375000D01*
X154097000Y-85378072D01*
X154221482Y-85365812D01*
X154341180Y-85329502D01*
X154451494Y-85270537D01*
X154463085Y-85261025D01*
X154578379Y-85322651D01*
X154714960Y-85364082D01*
X154857000Y-85378072D01*
X155260673Y-85378072D01*
X157192473Y-87309873D01*
X157118379Y-87332349D01*
X156992505Y-87399630D01*
X156972000Y-87416458D01*
X156951495Y-87399630D01*
X156825621Y-87332349D01*
X156689040Y-87290918D01*
X156547000Y-87276928D01*
X156127000Y-87276928D01*
X155984960Y-87290918D01*
X155848379Y-87332349D01*
X155733085Y-87393975D01*
X155721494Y-87384463D01*
X155611180Y-87325498D01*
X155491482Y-87289188D01*
X155367000Y-87276928D01*
X155352750Y-87280000D01*
X155194000Y-87438750D01*
X155194000Y-88773000D01*
X155214000Y-88773000D01*
X155214000Y-89027000D01*
X155194000Y-89027000D01*
X155194000Y-89047000D01*
X154940000Y-89047000D01*
X154940000Y-89027000D01*
X154920000Y-89027000D01*
X154920000Y-88773000D01*
X154940000Y-88773000D01*
X154940000Y-87438750D01*
X154781250Y-87280000D01*
X154767000Y-87276928D01*
X154642518Y-87289188D01*
X154522820Y-87325498D01*
X154412506Y-87384463D01*
X154400915Y-87393975D01*
X154285621Y-87332349D01*
X154149040Y-87290918D01*
X154007000Y-87276928D01*
X153587000Y-87276928D01*
X153444960Y-87290918D01*
X153308379Y-87332349D01*
X153307871Y-87332621D01*
X153224250Y-87249000D01*
X152400000Y-87249000D01*
X152400000Y-87269000D01*
X152146000Y-87269000D01*
X152146000Y-87249000D01*
X151321750Y-87249000D01*
X151163000Y-87407750D01*
X151159928Y-87659500D01*
X151172188Y-87783982D01*
X151196765Y-87865000D01*
X151028061Y-87865000D01*
X150828102Y-87904774D01*
X150639744Y-87982795D01*
X150470226Y-88096063D01*
X150326063Y-88240226D01*
X150212795Y-88409744D01*
X150134774Y-88598102D01*
X150095000Y-88798061D01*
X150095000Y-89001939D01*
X150134774Y-89201898D01*
X150212795Y-89390256D01*
X150326063Y-89559774D01*
X150430289Y-89664000D01*
X150428802Y-89664000D01*
X147491209Y-86726408D01*
X147519436Y-86584500D01*
X151159928Y-86584500D01*
X151163000Y-86836250D01*
X151321750Y-86995000D01*
X152146000Y-86995000D01*
X152146000Y-86108250D01*
X152400000Y-86108250D01*
X152400000Y-86995000D01*
X153224250Y-86995000D01*
X153383000Y-86836250D01*
X153386072Y-86584500D01*
X153373812Y-86460018D01*
X153337502Y-86340320D01*
X153278537Y-86230006D01*
X153199185Y-86133315D01*
X153102494Y-86053963D01*
X152992180Y-85994998D01*
X152872482Y-85958688D01*
X152748000Y-85946428D01*
X152558750Y-85949500D01*
X152400000Y-86108250D01*
X152146000Y-86108250D01*
X151987250Y-85949500D01*
X151798000Y-85946428D01*
X151673518Y-85958688D01*
X151553820Y-85994998D01*
X151443506Y-86053963D01*
X151346815Y-86133315D01*
X151267463Y-86230006D01*
X151208498Y-86340320D01*
X151172188Y-86460018D01*
X151159928Y-86584500D01*
X147519436Y-86584500D01*
X147535000Y-86506260D01*
X147535000Y-86213740D01*
X147477932Y-85926842D01*
X147365990Y-85656589D01*
X147316312Y-85582241D01*
X148158553Y-84740000D01*
X152858928Y-84740000D01*
X152871188Y-84864482D01*
X152907498Y-84984180D01*
X152966463Y-85094494D01*
X153045815Y-85191185D01*
X153142506Y-85270537D01*
X153252820Y-85329502D01*
X153372518Y-85365812D01*
X153497000Y-85378072D01*
X153511250Y-85375000D01*
X153670000Y-85216250D01*
X153670000Y-83882000D01*
X153020750Y-83882000D01*
X152862000Y-84040750D01*
X152858928Y-84740000D01*
X148158553Y-84740000D01*
X149842554Y-83056000D01*
X152860184Y-83056000D01*
X152862000Y-83469250D01*
%TA.AperFunction,Conductor*%
D19*
G36*
X152862000Y-83469250D02*
G01*
X153020750Y-83628000D01*
X153670000Y-83628000D01*
X153670000Y-83608000D01*
X153924000Y-83608000D01*
X153924000Y-83628000D01*
X153944000Y-83628000D01*
X153944000Y-83882000D01*
X153924000Y-83882000D01*
X153924000Y-85216250D01*
X154082750Y-85375000D01*
X154097000Y-85378072D01*
X154221482Y-85365812D01*
X154341180Y-85329502D01*
X154451494Y-85270537D01*
X154463085Y-85261025D01*
X154578379Y-85322651D01*
X154714960Y-85364082D01*
X154857000Y-85378072D01*
X155260673Y-85378072D01*
X157192473Y-87309873D01*
X157118379Y-87332349D01*
X156992505Y-87399630D01*
X156972000Y-87416458D01*
X156951495Y-87399630D01*
X156825621Y-87332349D01*
X156689040Y-87290918D01*
X156547000Y-87276928D01*
X156127000Y-87276928D01*
X155984960Y-87290918D01*
X155848379Y-87332349D01*
X155733085Y-87393975D01*
X155721494Y-87384463D01*
X155611180Y-87325498D01*
X155491482Y-87289188D01*
X155367000Y-87276928D01*
X155352750Y-87280000D01*
X155194000Y-87438750D01*
X155194000Y-88773000D01*
X155214000Y-88773000D01*
X155214000Y-89027000D01*
X155194000Y-89027000D01*
X155194000Y-89047000D01*
X154940000Y-89047000D01*
X154940000Y-89027000D01*
X154920000Y-89027000D01*
X154920000Y-88773000D01*
X154940000Y-88773000D01*
X154940000Y-87438750D01*
X154781250Y-87280000D01*
X154767000Y-87276928D01*
X154642518Y-87289188D01*
X154522820Y-87325498D01*
X154412506Y-87384463D01*
X154400915Y-87393975D01*
X154285621Y-87332349D01*
X154149040Y-87290918D01*
X154007000Y-87276928D01*
X153587000Y-87276928D01*
X153444960Y-87290918D01*
X153308379Y-87332349D01*
X153307871Y-87332621D01*
X153224250Y-87249000D01*
X152400000Y-87249000D01*
X152400000Y-87269000D01*
X152146000Y-87269000D01*
X152146000Y-87249000D01*
X151321750Y-87249000D01*
X151163000Y-87407750D01*
X151159928Y-87659500D01*
X151172188Y-87783982D01*
X151196765Y-87865000D01*
X151028061Y-87865000D01*
X150828102Y-87904774D01*
X150639744Y-87982795D01*
X150470226Y-88096063D01*
X150326063Y-88240226D01*
X150212795Y-88409744D01*
X150134774Y-88598102D01*
X150095000Y-88798061D01*
X150095000Y-89001939D01*
X150134774Y-89201898D01*
X150212795Y-89390256D01*
X150326063Y-89559774D01*
X150430289Y-89664000D01*
X150428802Y-89664000D01*
X147491209Y-86726408D01*
X147519436Y-86584500D01*
X151159928Y-86584500D01*
X151163000Y-86836250D01*
X151321750Y-86995000D01*
X152146000Y-86995000D01*
X152146000Y-86108250D01*
X152400000Y-86108250D01*
X152400000Y-86995000D01*
X153224250Y-86995000D01*
X153383000Y-86836250D01*
X153386072Y-86584500D01*
X153373812Y-86460018D01*
X153337502Y-86340320D01*
X153278537Y-86230006D01*
X153199185Y-86133315D01*
X153102494Y-86053963D01*
X152992180Y-85994998D01*
X152872482Y-85958688D01*
X152748000Y-85946428D01*
X152558750Y-85949500D01*
X152400000Y-86108250D01*
X152146000Y-86108250D01*
X151987250Y-85949500D01*
X151798000Y-85946428D01*
X151673518Y-85958688D01*
X151553820Y-85994998D01*
X151443506Y-86053963D01*
X151346815Y-86133315D01*
X151267463Y-86230006D01*
X151208498Y-86340320D01*
X151172188Y-86460018D01*
X151159928Y-86584500D01*
X147519436Y-86584500D01*
X147535000Y-86506260D01*
X147535000Y-86213740D01*
X147477932Y-85926842D01*
X147365990Y-85656589D01*
X147316312Y-85582241D01*
X148158553Y-84740000D01*
X152858928Y-84740000D01*
X152871188Y-84864482D01*
X152907498Y-84984180D01*
X152966463Y-85094494D01*
X153045815Y-85191185D01*
X153142506Y-85270537D01*
X153252820Y-85329502D01*
X153372518Y-85365812D01*
X153497000Y-85378072D01*
X153511250Y-85375000D01*
X153670000Y-85216250D01*
X153670000Y-83882000D01*
X153020750Y-83882000D01*
X152862000Y-84040750D01*
X152858928Y-84740000D01*
X148158553Y-84740000D01*
X149842554Y-83056000D01*
X152860184Y-83056000D01*
X152862000Y-83469250D01*
G37*
%TD.AperFunction*%
D18*
X159004000Y-88773000D02*
X159024000Y-88773000D01*
X159024000Y-89027000D01*
X159004000Y-89027000D01*
X159004000Y-89047000D01*
X158944410Y-89047000D01*
X158944410Y-88753000D01*
X159004000Y-88753000D01*
X159004000Y-88773000D01*
%TA.AperFunction,Conductor*%
D19*
G36*
X159004000Y-88773000D02*
G01*
X159024000Y-88773000D01*
X159024000Y-89027000D01*
X159004000Y-89027000D01*
X159004000Y-89047000D01*
X158944410Y-89047000D01*
X158944410Y-88753000D01*
X159004000Y-88753000D01*
X159004000Y-88773000D01*
G37*
%TD.AperFunction*%
D18*
X158421727Y-82153528D02*
X158332820Y-82180498D01*
X158242000Y-82229043D01*
X158151180Y-82180498D01*
X158031482Y-82144188D01*
X157907000Y-82131928D01*
X157892750Y-82135000D01*
X157734000Y-82293750D01*
X157734000Y-83628000D01*
X158694410Y-83628000D01*
X158694410Y-83882000D01*
X157734000Y-83882000D01*
X157734000Y-85216250D01*
X157892750Y-85375000D01*
X157907000Y-85378072D01*
X158031482Y-85365812D01*
X158151180Y-85329502D01*
X158242000Y-85280957D01*
X158332820Y-85329502D01*
X158452518Y-85365812D01*
X158577000Y-85378072D01*
X158591250Y-85375000D01*
X158750000Y-85216250D01*
X158750000Y-85072781D01*
X158819436Y-85202686D01*
X158843986Y-85232600D01*
X158914409Y-85318411D01*
X158943412Y-85342213D01*
X159387001Y-85785803D01*
X159387000Y-87315130D01*
X159301482Y-87289188D01*
X159177000Y-87276928D01*
X159162750Y-87280000D01*
X159004002Y-87438748D01*
X159004002Y-87280000D01*
X158944410Y-87280000D01*
X158944410Y-87264330D01*
X158948086Y-87227007D01*
X158944410Y-87189684D01*
X158944410Y-87189675D01*
X158933413Y-87078022D01*
X158889956Y-86934761D01*
X158819384Y-86802732D01*
X158804011Y-86784000D01*
X158748209Y-86716004D01*
X158748205Y-86716000D01*
X158724411Y-86687007D01*
X158695418Y-86663213D01*
X157364227Y-85332023D01*
X157480000Y-85216250D01*
X157480000Y-83882000D01*
X157460000Y-83882000D01*
X157460000Y-83628000D01*
X157480000Y-83628000D01*
X157480000Y-82293750D01*
X157351029Y-82164779D01*
X157372000Y-82059349D01*
X157372000Y-82040000D01*
X158308199Y-82040000D01*
X158421727Y-82153528D01*
%TA.AperFunction,Conductor*%
D19*
G36*
X158421727Y-82153528D02*
G01*
X158332820Y-82180498D01*
X158242000Y-82229043D01*
X158151180Y-82180498D01*
X158031482Y-82144188D01*
X157907000Y-82131928D01*
X157892750Y-82135000D01*
X157734000Y-82293750D01*
X157734000Y-83628000D01*
X158694410Y-83628000D01*
X158694410Y-83882000D01*
X157734000Y-83882000D01*
X157734000Y-85216250D01*
X157892750Y-85375000D01*
X157907000Y-85378072D01*
X158031482Y-85365812D01*
X158151180Y-85329502D01*
X158242000Y-85280957D01*
X158332820Y-85329502D01*
X158452518Y-85365812D01*
X158577000Y-85378072D01*
X158591250Y-85375000D01*
X158750000Y-85216250D01*
X158750000Y-85072781D01*
X158819436Y-85202686D01*
X158843986Y-85232600D01*
X158914409Y-85318411D01*
X158943412Y-85342213D01*
X159387001Y-85785803D01*
X159387000Y-87315130D01*
X159301482Y-87289188D01*
X159177000Y-87276928D01*
X159162750Y-87280000D01*
X159004002Y-87438748D01*
X159004002Y-87280000D01*
X158944410Y-87280000D01*
X158944410Y-87264330D01*
X158948086Y-87227007D01*
X158944410Y-87189684D01*
X158944410Y-87189675D01*
X158933413Y-87078022D01*
X158889956Y-86934761D01*
X158819384Y-86802732D01*
X158804011Y-86784000D01*
X158748209Y-86716004D01*
X158748205Y-86716000D01*
X158724411Y-86687007D01*
X158695418Y-86663213D01*
X157364227Y-85332023D01*
X157480000Y-85216250D01*
X157480000Y-83882000D01*
X157460000Y-83882000D01*
X157460000Y-83628000D01*
X157480000Y-83628000D01*
X157480000Y-82293750D01*
X157351029Y-82164779D01*
X157372000Y-82059349D01*
X157372000Y-82040000D01*
X158308199Y-82040000D01*
X158421727Y-82153528D01*
G37*
%TD.AperFunction*%
D18*
X144622068Y-83386842D02*
X144565000Y-83673740D01*
X144565000Y-83966260D01*
X144622068Y-84253158D01*
X144734010Y-84523411D01*
X144852596Y-84700888D01*
X144835602Y-84721596D01*
X142433199Y-87124000D01*
X134100537Y-87124000D01*
X134150000Y-86875335D01*
X134150000Y-86592665D01*
X134094853Y-86315426D01*
X133986680Y-86054273D01*
X133829637Y-85819241D01*
X133629759Y-85619363D01*
X133394727Y-85462320D01*
X133133574Y-85354147D01*
X133107699Y-85349000D01*
X133133574Y-85343853D01*
X133394727Y-85235680D01*
X133629759Y-85078637D01*
X133829637Y-84878759D01*
X133986680Y-84643727D01*
X134094853Y-84382574D01*
X134150000Y-84105335D01*
X134150000Y-83822665D01*
X134094853Y-83545426D01*
X133997336Y-83310000D01*
X144653897Y-83310000D01*
X144622068Y-83386842D01*
%TA.AperFunction,Conductor*%
D19*
G36*
X144622068Y-83386842D02*
G01*
X144565000Y-83673740D01*
X144565000Y-83966260D01*
X144622068Y-84253158D01*
X144734010Y-84523411D01*
X144852596Y-84700888D01*
X144835602Y-84721596D01*
X142433199Y-87124000D01*
X134100537Y-87124000D01*
X134150000Y-86875335D01*
X134150000Y-86592665D01*
X134094853Y-86315426D01*
X133986680Y-86054273D01*
X133829637Y-85819241D01*
X133629759Y-85619363D01*
X133394727Y-85462320D01*
X133133574Y-85354147D01*
X133107699Y-85349000D01*
X133133574Y-85343853D01*
X133394727Y-85235680D01*
X133629759Y-85078637D01*
X133829637Y-84878759D01*
X133986680Y-84643727D01*
X134094853Y-84382574D01*
X134150000Y-84105335D01*
X134150000Y-83822665D01*
X134094853Y-83545426D01*
X133997336Y-83310000D01*
X144653897Y-83310000D01*
X144622068Y-83386842D01*
G37*
%TD.AperFunction*%
D18*
X144622068Y-80846842D02*
X144565000Y-81133740D01*
X144565000Y-81426260D01*
X144622068Y-81713158D01*
X144653897Y-81790000D01*
X134021361Y-81790000D01*
X134094853Y-81612574D01*
X134150000Y-81335335D01*
X134150000Y-81052665D01*
X134098033Y-80791411D01*
X144645028Y-80791411D01*
X144622068Y-80846842D01*
%TA.AperFunction,Conductor*%
D19*
G36*
X144622068Y-80846842D02*
G01*
X144565000Y-81133740D01*
X144565000Y-81426260D01*
X144622068Y-81713158D01*
X144653897Y-81790000D01*
X134021361Y-81790000D01*
X134094853Y-81612574D01*
X134150000Y-81335335D01*
X134150000Y-81052665D01*
X134098033Y-80791411D01*
X144645028Y-80791411D01*
X144622068Y-80846842D01*
G37*
%TD.AperFunction*%
D18*
X154656001Y-71811803D02*
X154578379Y-71835349D01*
X154463085Y-71896975D01*
X154451494Y-71887463D01*
X154341180Y-71828498D01*
X154221482Y-71792188D01*
X154097000Y-71779928D01*
X154082750Y-71783000D01*
X153924000Y-71941750D01*
X153924000Y-73276000D01*
X153944000Y-73276000D01*
X153944000Y-73530000D01*
X153924000Y-73530000D01*
X153924000Y-74864250D01*
X154082750Y-75023000D01*
X154097000Y-75026072D01*
X154221482Y-75013812D01*
X154341180Y-74977502D01*
X154451494Y-74918537D01*
X154463085Y-74909025D01*
X154570798Y-74966599D01*
X155553200Y-75949002D01*
X155576999Y-75978001D01*
X155692724Y-76072974D01*
X155824753Y-76143546D01*
X155968014Y-76187003D01*
X156079667Y-76198000D01*
X156079676Y-76198000D01*
X156116999Y-76201676D01*
X156154322Y-76198000D01*
X156907289Y-76198000D01*
X156803063Y-76302226D01*
X156689795Y-76471744D01*
X156611774Y-76660102D01*
X156572000Y-76860061D01*
X156572000Y-77063939D01*
X156596438Y-77186797D01*
X156547000Y-77181928D01*
X156127000Y-77181928D01*
X155984960Y-77195918D01*
X155848379Y-77237349D01*
X155733085Y-77298975D01*
X155721494Y-77289463D01*
X155611180Y-77230498D01*
X155491482Y-77194188D01*
X155367000Y-77181928D01*
X155352750Y-77185000D01*
X155194000Y-77343750D01*
X155194000Y-78678000D01*
X155214000Y-78678000D01*
X155214000Y-78932000D01*
X155194000Y-78932000D01*
X155194000Y-78952000D01*
X154940000Y-78952000D01*
X154940000Y-78932000D01*
X154920000Y-78932000D01*
X154920000Y-78678000D01*
X154940000Y-78678000D01*
X154940000Y-77343750D01*
X154781250Y-77185000D01*
X154767000Y-77181928D01*
X154642518Y-77194188D01*
X154522820Y-77230498D01*
X154412506Y-77289463D01*
X154400915Y-77298975D01*
X154285621Y-77237349D01*
X154149040Y-77195918D01*
X154007000Y-77181928D01*
X153587000Y-77181928D01*
X153444960Y-77195918D01*
X153316988Y-77234738D01*
X153224250Y-77142000D01*
X152400000Y-77142000D01*
X152400000Y-77162000D01*
X152146000Y-77162000D01*
X152146000Y-77142000D01*
X151321750Y-77142000D01*
X151163000Y-77300750D01*
X151159928Y-77552500D01*
X151172188Y-77676982D01*
X151180687Y-77705000D01*
X151028061Y-77705000D01*
X150828102Y-77744774D01*
X150639744Y-77822795D01*
X150470226Y-77936063D01*
X150326063Y-78080226D01*
X150212795Y-78249744D01*
X150134774Y-78438102D01*
X150095000Y-78638061D01*
X150095000Y-78841939D01*
X150134774Y-79041898D01*
X150212795Y-79230256D01*
X150326063Y-79399774D01*
X150430289Y-79504000D01*
X149675579Y-79504000D01*
X147249431Y-77077853D01*
X147365990Y-76903411D01*
X147477932Y-76633158D01*
X147508894Y-76477500D01*
X151159928Y-76477500D01*
X151163000Y-76729250D01*
X151321750Y-76888000D01*
X152146000Y-76888000D01*
X152146000Y-76001250D01*
X152400000Y-76001250D01*
X152400000Y-76888000D01*
X153224250Y-76888000D01*
X153383000Y-76729250D01*
X153386072Y-76477500D01*
X153373812Y-76353018D01*
X153337502Y-76233320D01*
X153278537Y-76123006D01*
X153199185Y-76026315D01*
X153102494Y-75946963D01*
X152992180Y-75887998D01*
X152872482Y-75851688D01*
X152748000Y-75839428D01*
X152558750Y-75842500D01*
X152400000Y-76001250D01*
X152146000Y-76001250D01*
X151987250Y-75842500D01*
X151798000Y-75839428D01*
X151673518Y-75851688D01*
X151553820Y-75887998D01*
X151443506Y-75946963D01*
X151346815Y-76026315D01*
X151267463Y-76123006D01*
X151208498Y-76233320D01*
X151172188Y-76353018D01*
X151159928Y-76477500D01*
X147508894Y-76477500D01*
X147535000Y-76346260D01*
X147535000Y-76053740D01*
X147477932Y-75766842D01*
X147365990Y-75496589D01*
X147245916Y-75316885D01*
X148174801Y-74388000D01*
X152858928Y-74388000D01*
X152871188Y-74512482D01*
X152907498Y-74632180D01*
X152966463Y-74742494D01*
X153045815Y-74839185D01*
X153142506Y-74918537D01*
X153252820Y-74977502D01*
X153372518Y-75013812D01*
X153497000Y-75026072D01*
X153511250Y-75023000D01*
X153670000Y-74864250D01*
X153670000Y-73530000D01*
X153020750Y-73530000D01*
X152862000Y-73688750D01*
X152858928Y-74388000D01*
X148174801Y-74388000D01*
X150144801Y-72418000D01*
X152858928Y-72418000D01*
X152862000Y-73117250D01*
X153020750Y-73276000D01*
X153670000Y-73276000D01*
X153670000Y-71941750D01*
X153511250Y-71783000D01*
X153497000Y-71779928D01*
X153372518Y-71792188D01*
X153252820Y-71828498D01*
X153142506Y-71887463D01*
X153045815Y-71966815D01*
X152966463Y-72063506D01*
X152907498Y-72173820D01*
X152871188Y-72293518D01*
X152858928Y-72418000D01*
X150144801Y-72418000D01*
X150809802Y-71753000D01*
X154597199Y-71753000D01*
X154656001Y-71811803D01*
%TA.AperFunction,Conductor*%
D19*
G36*
X154656001Y-71811803D02*
G01*
X154578379Y-71835349D01*
X154463085Y-71896975D01*
X154451494Y-71887463D01*
X154341180Y-71828498D01*
X154221482Y-71792188D01*
X154097000Y-71779928D01*
X154082750Y-71783000D01*
X153924000Y-71941750D01*
X153924000Y-73276000D01*
X153944000Y-73276000D01*
X153944000Y-73530000D01*
X153924000Y-73530000D01*
X153924000Y-74864250D01*
X154082750Y-75023000D01*
X154097000Y-75026072D01*
X154221482Y-75013812D01*
X154341180Y-74977502D01*
X154451494Y-74918537D01*
X154463085Y-74909025D01*
X154570798Y-74966599D01*
X155553200Y-75949002D01*
X155576999Y-75978001D01*
X155692724Y-76072974D01*
X155824753Y-76143546D01*
X155968014Y-76187003D01*
X156079667Y-76198000D01*
X156079676Y-76198000D01*
X156116999Y-76201676D01*
X156154322Y-76198000D01*
X156907289Y-76198000D01*
X156803063Y-76302226D01*
X156689795Y-76471744D01*
X156611774Y-76660102D01*
X156572000Y-76860061D01*
X156572000Y-77063939D01*
X156596438Y-77186797D01*
X156547000Y-77181928D01*
X156127000Y-77181928D01*
X155984960Y-77195918D01*
X155848379Y-77237349D01*
X155733085Y-77298975D01*
X155721494Y-77289463D01*
X155611180Y-77230498D01*
X155491482Y-77194188D01*
X155367000Y-77181928D01*
X155352750Y-77185000D01*
X155194000Y-77343750D01*
X155194000Y-78678000D01*
X155214000Y-78678000D01*
X155214000Y-78932000D01*
X155194000Y-78932000D01*
X155194000Y-78952000D01*
X154940000Y-78952000D01*
X154940000Y-78932000D01*
X154920000Y-78932000D01*
X154920000Y-78678000D01*
X154940000Y-78678000D01*
X154940000Y-77343750D01*
X154781250Y-77185000D01*
X154767000Y-77181928D01*
X154642518Y-77194188D01*
X154522820Y-77230498D01*
X154412506Y-77289463D01*
X154400915Y-77298975D01*
X154285621Y-77237349D01*
X154149040Y-77195918D01*
X154007000Y-77181928D01*
X153587000Y-77181928D01*
X153444960Y-77195918D01*
X153316988Y-77234738D01*
X153224250Y-77142000D01*
X152400000Y-77142000D01*
X152400000Y-77162000D01*
X152146000Y-77162000D01*
X152146000Y-77142000D01*
X151321750Y-77142000D01*
X151163000Y-77300750D01*
X151159928Y-77552500D01*
X151172188Y-77676982D01*
X151180687Y-77705000D01*
X151028061Y-77705000D01*
X150828102Y-77744774D01*
X150639744Y-77822795D01*
X150470226Y-77936063D01*
X150326063Y-78080226D01*
X150212795Y-78249744D01*
X150134774Y-78438102D01*
X150095000Y-78638061D01*
X150095000Y-78841939D01*
X150134774Y-79041898D01*
X150212795Y-79230256D01*
X150326063Y-79399774D01*
X150430289Y-79504000D01*
X149675579Y-79504000D01*
X147249431Y-77077853D01*
X147365990Y-76903411D01*
X147477932Y-76633158D01*
X147508894Y-76477500D01*
X151159928Y-76477500D01*
X151163000Y-76729250D01*
X151321750Y-76888000D01*
X152146000Y-76888000D01*
X152146000Y-76001250D01*
X152400000Y-76001250D01*
X152400000Y-76888000D01*
X153224250Y-76888000D01*
X153383000Y-76729250D01*
X153386072Y-76477500D01*
X153373812Y-76353018D01*
X153337502Y-76233320D01*
X153278537Y-76123006D01*
X153199185Y-76026315D01*
X153102494Y-75946963D01*
X152992180Y-75887998D01*
X152872482Y-75851688D01*
X152748000Y-75839428D01*
X152558750Y-75842500D01*
X152400000Y-76001250D01*
X152146000Y-76001250D01*
X151987250Y-75842500D01*
X151798000Y-75839428D01*
X151673518Y-75851688D01*
X151553820Y-75887998D01*
X151443506Y-75946963D01*
X151346815Y-76026315D01*
X151267463Y-76123006D01*
X151208498Y-76233320D01*
X151172188Y-76353018D01*
X151159928Y-76477500D01*
X147508894Y-76477500D01*
X147535000Y-76346260D01*
X147535000Y-76053740D01*
X147477932Y-75766842D01*
X147365990Y-75496589D01*
X147245916Y-75316885D01*
X148174801Y-74388000D01*
X152858928Y-74388000D01*
X152871188Y-74512482D01*
X152907498Y-74632180D01*
X152966463Y-74742494D01*
X153045815Y-74839185D01*
X153142506Y-74918537D01*
X153252820Y-74977502D01*
X153372518Y-75013812D01*
X153497000Y-75026072D01*
X153511250Y-75023000D01*
X153670000Y-74864250D01*
X153670000Y-73530000D01*
X153020750Y-73530000D01*
X152862000Y-73688750D01*
X152858928Y-74388000D01*
X148174801Y-74388000D01*
X150144801Y-72418000D01*
X152858928Y-72418000D01*
X152862000Y-73117250D01*
X153020750Y-73276000D01*
X153670000Y-73276000D01*
X153670000Y-71941750D01*
X153511250Y-71783000D01*
X153497000Y-71779928D01*
X153372518Y-71792188D01*
X153252820Y-71828498D01*
X153142506Y-71887463D01*
X153045815Y-71966815D01*
X152966463Y-72063506D01*
X152907498Y-72173820D01*
X152871188Y-72293518D01*
X152858928Y-72418000D01*
X150144801Y-72418000D01*
X150809802Y-71753000D01*
X154597199Y-71753000D01*
X154656001Y-71811803D01*
G37*
%TD.AperFunction*%
D18*
X144734010Y-74363411D02*
X144803215Y-74466983D01*
X141606199Y-77664000D01*
X133933043Y-77664000D01*
X133829637Y-77509241D01*
X133629759Y-77309363D01*
X133394727Y-77152320D01*
X133133574Y-77044147D01*
X133107699Y-77039000D01*
X133133574Y-77033853D01*
X133394727Y-76925680D01*
X133629759Y-76768637D01*
X133829637Y-76568759D01*
X133933043Y-76414000D01*
X142113678Y-76414000D01*
X142151000Y-76417676D01*
X142188322Y-76414000D01*
X142188333Y-76414000D01*
X142299986Y-76403003D01*
X142443247Y-76359546D01*
X142575276Y-76288974D01*
X142691001Y-76194001D01*
X142714804Y-76164997D01*
X144670271Y-74209531D01*
X144734010Y-74363411D01*
%TA.AperFunction,Conductor*%
D19*
G36*
X144734010Y-74363411D02*
G01*
X144803215Y-74466983D01*
X141606199Y-77664000D01*
X133933043Y-77664000D01*
X133829637Y-77509241D01*
X133629759Y-77309363D01*
X133394727Y-77152320D01*
X133133574Y-77044147D01*
X133107699Y-77039000D01*
X133133574Y-77033853D01*
X133394727Y-76925680D01*
X133629759Y-76768637D01*
X133829637Y-76568759D01*
X133933043Y-76414000D01*
X142113678Y-76414000D01*
X142151000Y-76417676D01*
X142188322Y-76414000D01*
X142188333Y-76414000D01*
X142299986Y-76403003D01*
X142443247Y-76359546D01*
X142575276Y-76288974D01*
X142691001Y-76194001D01*
X142714804Y-76164997D01*
X144670271Y-74209531D01*
X144734010Y-74363411D01*
G37*
%TD.AperFunction*%
D18*
X167468791Y-68213592D02*
X167425000Y-68433740D01*
X167425000Y-68726260D01*
X167482068Y-69013158D01*
X167594010Y-69283411D01*
X167756525Y-69526632D01*
X167963368Y-69733475D01*
X168137760Y-69850000D01*
X167963368Y-69966525D01*
X167756525Y-70173368D01*
X167594010Y-70416589D01*
X167482068Y-70686842D01*
X167425000Y-70973740D01*
X167425000Y-71266260D01*
X167482068Y-71553158D01*
X167594010Y-71823411D01*
X167756525Y-72066632D01*
X167963368Y-72273475D01*
X168137760Y-72390000D01*
X167963368Y-72506525D01*
X167756525Y-72713368D01*
X167594010Y-72956589D01*
X167482068Y-73226842D01*
X167425000Y-73513740D01*
X167425000Y-73806260D01*
X167482068Y-74093158D01*
X167594010Y-74363411D01*
X167756525Y-74606632D01*
X167963368Y-74813475D01*
X168137760Y-74930000D01*
X167963368Y-75046525D01*
X167756525Y-75253368D01*
X167631822Y-75440000D01*
X164906802Y-75440000D01*
X163885804Y-74419003D01*
X163862001Y-74389999D01*
X163746276Y-74295026D01*
X163614247Y-74224454D01*
X163470986Y-74180997D01*
X163359333Y-74170000D01*
X163359322Y-74170000D01*
X163322000Y-74166324D01*
X163284678Y-74170000D01*
X162354114Y-74170000D01*
X162352000Y-73688750D01*
X162193250Y-73530000D01*
X161544000Y-73530000D01*
X161544000Y-73550000D01*
X161290000Y-73550000D01*
X161290000Y-73530000D01*
X161270000Y-73530000D01*
X161270000Y-73276000D01*
X161290000Y-73276000D01*
X161290000Y-71941750D01*
X161544000Y-71941750D01*
X161544000Y-73276000D01*
X162193250Y-73276000D01*
X162352000Y-73117250D01*
X162355072Y-72418000D01*
X162342812Y-72293518D01*
X162306502Y-72173820D01*
X162247537Y-72063506D01*
X162168185Y-71966815D01*
X162071494Y-71887463D01*
X161961180Y-71828498D01*
X161841482Y-71792188D01*
X161717000Y-71779928D01*
X161702750Y-71783000D01*
X161544000Y-71941750D01*
X161290000Y-71941750D01*
X161131250Y-71783000D01*
X161117000Y-71779928D01*
X160992518Y-71792188D01*
X160872820Y-71828498D01*
X160850709Y-71840317D01*
X160781974Y-71711724D01*
X160687001Y-71595999D01*
X160658003Y-71572201D01*
X159695801Y-70610000D01*
X160967678Y-70610000D01*
X161005000Y-70613676D01*
X161042322Y-70610000D01*
X161042333Y-70610000D01*
X161153986Y-70599003D01*
X161297247Y-70555546D01*
X161429276Y-70484974D01*
X161545001Y-70390001D01*
X161568804Y-70360997D01*
X161913202Y-70016599D01*
X162031495Y-69953370D01*
X162141825Y-69862825D01*
X162232370Y-69752495D01*
X162299651Y-69626621D01*
X162341082Y-69490040D01*
X162355072Y-69348000D01*
X162355072Y-67689000D01*
X166944199Y-67689000D01*
X167468791Y-68213592D01*
%TA.AperFunction,Conductor*%
D19*
G36*
X167468791Y-68213592D02*
G01*
X167425000Y-68433740D01*
X167425000Y-68726260D01*
X167482068Y-69013158D01*
X167594010Y-69283411D01*
X167756525Y-69526632D01*
X167963368Y-69733475D01*
X168137760Y-69850000D01*
X167963368Y-69966525D01*
X167756525Y-70173368D01*
X167594010Y-70416589D01*
X167482068Y-70686842D01*
X167425000Y-70973740D01*
X167425000Y-71266260D01*
X167482068Y-71553158D01*
X167594010Y-71823411D01*
X167756525Y-72066632D01*
X167963368Y-72273475D01*
X168137760Y-72390000D01*
X167963368Y-72506525D01*
X167756525Y-72713368D01*
X167594010Y-72956589D01*
X167482068Y-73226842D01*
X167425000Y-73513740D01*
X167425000Y-73806260D01*
X167482068Y-74093158D01*
X167594010Y-74363411D01*
X167756525Y-74606632D01*
X167963368Y-74813475D01*
X168137760Y-74930000D01*
X167963368Y-75046525D01*
X167756525Y-75253368D01*
X167631822Y-75440000D01*
X164906802Y-75440000D01*
X163885804Y-74419003D01*
X163862001Y-74389999D01*
X163746276Y-74295026D01*
X163614247Y-74224454D01*
X163470986Y-74180997D01*
X163359333Y-74170000D01*
X163359322Y-74170000D01*
X163322000Y-74166324D01*
X163284678Y-74170000D01*
X162354114Y-74170000D01*
X162352000Y-73688750D01*
X162193250Y-73530000D01*
X161544000Y-73530000D01*
X161544000Y-73550000D01*
X161290000Y-73550000D01*
X161290000Y-73530000D01*
X161270000Y-73530000D01*
X161270000Y-73276000D01*
X161290000Y-73276000D01*
X161290000Y-71941750D01*
X161544000Y-71941750D01*
X161544000Y-73276000D01*
X162193250Y-73276000D01*
X162352000Y-73117250D01*
X162355072Y-72418000D01*
X162342812Y-72293518D01*
X162306502Y-72173820D01*
X162247537Y-72063506D01*
X162168185Y-71966815D01*
X162071494Y-71887463D01*
X161961180Y-71828498D01*
X161841482Y-71792188D01*
X161717000Y-71779928D01*
X161702750Y-71783000D01*
X161544000Y-71941750D01*
X161290000Y-71941750D01*
X161131250Y-71783000D01*
X161117000Y-71779928D01*
X160992518Y-71792188D01*
X160872820Y-71828498D01*
X160850709Y-71840317D01*
X160781974Y-71711724D01*
X160687001Y-71595999D01*
X160658003Y-71572201D01*
X159695801Y-70610000D01*
X160967678Y-70610000D01*
X161005000Y-70613676D01*
X161042322Y-70610000D01*
X161042333Y-70610000D01*
X161153986Y-70599003D01*
X161297247Y-70555546D01*
X161429276Y-70484974D01*
X161545001Y-70390001D01*
X161568804Y-70360997D01*
X161913202Y-70016599D01*
X162031495Y-69953370D01*
X162141825Y-69862825D01*
X162232370Y-69752495D01*
X162299651Y-69626621D01*
X162341082Y-69490040D01*
X162355072Y-69348000D01*
X162355072Y-67689000D01*
X166944199Y-67689000D01*
X167468791Y-68213592D01*
G37*
%TD.AperFunction*%
D18*
X144734010Y-71823411D02*
X144803215Y-71926983D01*
X141836199Y-74894000D01*
X133933043Y-74894000D01*
X133829637Y-74739241D01*
X133629759Y-74539363D01*
X133394727Y-74382320D01*
X133133574Y-74274147D01*
X133107699Y-74269000D01*
X133133574Y-74263853D01*
X133394727Y-74155680D01*
X133629759Y-73998637D01*
X133829637Y-73798759D01*
X133933043Y-73644000D01*
X142343678Y-73644000D01*
X142381000Y-73647676D01*
X142418322Y-73644000D01*
X142418333Y-73644000D01*
X142529986Y-73633003D01*
X142673247Y-73589546D01*
X142805276Y-73518974D01*
X142921001Y-73424001D01*
X142944804Y-73394997D01*
X144670271Y-71669531D01*
X144734010Y-71823411D01*
%TA.AperFunction,Conductor*%
D19*
G36*
X144734010Y-71823411D02*
G01*
X144803215Y-71926983D01*
X141836199Y-74894000D01*
X133933043Y-74894000D01*
X133829637Y-74739241D01*
X133629759Y-74539363D01*
X133394727Y-74382320D01*
X133133574Y-74274147D01*
X133107699Y-74269000D01*
X133133574Y-74263853D01*
X133394727Y-74155680D01*
X133629759Y-73998637D01*
X133829637Y-73798759D01*
X133933043Y-73644000D01*
X142343678Y-73644000D01*
X142381000Y-73647676D01*
X142418322Y-73644000D01*
X142418333Y-73644000D01*
X142529986Y-73633003D01*
X142673247Y-73589546D01*
X142805276Y-73518974D01*
X142921001Y-73424001D01*
X142944804Y-73394997D01*
X144670271Y-71669531D01*
X144734010Y-71823411D01*
G37*
%TD.AperFunction*%
D18*
X158716127Y-71779928D02*
X158667000Y-71779928D01*
X158524960Y-71793918D01*
X158388379Y-71835349D01*
X158273085Y-71896975D01*
X158261494Y-71887463D01*
X158151180Y-71828498D01*
X158031482Y-71792188D01*
X157907000Y-71779928D01*
X157892750Y-71783000D01*
X157734000Y-71941750D01*
X157734000Y-73276000D01*
X157754000Y-73276000D01*
X157754000Y-73530000D01*
X157734000Y-73530000D01*
X157734000Y-73550000D01*
X157480000Y-73550000D01*
X157480000Y-73530000D01*
X157460000Y-73530000D01*
X157460000Y-73276000D01*
X157480000Y-73276000D01*
X157480000Y-71941750D01*
X157321250Y-71783000D01*
X157307000Y-71779928D01*
X157182518Y-71792188D01*
X157062820Y-71828498D01*
X156952506Y-71887463D01*
X156940915Y-71896975D01*
X156833204Y-71839402D01*
X156111801Y-71118000D01*
X158054199Y-71118000D01*
X158716127Y-71779928D01*
%TA.AperFunction,Conductor*%
D19*
G36*
X158716127Y-71779928D02*
G01*
X158667000Y-71779928D01*
X158524960Y-71793918D01*
X158388379Y-71835349D01*
X158273085Y-71896975D01*
X158261494Y-71887463D01*
X158151180Y-71828498D01*
X158031482Y-71792188D01*
X157907000Y-71779928D01*
X157892750Y-71783000D01*
X157734000Y-71941750D01*
X157734000Y-73276000D01*
X157754000Y-73276000D01*
X157754000Y-73530000D01*
X157734000Y-73530000D01*
X157734000Y-73550000D01*
X157480000Y-73550000D01*
X157480000Y-73530000D01*
X157460000Y-73530000D01*
X157460000Y-73276000D01*
X157480000Y-73276000D01*
X157480000Y-71941750D01*
X157321250Y-71783000D01*
X157307000Y-71779928D01*
X157182518Y-71792188D01*
X157062820Y-71828498D01*
X156952506Y-71887463D01*
X156940915Y-71896975D01*
X156833204Y-71839402D01*
X156111801Y-71118000D01*
X158054199Y-71118000D01*
X158716127Y-71779928D01*
G37*
%TD.AperFunction*%
D18*
X144734010Y-69283411D02*
X144803215Y-69386983D01*
X142066199Y-72124000D01*
X133933043Y-72124000D01*
X133829637Y-71969241D01*
X133629759Y-71769363D01*
X133394727Y-71612320D01*
X133133574Y-71504147D01*
X133107699Y-71499000D01*
X133133574Y-71493853D01*
X133394727Y-71385680D01*
X133629759Y-71228637D01*
X133829637Y-71028759D01*
X133933043Y-70874000D01*
X142573678Y-70874000D01*
X142611000Y-70877676D01*
X142648322Y-70874000D01*
X142648333Y-70874000D01*
X142759986Y-70863003D01*
X142903247Y-70819546D01*
X143035276Y-70748974D01*
X143151001Y-70654001D01*
X143174804Y-70624997D01*
X144670271Y-69129531D01*
X144734010Y-69283411D01*
%TA.AperFunction,Conductor*%
D19*
G36*
X144734010Y-69283411D02*
G01*
X144803215Y-69386983D01*
X142066199Y-72124000D01*
X133933043Y-72124000D01*
X133829637Y-71969241D01*
X133629759Y-71769363D01*
X133394727Y-71612320D01*
X133133574Y-71504147D01*
X133107699Y-71499000D01*
X133133574Y-71493853D01*
X133394727Y-71385680D01*
X133629759Y-71228637D01*
X133829637Y-71028759D01*
X133933043Y-70874000D01*
X142573678Y-70874000D01*
X142611000Y-70877676D01*
X142648322Y-70874000D01*
X142648333Y-70874000D01*
X142759986Y-70863003D01*
X142903247Y-70819546D01*
X143035276Y-70748974D01*
X143151001Y-70654001D01*
X143174804Y-70624997D01*
X144670271Y-69129531D01*
X144734010Y-69283411D01*
G37*
%TD.AperFunction*%
D18*
X151163000Y-66442250D02*
X151321750Y-66601000D01*
X152146000Y-66601000D01*
X152146000Y-66581000D01*
X152400000Y-66581000D01*
X152400000Y-66601000D01*
X153224250Y-66601000D01*
X153383000Y-66442250D01*
X153384833Y-66292000D01*
X155375368Y-66292000D01*
X155341774Y-66373102D01*
X155302000Y-66573061D01*
X155302000Y-66776939D01*
X155319721Y-66866029D01*
X155194000Y-66991750D01*
X155194000Y-68326000D01*
X155214000Y-68326000D01*
X155214000Y-68580000D01*
X155194000Y-68580000D01*
X155194000Y-68600000D01*
X154940000Y-68600000D01*
X154940000Y-68580000D01*
X154920000Y-68580000D01*
X154920000Y-68326000D01*
X154940000Y-68326000D01*
X154940000Y-66991750D01*
X154781250Y-66833000D01*
X154767000Y-66829928D01*
X154642518Y-66842188D01*
X154522820Y-66878498D01*
X154412506Y-66937463D01*
X154400915Y-66946975D01*
X154285621Y-66885349D01*
X154149040Y-66843918D01*
X154007000Y-66829928D01*
X153587000Y-66829928D01*
X153444960Y-66843918D01*
X153308379Y-66885349D01*
X153273332Y-66904082D01*
X153224250Y-66855000D01*
X152400000Y-66855000D01*
X152400000Y-66875000D01*
X152146000Y-66875000D01*
X152146000Y-66855000D01*
X151321750Y-66855000D01*
X151163000Y-67013750D01*
X151159928Y-67265500D01*
X151172188Y-67389982D01*
X151180687Y-67418000D01*
X151028061Y-67418000D01*
X150828102Y-67457774D01*
X150639744Y-67535795D01*
X150470226Y-67649063D01*
X150326063Y-67793226D01*
X150212795Y-67962744D01*
X150134774Y-68151102D01*
X150095000Y-68351061D01*
X150095000Y-68554939D01*
X150134774Y-68754898D01*
X150212795Y-68943256D01*
X150310846Y-69090000D01*
X147446103Y-69090000D01*
X147477932Y-69013158D01*
X147535000Y-68726260D01*
X147535000Y-68433740D01*
X147477932Y-68146842D01*
X147365990Y-67876589D01*
X147203475Y-67633368D01*
X147201731Y-67631624D01*
X148541356Y-66292000D01*
X151161167Y-66292000D01*
X151163000Y-66442250D01*
%TA.AperFunction,Conductor*%
D19*
G36*
X151163000Y-66442250D02*
G01*
X151321750Y-66601000D01*
X152146000Y-66601000D01*
X152146000Y-66581000D01*
X152400000Y-66581000D01*
X152400000Y-66601000D01*
X153224250Y-66601000D01*
X153383000Y-66442250D01*
X153384833Y-66292000D01*
X155375368Y-66292000D01*
X155341774Y-66373102D01*
X155302000Y-66573061D01*
X155302000Y-66776939D01*
X155319721Y-66866029D01*
X155194000Y-66991750D01*
X155194000Y-68326000D01*
X155214000Y-68326000D01*
X155214000Y-68580000D01*
X155194000Y-68580000D01*
X155194000Y-68600000D01*
X154940000Y-68600000D01*
X154940000Y-68580000D01*
X154920000Y-68580000D01*
X154920000Y-68326000D01*
X154940000Y-68326000D01*
X154940000Y-66991750D01*
X154781250Y-66833000D01*
X154767000Y-66829928D01*
X154642518Y-66842188D01*
X154522820Y-66878498D01*
X154412506Y-66937463D01*
X154400915Y-66946975D01*
X154285621Y-66885349D01*
X154149040Y-66843918D01*
X154007000Y-66829928D01*
X153587000Y-66829928D01*
X153444960Y-66843918D01*
X153308379Y-66885349D01*
X153273332Y-66904082D01*
X153224250Y-66855000D01*
X152400000Y-66855000D01*
X152400000Y-66875000D01*
X152146000Y-66875000D01*
X152146000Y-66855000D01*
X151321750Y-66855000D01*
X151163000Y-67013750D01*
X151159928Y-67265500D01*
X151172188Y-67389982D01*
X151180687Y-67418000D01*
X151028061Y-67418000D01*
X150828102Y-67457774D01*
X150639744Y-67535795D01*
X150470226Y-67649063D01*
X150326063Y-67793226D01*
X150212795Y-67962744D01*
X150134774Y-68151102D01*
X150095000Y-68351061D01*
X150095000Y-68554939D01*
X150134774Y-68754898D01*
X150212795Y-68943256D01*
X150310846Y-69090000D01*
X147446103Y-69090000D01*
X147477932Y-69013158D01*
X147535000Y-68726260D01*
X147535000Y-68433740D01*
X147477932Y-68146842D01*
X147365990Y-67876589D01*
X147203475Y-67633368D01*
X147201731Y-67631624D01*
X148541356Y-66292000D01*
X151161167Y-66292000D01*
X151163000Y-66442250D01*
G37*
%TD.AperFunction*%
%TD*%
M02*
