%TF.GenerationSoftware,KiCad,Pcbnew,(5.1.10)-1*%
%TF.CreationDate,2021-12-24T17:51:45-05:00*%
%TF.ProjectId,BlueRetro Genesis ESP32 Shield,426c7565-5265-4747-926f-2047656e6573,rev?*%
%TF.SameCoordinates,Original*%
%TF.FileFunction,Legend,Top*%
%TF.FilePolarity,Positive*%
%FSLAX46Y46*%
G04 Gerber Fmt 4.6, Leading zero omitted, Abs format (unit mm)*
G04 Created by KiCad (PCBNEW (5.1.10)-1) date 2021-12-24 17:51:45*
%MOMM*%
%LPD*%
G01*
G04 APERTURE LIST*
%ADD10C,0.200000*%
%ADD11C,0.127000*%
%ADD12C,0.120000*%
%ADD13C,0.150000*%
G04 APERTURE END LIST*
D10*
%TO.C,U6*%
X153607000Y-74978000D02*
G75*
G03*
X153607000Y-74978000I-100000J0D01*
G01*
D11*
X153282000Y-72098000D02*
X153282000Y-69758000D01*
X161932000Y-72098000D02*
X161932000Y-69758000D01*
%TO.C,U1*%
X161932000Y-82450000D02*
X161932000Y-80110000D01*
X153282000Y-82450000D02*
X153282000Y-80110000D01*
D10*
X153607000Y-85330000D02*
G75*
G03*
X153607000Y-85330000I-100000J0D01*
G01*
%TO.C,U3*%
X153607000Y-95425000D02*
G75*
G03*
X153607000Y-95425000I-100000J0D01*
G01*
D11*
X153282000Y-92545000D02*
X153282000Y-90205000D01*
X161932000Y-92545000D02*
X161932000Y-90205000D01*
%TO.C,U5*%
X161932000Y-102578000D02*
X161932000Y-100238000D01*
X153282000Y-102578000D02*
X153282000Y-100238000D01*
D10*
X153607000Y-105458000D02*
G75*
G03*
X153607000Y-105458000I-100000J0D01*
G01*
D12*
%TO.C,J3*%
X135036325Y-100584000D02*
X135469338Y-100334000D01*
X135469338Y-100834000D02*
X135036325Y-100584000D01*
X135469338Y-100334000D02*
X135469338Y-100834000D01*
X134575000Y-110574000D02*
X122235000Y-110574000D01*
X134575000Y-57354000D02*
X134575000Y-110574000D01*
X122235000Y-57354000D02*
X134575000Y-57354000D01*
%TO.C,C1*%
X151763000Y-77731233D02*
X151763000Y-78023767D01*
X152783000Y-77731233D02*
X152783000Y-78023767D01*
%TO.C,C3*%
X152783000Y-87838233D02*
X152783000Y-88130767D01*
X151763000Y-87838233D02*
X151763000Y-88130767D01*
%TO.C,C5*%
X152656000Y-97924233D02*
X152656000Y-98216767D01*
X151636000Y-97924233D02*
X151636000Y-98216767D01*
%TO.C,C6*%
X151763000Y-67444233D02*
X151763000Y-67736767D01*
X152783000Y-67444233D02*
X152783000Y-67736767D01*
%TO.C,J1*%
X146050000Y-62170000D02*
X147380000Y-62170000D01*
X147380000Y-62170000D02*
X147380000Y-63500000D01*
X147380000Y-64770000D02*
X147380000Y-110550000D01*
X144720000Y-110550000D02*
X147380000Y-110550000D01*
X144720000Y-64770000D02*
X144720000Y-110550000D01*
X144720000Y-64770000D02*
X147380000Y-64770000D01*
%TO.C,J2*%
X167580000Y-64770000D02*
X170240000Y-64770000D01*
X167580000Y-64770000D02*
X167580000Y-110550000D01*
X167580000Y-110550000D02*
X170240000Y-110550000D01*
X170240000Y-64770000D02*
X170240000Y-110550000D01*
X170240000Y-62170000D02*
X170240000Y-63500000D01*
X168910000Y-62170000D02*
X170240000Y-62170000D01*
%TO.C,D1*%
X175995000Y-85432000D02*
X175995000Y-83147000D01*
X174525000Y-85432000D02*
X175995000Y-85432000D01*
X174525000Y-83147000D02*
X174525000Y-85432000D01*
%TO.C,R1*%
X174737500Y-80471742D02*
X174737500Y-80946258D01*
X175782500Y-80471742D02*
X175782500Y-80946258D01*
%TO.C,U6*%
D13*
X151344380Y-71754904D02*
X152153904Y-71754904D01*
X152249142Y-71707285D01*
X152296761Y-71659666D01*
X152344380Y-71564428D01*
X152344380Y-71373952D01*
X152296761Y-71278714D01*
X152249142Y-71231095D01*
X152153904Y-71183476D01*
X151344380Y-71183476D01*
X151344380Y-70278714D02*
X151344380Y-70469190D01*
X151392000Y-70564428D01*
X151439619Y-70612047D01*
X151582476Y-70707285D01*
X151772952Y-70754904D01*
X152153904Y-70754904D01*
X152249142Y-70707285D01*
X152296761Y-70659666D01*
X152344380Y-70564428D01*
X152344380Y-70373952D01*
X152296761Y-70278714D01*
X152249142Y-70231095D01*
X152153904Y-70183476D01*
X151915809Y-70183476D01*
X151820571Y-70231095D01*
X151772952Y-70278714D01*
X151725333Y-70373952D01*
X151725333Y-70564428D01*
X151772952Y-70659666D01*
X151820571Y-70707285D01*
X151915809Y-70754904D01*
%TO.C,U1*%
X151344380Y-82041904D02*
X152153904Y-82041904D01*
X152249142Y-81994285D01*
X152296761Y-81946666D01*
X152344380Y-81851428D01*
X152344380Y-81660952D01*
X152296761Y-81565714D01*
X152249142Y-81518095D01*
X152153904Y-81470476D01*
X151344380Y-81470476D01*
X152344380Y-80470476D02*
X152344380Y-81041904D01*
X152344380Y-80756190D02*
X151344380Y-80756190D01*
X151487238Y-80851428D01*
X151582476Y-80946666D01*
X151630095Y-81041904D01*
%TO.C,U3*%
X151344380Y-92201904D02*
X152153904Y-92201904D01*
X152249142Y-92154285D01*
X152296761Y-92106666D01*
X152344380Y-92011428D01*
X152344380Y-91820952D01*
X152296761Y-91725714D01*
X152249142Y-91678095D01*
X152153904Y-91630476D01*
X151344380Y-91630476D01*
X151344380Y-91249523D02*
X151344380Y-90630476D01*
X151725333Y-90963809D01*
X151725333Y-90820952D01*
X151772952Y-90725714D01*
X151820571Y-90678095D01*
X151915809Y-90630476D01*
X152153904Y-90630476D01*
X152249142Y-90678095D01*
X152296761Y-90725714D01*
X152344380Y-90820952D01*
X152344380Y-91106666D01*
X152296761Y-91201904D01*
X152249142Y-91249523D01*
%TO.C,U5*%
X151344380Y-102107904D02*
X152153904Y-102107904D01*
X152249142Y-102060285D01*
X152296761Y-102012666D01*
X152344380Y-101917428D01*
X152344380Y-101726952D01*
X152296761Y-101631714D01*
X152249142Y-101584095D01*
X152153904Y-101536476D01*
X151344380Y-101536476D01*
X151344380Y-100584095D02*
X151344380Y-101060285D01*
X151820571Y-101107904D01*
X151772952Y-101060285D01*
X151725333Y-100965047D01*
X151725333Y-100726952D01*
X151772952Y-100631714D01*
X151820571Y-100584095D01*
X151915809Y-100536476D01*
X152153904Y-100536476D01*
X152249142Y-100584095D01*
X152296761Y-100631714D01*
X152344380Y-100726952D01*
X152344380Y-100965047D01*
X152296761Y-101060285D01*
X152249142Y-101107904D01*
%TO.C,J3*%
X135215380Y-84407333D02*
X135929666Y-84407333D01*
X136072523Y-84454952D01*
X136167761Y-84550190D01*
X136215380Y-84693047D01*
X136215380Y-84788285D01*
X135215380Y-84026380D02*
X135215380Y-83407333D01*
X135596333Y-83740666D01*
X135596333Y-83597809D01*
X135643952Y-83502571D01*
X135691571Y-83454952D01*
X135786809Y-83407333D01*
X136024904Y-83407333D01*
X136120142Y-83454952D01*
X136167761Y-83502571D01*
X136215380Y-83597809D01*
X136215380Y-83883523D01*
X136167761Y-83978761D01*
X136120142Y-84026380D01*
%TO.C,C1*%
X150725142Y-78017666D02*
X150772761Y-78065285D01*
X150820380Y-78208142D01*
X150820380Y-78303380D01*
X150772761Y-78446238D01*
X150677523Y-78541476D01*
X150582285Y-78589095D01*
X150391809Y-78636714D01*
X150248952Y-78636714D01*
X150058476Y-78589095D01*
X149963238Y-78541476D01*
X149868000Y-78446238D01*
X149820380Y-78303380D01*
X149820380Y-78208142D01*
X149868000Y-78065285D01*
X149915619Y-78017666D01*
X150820380Y-77065285D02*
X150820380Y-77636714D01*
X150820380Y-77351000D02*
X149820380Y-77351000D01*
X149963238Y-77446238D01*
X150058476Y-77541476D01*
X150106095Y-77636714D01*
%TO.C,C3*%
X150598142Y-88124666D02*
X150645761Y-88172285D01*
X150693380Y-88315142D01*
X150693380Y-88410380D01*
X150645761Y-88553238D01*
X150550523Y-88648476D01*
X150455285Y-88696095D01*
X150264809Y-88743714D01*
X150121952Y-88743714D01*
X149931476Y-88696095D01*
X149836238Y-88648476D01*
X149741000Y-88553238D01*
X149693380Y-88410380D01*
X149693380Y-88315142D01*
X149741000Y-88172285D01*
X149788619Y-88124666D01*
X149693380Y-87791333D02*
X149693380Y-87172285D01*
X150074333Y-87505619D01*
X150074333Y-87362761D01*
X150121952Y-87267523D01*
X150169571Y-87219904D01*
X150264809Y-87172285D01*
X150502904Y-87172285D01*
X150598142Y-87219904D01*
X150645761Y-87267523D01*
X150693380Y-87362761D01*
X150693380Y-87648476D01*
X150645761Y-87743714D01*
X150598142Y-87791333D01*
%TO.C,C5*%
X150598142Y-98210666D02*
X150645761Y-98258285D01*
X150693380Y-98401142D01*
X150693380Y-98496380D01*
X150645761Y-98639238D01*
X150550523Y-98734476D01*
X150455285Y-98782095D01*
X150264809Y-98829714D01*
X150121952Y-98829714D01*
X149931476Y-98782095D01*
X149836238Y-98734476D01*
X149741000Y-98639238D01*
X149693380Y-98496380D01*
X149693380Y-98401142D01*
X149741000Y-98258285D01*
X149788619Y-98210666D01*
X149693380Y-97305904D02*
X149693380Y-97782095D01*
X150169571Y-97829714D01*
X150121952Y-97782095D01*
X150074333Y-97686857D01*
X150074333Y-97448761D01*
X150121952Y-97353523D01*
X150169571Y-97305904D01*
X150264809Y-97258285D01*
X150502904Y-97258285D01*
X150598142Y-97305904D01*
X150645761Y-97353523D01*
X150693380Y-97448761D01*
X150693380Y-97686857D01*
X150645761Y-97782095D01*
X150598142Y-97829714D01*
%TO.C,C6*%
X150725142Y-67730666D02*
X150772761Y-67778285D01*
X150820380Y-67921142D01*
X150820380Y-68016380D01*
X150772761Y-68159238D01*
X150677523Y-68254476D01*
X150582285Y-68302095D01*
X150391809Y-68349714D01*
X150248952Y-68349714D01*
X150058476Y-68302095D01*
X149963238Y-68254476D01*
X149868000Y-68159238D01*
X149820380Y-68016380D01*
X149820380Y-67921142D01*
X149868000Y-67778285D01*
X149915619Y-67730666D01*
X149820380Y-66873523D02*
X149820380Y-67064000D01*
X149868000Y-67159238D01*
X149915619Y-67206857D01*
X150058476Y-67302095D01*
X150248952Y-67349714D01*
X150629904Y-67349714D01*
X150725142Y-67302095D01*
X150772761Y-67254476D01*
X150820380Y-67159238D01*
X150820380Y-66968761D01*
X150772761Y-66873523D01*
X150725142Y-66825904D01*
X150629904Y-66778285D01*
X150391809Y-66778285D01*
X150296571Y-66825904D01*
X150248952Y-66873523D01*
X150201333Y-66968761D01*
X150201333Y-67159238D01*
X150248952Y-67254476D01*
X150296571Y-67302095D01*
X150391809Y-67349714D01*
%TO.C,J1*%
X145716666Y-60182380D02*
X145716666Y-60896666D01*
X145669047Y-61039523D01*
X145573809Y-61134761D01*
X145430952Y-61182380D01*
X145335714Y-61182380D01*
X146716666Y-61182380D02*
X146145238Y-61182380D01*
X146430952Y-61182380D02*
X146430952Y-60182380D01*
X146335714Y-60325238D01*
X146240476Y-60420476D01*
X146145238Y-60468095D01*
%TO.C,J2*%
X168576666Y-60182380D02*
X168576666Y-60896666D01*
X168529047Y-61039523D01*
X168433809Y-61134761D01*
X168290952Y-61182380D01*
X168195714Y-61182380D01*
X169005238Y-60277619D02*
X169052857Y-60230000D01*
X169148095Y-60182380D01*
X169386190Y-60182380D01*
X169481428Y-60230000D01*
X169529047Y-60277619D01*
X169576666Y-60372857D01*
X169576666Y-60468095D01*
X169529047Y-60610952D01*
X168957619Y-61182380D01*
X169576666Y-61182380D01*
%TO.C,D1*%
X173807380Y-84685095D02*
X172807380Y-84685095D01*
X172807380Y-84447000D01*
X172855000Y-84304142D01*
X172950238Y-84208904D01*
X173045476Y-84161285D01*
X173235952Y-84113666D01*
X173378809Y-84113666D01*
X173569285Y-84161285D01*
X173664523Y-84208904D01*
X173759761Y-84304142D01*
X173807380Y-84447000D01*
X173807380Y-84685095D01*
X173807380Y-83161285D02*
X173807380Y-83732714D01*
X173807380Y-83447000D02*
X172807380Y-83447000D01*
X172950238Y-83542238D01*
X173045476Y-83637476D01*
X173093095Y-83732714D01*
%TO.C,R1*%
X173807380Y-80875666D02*
X173331190Y-81209000D01*
X173807380Y-81447095D02*
X172807380Y-81447095D01*
X172807380Y-81066142D01*
X172855000Y-80970904D01*
X172902619Y-80923285D01*
X172997857Y-80875666D01*
X173140714Y-80875666D01*
X173235952Y-80923285D01*
X173283571Y-80970904D01*
X173331190Y-81066142D01*
X173331190Y-81447095D01*
X173807380Y-79923285D02*
X173807380Y-80494714D01*
X173807380Y-80209000D02*
X172807380Y-80209000D01*
X172950238Y-80304238D01*
X173045476Y-80399476D01*
X173093095Y-80494714D01*
%TD*%
M02*
