M48
; DRILL file {KiCad (5.1.10)-1} date 12/24/21 17:51:48
; FORMAT={-:-/ absolute / inch / decimal}
; #@! TF.CreationDate,2021-12-24T17:51:48-05:00
; #@! TF.GenerationSoftware,Kicad,Pcbnew,(5.1.10)-1
FMAT,2
INCH
T1C0.0157
T2C0.0394
T3C0.1260
T4C0.0866
%
G90
G05
T1
X5.335Y-3.32
X5.355Y-2.925
X5.39Y-3.035
X5.41Y-3.2
X5.455Y-3.69
X5.455Y-3.795
X5.455Y-3.915
X5.52Y-3.525
X5.54Y-2.82
X5.63Y-3.2
X5.8575Y-4.1175
X5.875Y-3.83
X5.93Y-2.635
X5.93Y-3.38
X5.945Y-2.955
X5.95Y-2.695
X5.95Y-3.1
X5.95Y-3.5
X5.95Y-3.895
X6.075Y-3.82
X6.105Y-4.16
X6.145Y-3.42
X6.155Y-2.625
X6.155Y-3.2267
X6.155Y-3.825
X6.18Y-2.815
X6.205Y-3.03
X6.205Y-3.615
X6.25Y-3.385
X6.255Y-4.16
X6.305Y-3.825
X6.355Y-2.8
X6.355Y-3.59
X6.53Y-2.85
X6.9Y-3.08
T2
X5.1132Y-2.7059
X5.1132Y-2.8149
X5.1132Y-2.924
X5.1132Y-3.033
X5.1132Y-3.1421
X5.1132Y-3.2511
X5.1132Y-3.3602
X5.1132Y-3.4693
X5.1132Y-3.5783
X5.1132Y-3.6874
X5.1132Y-3.7964
X5.1132Y-3.9055
X5.225Y-2.6513
X5.225Y-2.7604
X5.225Y-2.8694
X5.225Y-2.9785
X5.225Y-3.0876
X5.225Y-3.1966
X5.225Y-3.3057
X5.225Y-3.4147
X5.225Y-3.5238
X5.225Y-3.6328
X5.225Y-3.7419
X5.225Y-3.8509
X5.225Y-3.96
X5.75Y-2.5
X5.75Y-2.6
X5.75Y-2.7
X5.75Y-2.8
X5.75Y-2.9
X5.75Y-3.0
X5.75Y-3.1
X5.75Y-3.2
X5.75Y-3.3
X5.75Y-3.4
X5.75Y-3.5
X5.75Y-3.6
X5.75Y-3.7
X5.75Y-3.8
X5.75Y-3.9
X5.75Y-4.0
X5.75Y-4.1
X5.75Y-4.2
X5.75Y-4.3
X6.65Y-2.5
X6.65Y-2.6
X6.65Y-2.7
X6.65Y-2.8
X6.65Y-2.9
X6.65Y-3.0
X6.65Y-3.1
X6.65Y-3.2
X6.65Y-3.3
X6.65Y-3.4
X6.65Y-3.5
X6.65Y-3.6
X6.65Y-3.7
X6.65Y-3.8
X6.65Y-3.9
X6.65Y-4.0
X6.65Y-4.1
X6.65Y-4.2
X6.65Y-4.3
T3
X5.1691Y-2.3785
X5.1691Y-4.2328
T4
X5.495Y-2.455
X5.5Y-4.155
X6.905Y-2.455
X6.905Y-4.155
T0
M30
