%TF.GenerationSoftware,KiCad,Pcbnew,(5.1.10)-1*%
%TF.CreationDate,2021-12-24T17:51:45-05:00*%
%TF.ProjectId,BlueRetro Genesis ESP32 Shield,426c7565-5265-4747-926f-2047656e6573,rev?*%
%TF.SameCoordinates,Original*%
%TF.FileFunction,Soldermask,Top*%
%TF.FilePolarity,Negative*%
%FSLAX46Y46*%
G04 Gerber Fmt 4.6, Leading zero omitted, Abs format (unit mm)*
G04 Created by KiCad (PCBNEW (5.1.10)-1) date 2021-12-24 17:51:45*
%MOMM*%
%LPD*%
G01*
G04 APERTURE LIST*
%ADD10C,5.900000*%
%ADD11R,1.600000X1.600000*%
%ADD12C,1.600000*%
%ADD13C,4.000000*%
%ADD14R,1.700000X1.700000*%
%ADD15O,1.700000X1.700000*%
G04 APERTURE END LIST*
D10*
%TO.C,REF\u002A\u002A*%
X175387000Y-62357000D03*
%TD*%
%TO.C,REF\u002A\u002A*%
X139573000Y-62357000D03*
%TD*%
%TO.C,REF\u002A\u002A*%
X139700000Y-105537000D03*
%TD*%
%TO.C,REF\u002A\u002A*%
X175387000Y-105537000D03*
%TD*%
%TO.C,U6*%
G36*
G01*
X154007000Y-69438000D02*
X153587000Y-69438000D01*
G75*
G02*
X153497000Y-69348000I0J90000D01*
G01*
X153497000Y-67558000D01*
G75*
G02*
X153587000Y-67468000I90000J0D01*
G01*
X154007000Y-67468000D01*
G75*
G02*
X154097000Y-67558000I0J-90000D01*
G01*
X154097000Y-69348000D01*
G75*
G02*
X154007000Y-69438000I-90000J0D01*
G01*
G37*
G36*
G01*
X155277000Y-69438000D02*
X154857000Y-69438000D01*
G75*
G02*
X154767000Y-69348000I0J90000D01*
G01*
X154767000Y-67558000D01*
G75*
G02*
X154857000Y-67468000I90000J0D01*
G01*
X155277000Y-67468000D01*
G75*
G02*
X155367000Y-67558000I0J-90000D01*
G01*
X155367000Y-69348000D01*
G75*
G02*
X155277000Y-69438000I-90000J0D01*
G01*
G37*
G36*
G01*
X156547000Y-69438000D02*
X156127000Y-69438000D01*
G75*
G02*
X156037000Y-69348000I0J90000D01*
G01*
X156037000Y-67558000D01*
G75*
G02*
X156127000Y-67468000I90000J0D01*
G01*
X156547000Y-67468000D01*
G75*
G02*
X156637000Y-67558000I0J-90000D01*
G01*
X156637000Y-69348000D01*
G75*
G02*
X156547000Y-69438000I-90000J0D01*
G01*
G37*
G36*
G01*
X157817000Y-69438000D02*
X157397000Y-69438000D01*
G75*
G02*
X157307000Y-69348000I0J90000D01*
G01*
X157307000Y-67558000D01*
G75*
G02*
X157397000Y-67468000I90000J0D01*
G01*
X157817000Y-67468000D01*
G75*
G02*
X157907000Y-67558000I0J-90000D01*
G01*
X157907000Y-69348000D01*
G75*
G02*
X157817000Y-69438000I-90000J0D01*
G01*
G37*
G36*
G01*
X159087000Y-69438000D02*
X158667000Y-69438000D01*
G75*
G02*
X158577000Y-69348000I0J90000D01*
G01*
X158577000Y-67558000D01*
G75*
G02*
X158667000Y-67468000I90000J0D01*
G01*
X159087000Y-67468000D01*
G75*
G02*
X159177000Y-67558000I0J-90000D01*
G01*
X159177000Y-69348000D01*
G75*
G02*
X159087000Y-69438000I-90000J0D01*
G01*
G37*
G36*
G01*
X160357000Y-69438000D02*
X159937000Y-69438000D01*
G75*
G02*
X159847000Y-69348000I0J90000D01*
G01*
X159847000Y-67558000D01*
G75*
G02*
X159937000Y-67468000I90000J0D01*
G01*
X160357000Y-67468000D01*
G75*
G02*
X160447000Y-67558000I0J-90000D01*
G01*
X160447000Y-69348000D01*
G75*
G02*
X160357000Y-69438000I-90000J0D01*
G01*
G37*
G36*
G01*
X161627000Y-69438000D02*
X161207000Y-69438000D01*
G75*
G02*
X161117000Y-69348000I0J90000D01*
G01*
X161117000Y-67558000D01*
G75*
G02*
X161207000Y-67468000I90000J0D01*
G01*
X161627000Y-67468000D01*
G75*
G02*
X161717000Y-67558000I0J-90000D01*
G01*
X161717000Y-69348000D01*
G75*
G02*
X161627000Y-69438000I-90000J0D01*
G01*
G37*
G36*
G01*
X161627000Y-74388000D02*
X161207000Y-74388000D01*
G75*
G02*
X161117000Y-74298000I0J90000D01*
G01*
X161117000Y-72508000D01*
G75*
G02*
X161207000Y-72418000I90000J0D01*
G01*
X161627000Y-72418000D01*
G75*
G02*
X161717000Y-72508000I0J-90000D01*
G01*
X161717000Y-74298000D01*
G75*
G02*
X161627000Y-74388000I-90000J0D01*
G01*
G37*
G36*
G01*
X160357000Y-74388000D02*
X159937000Y-74388000D01*
G75*
G02*
X159847000Y-74298000I0J90000D01*
G01*
X159847000Y-72508000D01*
G75*
G02*
X159937000Y-72418000I90000J0D01*
G01*
X160357000Y-72418000D01*
G75*
G02*
X160447000Y-72508000I0J-90000D01*
G01*
X160447000Y-74298000D01*
G75*
G02*
X160357000Y-74388000I-90000J0D01*
G01*
G37*
G36*
G01*
X159087000Y-74388000D02*
X158667000Y-74388000D01*
G75*
G02*
X158577000Y-74298000I0J90000D01*
G01*
X158577000Y-72508000D01*
G75*
G02*
X158667000Y-72418000I90000J0D01*
G01*
X159087000Y-72418000D01*
G75*
G02*
X159177000Y-72508000I0J-90000D01*
G01*
X159177000Y-74298000D01*
G75*
G02*
X159087000Y-74388000I-90000J0D01*
G01*
G37*
G36*
G01*
X157817000Y-74388000D02*
X157397000Y-74388000D01*
G75*
G02*
X157307000Y-74298000I0J90000D01*
G01*
X157307000Y-72508000D01*
G75*
G02*
X157397000Y-72418000I90000J0D01*
G01*
X157817000Y-72418000D01*
G75*
G02*
X157907000Y-72508000I0J-90000D01*
G01*
X157907000Y-74298000D01*
G75*
G02*
X157817000Y-74388000I-90000J0D01*
G01*
G37*
G36*
G01*
X156547000Y-74388000D02*
X156127000Y-74388000D01*
G75*
G02*
X156037000Y-74298000I0J90000D01*
G01*
X156037000Y-72508000D01*
G75*
G02*
X156127000Y-72418000I90000J0D01*
G01*
X156547000Y-72418000D01*
G75*
G02*
X156637000Y-72508000I0J-90000D01*
G01*
X156637000Y-74298000D01*
G75*
G02*
X156547000Y-74388000I-90000J0D01*
G01*
G37*
G36*
G01*
X155277000Y-74388000D02*
X154857000Y-74388000D01*
G75*
G02*
X154767000Y-74298000I0J90000D01*
G01*
X154767000Y-72508000D01*
G75*
G02*
X154857000Y-72418000I90000J0D01*
G01*
X155277000Y-72418000D01*
G75*
G02*
X155367000Y-72508000I0J-90000D01*
G01*
X155367000Y-74298000D01*
G75*
G02*
X155277000Y-74388000I-90000J0D01*
G01*
G37*
G36*
G01*
X154007000Y-74388000D02*
X153587000Y-74388000D01*
G75*
G02*
X153497000Y-74298000I0J90000D01*
G01*
X153497000Y-72508000D01*
G75*
G02*
X153587000Y-72418000I90000J0D01*
G01*
X154007000Y-72418000D01*
G75*
G02*
X154097000Y-72508000I0J-90000D01*
G01*
X154097000Y-74298000D01*
G75*
G02*
X154007000Y-74388000I-90000J0D01*
G01*
G37*
%TD*%
%TO.C,U1*%
G36*
G01*
X154007000Y-84740000D02*
X153587000Y-84740000D01*
G75*
G02*
X153497000Y-84650000I0J90000D01*
G01*
X153497000Y-82860000D01*
G75*
G02*
X153587000Y-82770000I90000J0D01*
G01*
X154007000Y-82770000D01*
G75*
G02*
X154097000Y-82860000I0J-90000D01*
G01*
X154097000Y-84650000D01*
G75*
G02*
X154007000Y-84740000I-90000J0D01*
G01*
G37*
G36*
G01*
X155277000Y-84740000D02*
X154857000Y-84740000D01*
G75*
G02*
X154767000Y-84650000I0J90000D01*
G01*
X154767000Y-82860000D01*
G75*
G02*
X154857000Y-82770000I90000J0D01*
G01*
X155277000Y-82770000D01*
G75*
G02*
X155367000Y-82860000I0J-90000D01*
G01*
X155367000Y-84650000D01*
G75*
G02*
X155277000Y-84740000I-90000J0D01*
G01*
G37*
G36*
G01*
X156547000Y-84740000D02*
X156127000Y-84740000D01*
G75*
G02*
X156037000Y-84650000I0J90000D01*
G01*
X156037000Y-82860000D01*
G75*
G02*
X156127000Y-82770000I90000J0D01*
G01*
X156547000Y-82770000D01*
G75*
G02*
X156637000Y-82860000I0J-90000D01*
G01*
X156637000Y-84650000D01*
G75*
G02*
X156547000Y-84740000I-90000J0D01*
G01*
G37*
G36*
G01*
X157817000Y-84740000D02*
X157397000Y-84740000D01*
G75*
G02*
X157307000Y-84650000I0J90000D01*
G01*
X157307000Y-82860000D01*
G75*
G02*
X157397000Y-82770000I90000J0D01*
G01*
X157817000Y-82770000D01*
G75*
G02*
X157907000Y-82860000I0J-90000D01*
G01*
X157907000Y-84650000D01*
G75*
G02*
X157817000Y-84740000I-90000J0D01*
G01*
G37*
G36*
G01*
X159087000Y-84740000D02*
X158667000Y-84740000D01*
G75*
G02*
X158577000Y-84650000I0J90000D01*
G01*
X158577000Y-82860000D01*
G75*
G02*
X158667000Y-82770000I90000J0D01*
G01*
X159087000Y-82770000D01*
G75*
G02*
X159177000Y-82860000I0J-90000D01*
G01*
X159177000Y-84650000D01*
G75*
G02*
X159087000Y-84740000I-90000J0D01*
G01*
G37*
G36*
G01*
X160357000Y-84740000D02*
X159937000Y-84740000D01*
G75*
G02*
X159847000Y-84650000I0J90000D01*
G01*
X159847000Y-82860000D01*
G75*
G02*
X159937000Y-82770000I90000J0D01*
G01*
X160357000Y-82770000D01*
G75*
G02*
X160447000Y-82860000I0J-90000D01*
G01*
X160447000Y-84650000D01*
G75*
G02*
X160357000Y-84740000I-90000J0D01*
G01*
G37*
G36*
G01*
X161627000Y-84740000D02*
X161207000Y-84740000D01*
G75*
G02*
X161117000Y-84650000I0J90000D01*
G01*
X161117000Y-82860000D01*
G75*
G02*
X161207000Y-82770000I90000J0D01*
G01*
X161627000Y-82770000D01*
G75*
G02*
X161717000Y-82860000I0J-90000D01*
G01*
X161717000Y-84650000D01*
G75*
G02*
X161627000Y-84740000I-90000J0D01*
G01*
G37*
G36*
G01*
X161627000Y-79790000D02*
X161207000Y-79790000D01*
G75*
G02*
X161117000Y-79700000I0J90000D01*
G01*
X161117000Y-77910000D01*
G75*
G02*
X161207000Y-77820000I90000J0D01*
G01*
X161627000Y-77820000D01*
G75*
G02*
X161717000Y-77910000I0J-90000D01*
G01*
X161717000Y-79700000D01*
G75*
G02*
X161627000Y-79790000I-90000J0D01*
G01*
G37*
G36*
G01*
X160357000Y-79790000D02*
X159937000Y-79790000D01*
G75*
G02*
X159847000Y-79700000I0J90000D01*
G01*
X159847000Y-77910000D01*
G75*
G02*
X159937000Y-77820000I90000J0D01*
G01*
X160357000Y-77820000D01*
G75*
G02*
X160447000Y-77910000I0J-90000D01*
G01*
X160447000Y-79700000D01*
G75*
G02*
X160357000Y-79790000I-90000J0D01*
G01*
G37*
G36*
G01*
X159087000Y-79790000D02*
X158667000Y-79790000D01*
G75*
G02*
X158577000Y-79700000I0J90000D01*
G01*
X158577000Y-77910000D01*
G75*
G02*
X158667000Y-77820000I90000J0D01*
G01*
X159087000Y-77820000D01*
G75*
G02*
X159177000Y-77910000I0J-90000D01*
G01*
X159177000Y-79700000D01*
G75*
G02*
X159087000Y-79790000I-90000J0D01*
G01*
G37*
G36*
G01*
X157817000Y-79790000D02*
X157397000Y-79790000D01*
G75*
G02*
X157307000Y-79700000I0J90000D01*
G01*
X157307000Y-77910000D01*
G75*
G02*
X157397000Y-77820000I90000J0D01*
G01*
X157817000Y-77820000D01*
G75*
G02*
X157907000Y-77910000I0J-90000D01*
G01*
X157907000Y-79700000D01*
G75*
G02*
X157817000Y-79790000I-90000J0D01*
G01*
G37*
G36*
G01*
X156547000Y-79790000D02*
X156127000Y-79790000D01*
G75*
G02*
X156037000Y-79700000I0J90000D01*
G01*
X156037000Y-77910000D01*
G75*
G02*
X156127000Y-77820000I90000J0D01*
G01*
X156547000Y-77820000D01*
G75*
G02*
X156637000Y-77910000I0J-90000D01*
G01*
X156637000Y-79700000D01*
G75*
G02*
X156547000Y-79790000I-90000J0D01*
G01*
G37*
G36*
G01*
X155277000Y-79790000D02*
X154857000Y-79790000D01*
G75*
G02*
X154767000Y-79700000I0J90000D01*
G01*
X154767000Y-77910000D01*
G75*
G02*
X154857000Y-77820000I90000J0D01*
G01*
X155277000Y-77820000D01*
G75*
G02*
X155367000Y-77910000I0J-90000D01*
G01*
X155367000Y-79700000D01*
G75*
G02*
X155277000Y-79790000I-90000J0D01*
G01*
G37*
G36*
G01*
X154007000Y-79790000D02*
X153587000Y-79790000D01*
G75*
G02*
X153497000Y-79700000I0J90000D01*
G01*
X153497000Y-77910000D01*
G75*
G02*
X153587000Y-77820000I90000J0D01*
G01*
X154007000Y-77820000D01*
G75*
G02*
X154097000Y-77910000I0J-90000D01*
G01*
X154097000Y-79700000D01*
G75*
G02*
X154007000Y-79790000I-90000J0D01*
G01*
G37*
%TD*%
%TO.C,U3*%
G36*
G01*
X154007000Y-89885000D02*
X153587000Y-89885000D01*
G75*
G02*
X153497000Y-89795000I0J90000D01*
G01*
X153497000Y-88005000D01*
G75*
G02*
X153587000Y-87915000I90000J0D01*
G01*
X154007000Y-87915000D01*
G75*
G02*
X154097000Y-88005000I0J-90000D01*
G01*
X154097000Y-89795000D01*
G75*
G02*
X154007000Y-89885000I-90000J0D01*
G01*
G37*
G36*
G01*
X155277000Y-89885000D02*
X154857000Y-89885000D01*
G75*
G02*
X154767000Y-89795000I0J90000D01*
G01*
X154767000Y-88005000D01*
G75*
G02*
X154857000Y-87915000I90000J0D01*
G01*
X155277000Y-87915000D01*
G75*
G02*
X155367000Y-88005000I0J-90000D01*
G01*
X155367000Y-89795000D01*
G75*
G02*
X155277000Y-89885000I-90000J0D01*
G01*
G37*
G36*
G01*
X156547000Y-89885000D02*
X156127000Y-89885000D01*
G75*
G02*
X156037000Y-89795000I0J90000D01*
G01*
X156037000Y-88005000D01*
G75*
G02*
X156127000Y-87915000I90000J0D01*
G01*
X156547000Y-87915000D01*
G75*
G02*
X156637000Y-88005000I0J-90000D01*
G01*
X156637000Y-89795000D01*
G75*
G02*
X156547000Y-89885000I-90000J0D01*
G01*
G37*
G36*
G01*
X157817000Y-89885000D02*
X157397000Y-89885000D01*
G75*
G02*
X157307000Y-89795000I0J90000D01*
G01*
X157307000Y-88005000D01*
G75*
G02*
X157397000Y-87915000I90000J0D01*
G01*
X157817000Y-87915000D01*
G75*
G02*
X157907000Y-88005000I0J-90000D01*
G01*
X157907000Y-89795000D01*
G75*
G02*
X157817000Y-89885000I-90000J0D01*
G01*
G37*
G36*
G01*
X159087000Y-89885000D02*
X158667000Y-89885000D01*
G75*
G02*
X158577000Y-89795000I0J90000D01*
G01*
X158577000Y-88005000D01*
G75*
G02*
X158667000Y-87915000I90000J0D01*
G01*
X159087000Y-87915000D01*
G75*
G02*
X159177000Y-88005000I0J-90000D01*
G01*
X159177000Y-89795000D01*
G75*
G02*
X159087000Y-89885000I-90000J0D01*
G01*
G37*
G36*
G01*
X160357000Y-89885000D02*
X159937000Y-89885000D01*
G75*
G02*
X159847000Y-89795000I0J90000D01*
G01*
X159847000Y-88005000D01*
G75*
G02*
X159937000Y-87915000I90000J0D01*
G01*
X160357000Y-87915000D01*
G75*
G02*
X160447000Y-88005000I0J-90000D01*
G01*
X160447000Y-89795000D01*
G75*
G02*
X160357000Y-89885000I-90000J0D01*
G01*
G37*
G36*
G01*
X161627000Y-89885000D02*
X161207000Y-89885000D01*
G75*
G02*
X161117000Y-89795000I0J90000D01*
G01*
X161117000Y-88005000D01*
G75*
G02*
X161207000Y-87915000I90000J0D01*
G01*
X161627000Y-87915000D01*
G75*
G02*
X161717000Y-88005000I0J-90000D01*
G01*
X161717000Y-89795000D01*
G75*
G02*
X161627000Y-89885000I-90000J0D01*
G01*
G37*
G36*
G01*
X161627000Y-94835000D02*
X161207000Y-94835000D01*
G75*
G02*
X161117000Y-94745000I0J90000D01*
G01*
X161117000Y-92955000D01*
G75*
G02*
X161207000Y-92865000I90000J0D01*
G01*
X161627000Y-92865000D01*
G75*
G02*
X161717000Y-92955000I0J-90000D01*
G01*
X161717000Y-94745000D01*
G75*
G02*
X161627000Y-94835000I-90000J0D01*
G01*
G37*
G36*
G01*
X160357000Y-94835000D02*
X159937000Y-94835000D01*
G75*
G02*
X159847000Y-94745000I0J90000D01*
G01*
X159847000Y-92955000D01*
G75*
G02*
X159937000Y-92865000I90000J0D01*
G01*
X160357000Y-92865000D01*
G75*
G02*
X160447000Y-92955000I0J-90000D01*
G01*
X160447000Y-94745000D01*
G75*
G02*
X160357000Y-94835000I-90000J0D01*
G01*
G37*
G36*
G01*
X159087000Y-94835000D02*
X158667000Y-94835000D01*
G75*
G02*
X158577000Y-94745000I0J90000D01*
G01*
X158577000Y-92955000D01*
G75*
G02*
X158667000Y-92865000I90000J0D01*
G01*
X159087000Y-92865000D01*
G75*
G02*
X159177000Y-92955000I0J-90000D01*
G01*
X159177000Y-94745000D01*
G75*
G02*
X159087000Y-94835000I-90000J0D01*
G01*
G37*
G36*
G01*
X157817000Y-94835000D02*
X157397000Y-94835000D01*
G75*
G02*
X157307000Y-94745000I0J90000D01*
G01*
X157307000Y-92955000D01*
G75*
G02*
X157397000Y-92865000I90000J0D01*
G01*
X157817000Y-92865000D01*
G75*
G02*
X157907000Y-92955000I0J-90000D01*
G01*
X157907000Y-94745000D01*
G75*
G02*
X157817000Y-94835000I-90000J0D01*
G01*
G37*
G36*
G01*
X156547000Y-94835000D02*
X156127000Y-94835000D01*
G75*
G02*
X156037000Y-94745000I0J90000D01*
G01*
X156037000Y-92955000D01*
G75*
G02*
X156127000Y-92865000I90000J0D01*
G01*
X156547000Y-92865000D01*
G75*
G02*
X156637000Y-92955000I0J-90000D01*
G01*
X156637000Y-94745000D01*
G75*
G02*
X156547000Y-94835000I-90000J0D01*
G01*
G37*
G36*
G01*
X155277000Y-94835000D02*
X154857000Y-94835000D01*
G75*
G02*
X154767000Y-94745000I0J90000D01*
G01*
X154767000Y-92955000D01*
G75*
G02*
X154857000Y-92865000I90000J0D01*
G01*
X155277000Y-92865000D01*
G75*
G02*
X155367000Y-92955000I0J-90000D01*
G01*
X155367000Y-94745000D01*
G75*
G02*
X155277000Y-94835000I-90000J0D01*
G01*
G37*
G36*
G01*
X154007000Y-94835000D02*
X153587000Y-94835000D01*
G75*
G02*
X153497000Y-94745000I0J90000D01*
G01*
X153497000Y-92955000D01*
G75*
G02*
X153587000Y-92865000I90000J0D01*
G01*
X154007000Y-92865000D01*
G75*
G02*
X154097000Y-92955000I0J-90000D01*
G01*
X154097000Y-94745000D01*
G75*
G02*
X154007000Y-94835000I-90000J0D01*
G01*
G37*
%TD*%
%TO.C,U5*%
G36*
G01*
X154007000Y-104868000D02*
X153587000Y-104868000D01*
G75*
G02*
X153497000Y-104778000I0J90000D01*
G01*
X153497000Y-102988000D01*
G75*
G02*
X153587000Y-102898000I90000J0D01*
G01*
X154007000Y-102898000D01*
G75*
G02*
X154097000Y-102988000I0J-90000D01*
G01*
X154097000Y-104778000D01*
G75*
G02*
X154007000Y-104868000I-90000J0D01*
G01*
G37*
G36*
G01*
X155277000Y-104868000D02*
X154857000Y-104868000D01*
G75*
G02*
X154767000Y-104778000I0J90000D01*
G01*
X154767000Y-102988000D01*
G75*
G02*
X154857000Y-102898000I90000J0D01*
G01*
X155277000Y-102898000D01*
G75*
G02*
X155367000Y-102988000I0J-90000D01*
G01*
X155367000Y-104778000D01*
G75*
G02*
X155277000Y-104868000I-90000J0D01*
G01*
G37*
G36*
G01*
X156547000Y-104868000D02*
X156127000Y-104868000D01*
G75*
G02*
X156037000Y-104778000I0J90000D01*
G01*
X156037000Y-102988000D01*
G75*
G02*
X156127000Y-102898000I90000J0D01*
G01*
X156547000Y-102898000D01*
G75*
G02*
X156637000Y-102988000I0J-90000D01*
G01*
X156637000Y-104778000D01*
G75*
G02*
X156547000Y-104868000I-90000J0D01*
G01*
G37*
G36*
G01*
X157817000Y-104868000D02*
X157397000Y-104868000D01*
G75*
G02*
X157307000Y-104778000I0J90000D01*
G01*
X157307000Y-102988000D01*
G75*
G02*
X157397000Y-102898000I90000J0D01*
G01*
X157817000Y-102898000D01*
G75*
G02*
X157907000Y-102988000I0J-90000D01*
G01*
X157907000Y-104778000D01*
G75*
G02*
X157817000Y-104868000I-90000J0D01*
G01*
G37*
G36*
G01*
X159087000Y-104868000D02*
X158667000Y-104868000D01*
G75*
G02*
X158577000Y-104778000I0J90000D01*
G01*
X158577000Y-102988000D01*
G75*
G02*
X158667000Y-102898000I90000J0D01*
G01*
X159087000Y-102898000D01*
G75*
G02*
X159177000Y-102988000I0J-90000D01*
G01*
X159177000Y-104778000D01*
G75*
G02*
X159087000Y-104868000I-90000J0D01*
G01*
G37*
G36*
G01*
X160357000Y-104868000D02*
X159937000Y-104868000D01*
G75*
G02*
X159847000Y-104778000I0J90000D01*
G01*
X159847000Y-102988000D01*
G75*
G02*
X159937000Y-102898000I90000J0D01*
G01*
X160357000Y-102898000D01*
G75*
G02*
X160447000Y-102988000I0J-90000D01*
G01*
X160447000Y-104778000D01*
G75*
G02*
X160357000Y-104868000I-90000J0D01*
G01*
G37*
G36*
G01*
X161627000Y-104868000D02*
X161207000Y-104868000D01*
G75*
G02*
X161117000Y-104778000I0J90000D01*
G01*
X161117000Y-102988000D01*
G75*
G02*
X161207000Y-102898000I90000J0D01*
G01*
X161627000Y-102898000D01*
G75*
G02*
X161717000Y-102988000I0J-90000D01*
G01*
X161717000Y-104778000D01*
G75*
G02*
X161627000Y-104868000I-90000J0D01*
G01*
G37*
G36*
G01*
X161627000Y-99918000D02*
X161207000Y-99918000D01*
G75*
G02*
X161117000Y-99828000I0J90000D01*
G01*
X161117000Y-98038000D01*
G75*
G02*
X161207000Y-97948000I90000J0D01*
G01*
X161627000Y-97948000D01*
G75*
G02*
X161717000Y-98038000I0J-90000D01*
G01*
X161717000Y-99828000D01*
G75*
G02*
X161627000Y-99918000I-90000J0D01*
G01*
G37*
G36*
G01*
X160357000Y-99918000D02*
X159937000Y-99918000D01*
G75*
G02*
X159847000Y-99828000I0J90000D01*
G01*
X159847000Y-98038000D01*
G75*
G02*
X159937000Y-97948000I90000J0D01*
G01*
X160357000Y-97948000D01*
G75*
G02*
X160447000Y-98038000I0J-90000D01*
G01*
X160447000Y-99828000D01*
G75*
G02*
X160357000Y-99918000I-90000J0D01*
G01*
G37*
G36*
G01*
X159087000Y-99918000D02*
X158667000Y-99918000D01*
G75*
G02*
X158577000Y-99828000I0J90000D01*
G01*
X158577000Y-98038000D01*
G75*
G02*
X158667000Y-97948000I90000J0D01*
G01*
X159087000Y-97948000D01*
G75*
G02*
X159177000Y-98038000I0J-90000D01*
G01*
X159177000Y-99828000D01*
G75*
G02*
X159087000Y-99918000I-90000J0D01*
G01*
G37*
G36*
G01*
X157817000Y-99918000D02*
X157397000Y-99918000D01*
G75*
G02*
X157307000Y-99828000I0J90000D01*
G01*
X157307000Y-98038000D01*
G75*
G02*
X157397000Y-97948000I90000J0D01*
G01*
X157817000Y-97948000D01*
G75*
G02*
X157907000Y-98038000I0J-90000D01*
G01*
X157907000Y-99828000D01*
G75*
G02*
X157817000Y-99918000I-90000J0D01*
G01*
G37*
G36*
G01*
X156547000Y-99918000D02*
X156127000Y-99918000D01*
G75*
G02*
X156037000Y-99828000I0J90000D01*
G01*
X156037000Y-98038000D01*
G75*
G02*
X156127000Y-97948000I90000J0D01*
G01*
X156547000Y-97948000D01*
G75*
G02*
X156637000Y-98038000I0J-90000D01*
G01*
X156637000Y-99828000D01*
G75*
G02*
X156547000Y-99918000I-90000J0D01*
G01*
G37*
G36*
G01*
X155277000Y-99918000D02*
X154857000Y-99918000D01*
G75*
G02*
X154767000Y-99828000I0J90000D01*
G01*
X154767000Y-98038000D01*
G75*
G02*
X154857000Y-97948000I90000J0D01*
G01*
X155277000Y-97948000D01*
G75*
G02*
X155367000Y-98038000I0J-90000D01*
G01*
X155367000Y-99828000D01*
G75*
G02*
X155277000Y-99918000I-90000J0D01*
G01*
G37*
G36*
G01*
X154007000Y-99918000D02*
X153587000Y-99918000D01*
G75*
G02*
X153497000Y-99828000I0J90000D01*
G01*
X153497000Y-98038000D01*
G75*
G02*
X153587000Y-97948000I90000J0D01*
G01*
X154007000Y-97948000D01*
G75*
G02*
X154097000Y-98038000I0J-90000D01*
G01*
X154097000Y-99828000D01*
G75*
G02*
X154007000Y-99918000I-90000J0D01*
G01*
G37*
%TD*%
D11*
%TO.C,J3*%
X132715000Y-100584000D03*
D12*
X132715000Y-97814000D03*
X132715000Y-95044000D03*
X132715000Y-92274000D03*
X132715000Y-89504000D03*
X132715000Y-86734000D03*
X132715000Y-83964000D03*
X132715000Y-81194000D03*
X132715000Y-78424000D03*
X132715000Y-75654000D03*
X132715000Y-72884000D03*
X132715000Y-70114000D03*
X132715000Y-67344000D03*
X129875000Y-99199000D03*
X129875000Y-96429000D03*
X129875000Y-93659000D03*
X129875000Y-90889000D03*
X129875000Y-88119000D03*
X129875000Y-85349000D03*
X129875000Y-82579000D03*
X129875000Y-79809000D03*
X129875000Y-77039000D03*
X129875000Y-74269000D03*
X129875000Y-71499000D03*
X129875000Y-68729000D03*
D13*
X131295000Y-60414000D03*
X131295000Y-107514000D03*
%TD*%
%TO.C,C1*%
G36*
G01*
X152035500Y-76477500D02*
X152510500Y-76477500D01*
G75*
G02*
X152748000Y-76715000I0J-237500D01*
G01*
X152748000Y-77315000D01*
G75*
G02*
X152510500Y-77552500I-237500J0D01*
G01*
X152035500Y-77552500D01*
G75*
G02*
X151798000Y-77315000I0J237500D01*
G01*
X151798000Y-76715000D01*
G75*
G02*
X152035500Y-76477500I237500J0D01*
G01*
G37*
G36*
G01*
X152035500Y-78202500D02*
X152510500Y-78202500D01*
G75*
G02*
X152748000Y-78440000I0J-237500D01*
G01*
X152748000Y-79040000D01*
G75*
G02*
X152510500Y-79277500I-237500J0D01*
G01*
X152035500Y-79277500D01*
G75*
G02*
X151798000Y-79040000I0J237500D01*
G01*
X151798000Y-78440000D01*
G75*
G02*
X152035500Y-78202500I237500J0D01*
G01*
G37*
%TD*%
%TO.C,C3*%
G36*
G01*
X152035500Y-88309500D02*
X152510500Y-88309500D01*
G75*
G02*
X152748000Y-88547000I0J-237500D01*
G01*
X152748000Y-89147000D01*
G75*
G02*
X152510500Y-89384500I-237500J0D01*
G01*
X152035500Y-89384500D01*
G75*
G02*
X151798000Y-89147000I0J237500D01*
G01*
X151798000Y-88547000D01*
G75*
G02*
X152035500Y-88309500I237500J0D01*
G01*
G37*
G36*
G01*
X152035500Y-86584500D02*
X152510500Y-86584500D01*
G75*
G02*
X152748000Y-86822000I0J-237500D01*
G01*
X152748000Y-87422000D01*
G75*
G02*
X152510500Y-87659500I-237500J0D01*
G01*
X152035500Y-87659500D01*
G75*
G02*
X151798000Y-87422000I0J237500D01*
G01*
X151798000Y-86822000D01*
G75*
G02*
X152035500Y-86584500I237500J0D01*
G01*
G37*
%TD*%
%TO.C,C5*%
G36*
G01*
X151908500Y-98395500D02*
X152383500Y-98395500D01*
G75*
G02*
X152621000Y-98633000I0J-237500D01*
G01*
X152621000Y-99233000D01*
G75*
G02*
X152383500Y-99470500I-237500J0D01*
G01*
X151908500Y-99470500D01*
G75*
G02*
X151671000Y-99233000I0J237500D01*
G01*
X151671000Y-98633000D01*
G75*
G02*
X151908500Y-98395500I237500J0D01*
G01*
G37*
G36*
G01*
X151908500Y-96670500D02*
X152383500Y-96670500D01*
G75*
G02*
X152621000Y-96908000I0J-237500D01*
G01*
X152621000Y-97508000D01*
G75*
G02*
X152383500Y-97745500I-237500J0D01*
G01*
X151908500Y-97745500D01*
G75*
G02*
X151671000Y-97508000I0J237500D01*
G01*
X151671000Y-96908000D01*
G75*
G02*
X151908500Y-96670500I237500J0D01*
G01*
G37*
%TD*%
%TO.C,C6*%
G36*
G01*
X152035500Y-66190500D02*
X152510500Y-66190500D01*
G75*
G02*
X152748000Y-66428000I0J-237500D01*
G01*
X152748000Y-67028000D01*
G75*
G02*
X152510500Y-67265500I-237500J0D01*
G01*
X152035500Y-67265500D01*
G75*
G02*
X151798000Y-67028000I0J237500D01*
G01*
X151798000Y-66428000D01*
G75*
G02*
X152035500Y-66190500I237500J0D01*
G01*
G37*
G36*
G01*
X152035500Y-67915500D02*
X152510500Y-67915500D01*
G75*
G02*
X152748000Y-68153000I0J-237500D01*
G01*
X152748000Y-68753000D01*
G75*
G02*
X152510500Y-68990500I-237500J0D01*
G01*
X152035500Y-68990500D01*
G75*
G02*
X151798000Y-68753000I0J237500D01*
G01*
X151798000Y-68153000D01*
G75*
G02*
X152035500Y-67915500I237500J0D01*
G01*
G37*
%TD*%
D14*
%TO.C,J1*%
X146050000Y-63500000D03*
D15*
X146050000Y-66040000D03*
X146050000Y-68580000D03*
X146050000Y-71120000D03*
X146050000Y-73660000D03*
X146050000Y-76200000D03*
X146050000Y-78740000D03*
X146050000Y-81280000D03*
X146050000Y-83820000D03*
X146050000Y-86360000D03*
X146050000Y-88900000D03*
X146050000Y-91440000D03*
X146050000Y-93980000D03*
X146050000Y-96520000D03*
X146050000Y-99060000D03*
X146050000Y-101600000D03*
X146050000Y-104140000D03*
X146050000Y-106680000D03*
X146050000Y-109220000D03*
%TD*%
%TO.C,J2*%
X168910000Y-109220000D03*
X168910000Y-106680000D03*
X168910000Y-104140000D03*
X168910000Y-101600000D03*
X168910000Y-99060000D03*
X168910000Y-96520000D03*
X168910000Y-93980000D03*
X168910000Y-91440000D03*
X168910000Y-88900000D03*
X168910000Y-86360000D03*
X168910000Y-83820000D03*
X168910000Y-81280000D03*
X168910000Y-78740000D03*
X168910000Y-76200000D03*
X168910000Y-73660000D03*
X168910000Y-71120000D03*
X168910000Y-68580000D03*
X168910000Y-66040000D03*
D14*
X168910000Y-63500000D03*
%TD*%
%TO.C,D1*%
G36*
G01*
X175516250Y-85172000D02*
X175003750Y-85172000D01*
G75*
G02*
X174785000Y-84953250I0J218750D01*
G01*
X174785000Y-84515750D01*
G75*
G02*
X175003750Y-84297000I218750J0D01*
G01*
X175516250Y-84297000D01*
G75*
G02*
X175735000Y-84515750I0J-218750D01*
G01*
X175735000Y-84953250D01*
G75*
G02*
X175516250Y-85172000I-218750J0D01*
G01*
G37*
G36*
G01*
X175516250Y-83597000D02*
X175003750Y-83597000D01*
G75*
G02*
X174785000Y-83378250I0J218750D01*
G01*
X174785000Y-82940750D01*
G75*
G02*
X175003750Y-82722000I218750J0D01*
G01*
X175516250Y-82722000D01*
G75*
G02*
X175735000Y-82940750I0J-218750D01*
G01*
X175735000Y-83378250D01*
G75*
G02*
X175516250Y-83597000I-218750J0D01*
G01*
G37*
%TD*%
%TO.C,R1*%
G36*
G01*
X174985000Y-79484000D02*
X175535000Y-79484000D01*
G75*
G02*
X175735000Y-79684000I0J-200000D01*
G01*
X175735000Y-80084000D01*
G75*
G02*
X175535000Y-80284000I-200000J0D01*
G01*
X174985000Y-80284000D01*
G75*
G02*
X174785000Y-80084000I0J200000D01*
G01*
X174785000Y-79684000D01*
G75*
G02*
X174985000Y-79484000I200000J0D01*
G01*
G37*
G36*
G01*
X174985000Y-81134000D02*
X175535000Y-81134000D01*
G75*
G02*
X175735000Y-81334000I0J-200000D01*
G01*
X175735000Y-81734000D01*
G75*
G02*
X175535000Y-81934000I-200000J0D01*
G01*
X174985000Y-81934000D01*
G75*
G02*
X174785000Y-81734000I0J200000D01*
G01*
X174785000Y-81334000D01*
G75*
G02*
X174985000Y-81134000I200000J0D01*
G01*
G37*
%TD*%
M02*
